G04*
G04 #@! TF.GenerationSoftware,Altium Limited,CircuitMaker,2.3.0 (3)*
G04*
G04 Layer_Color=7318015*
%FSLAX25Y25*%
%MOIN*%
G70*
G04*
G04 #@! TF.SameCoordinates,2CB11315-EA6C-4568-8D24-B69FFBB62024*
G04*
G04*
G04 #@! TF.FilePolarity,Positive*
G04*
G01*
G75*
%ADD12R,0.03543X0.03150*%
%ADD13R,0.03347X0.06299*%
G04:AMPARAMS|DCode=14|XSize=62.99mil|YSize=33.47mil|CornerRadius=8.37mil|HoleSize=0mil|Usage=FLASHONLY|Rotation=90.000|XOffset=0mil|YOffset=0mil|HoleType=Round|Shape=RoundedRectangle|*
%AMROUNDEDRECTD14*
21,1,0.06299,0.01673,0,0,90.0*
21,1,0.04626,0.03347,0,0,90.0*
1,1,0.01673,0.00837,0.02313*
1,1,0.01673,0.00837,-0.02313*
1,1,0.01673,-0.00837,-0.02313*
1,1,0.01673,-0.00837,0.02313*
%
%ADD14ROUNDEDRECTD14*%
D12*
X446457Y109350D02*
D03*
Y114272D02*
D03*
Y131004D02*
D03*
Y135925D02*
D03*
X424803Y131004D02*
D03*
Y135925D02*
D03*
X403150Y131004D02*
D03*
Y135925D02*
D03*
X381496Y131004D02*
D03*
Y135925D02*
D03*
X359842Y131004D02*
D03*
Y135925D02*
D03*
Y109350D02*
D03*
Y114272D02*
D03*
X381496Y109350D02*
D03*
Y114272D02*
D03*
X424803Y109350D02*
D03*
Y114272D02*
D03*
X403150Y109350D02*
D03*
Y114272D02*
D03*
X446457Y152657D02*
D03*
Y157579D02*
D03*
X424803Y152657D02*
D03*
Y157579D02*
D03*
X403150Y152657D02*
D03*
Y157579D02*
D03*
X381496Y152657D02*
D03*
Y157579D02*
D03*
X359842Y152657D02*
D03*
Y157579D02*
D03*
X338189Y152657D02*
D03*
Y157579D02*
D03*
X316535Y152657D02*
D03*
Y157579D02*
D03*
X294882Y152657D02*
D03*
Y157579D02*
D03*
X273228Y152657D02*
D03*
Y157579D02*
D03*
X251575Y152657D02*
D03*
Y157579D02*
D03*
X229921Y152657D02*
D03*
Y157579D02*
D03*
Y131004D02*
D03*
Y135925D02*
D03*
X251575Y131004D02*
D03*
Y135925D02*
D03*
X273228Y131004D02*
D03*
Y135925D02*
D03*
X294882Y131004D02*
D03*
Y135925D02*
D03*
X316535Y131004D02*
D03*
Y135925D02*
D03*
X338189Y131004D02*
D03*
Y135925D02*
D03*
Y109350D02*
D03*
Y114272D02*
D03*
X316535Y109350D02*
D03*
Y114272D02*
D03*
X294882Y109350D02*
D03*
Y114272D02*
D03*
X273228Y109350D02*
D03*
Y114272D02*
D03*
X251575Y109350D02*
D03*
Y114272D02*
D03*
X229921Y109350D02*
D03*
Y114272D02*
D03*
X208268Y109350D02*
D03*
Y114272D02*
D03*
Y131004D02*
D03*
Y135925D02*
D03*
Y152657D02*
D03*
Y157579D02*
D03*
X143307Y131004D02*
D03*
Y135925D02*
D03*
X121653Y131004D02*
D03*
Y135925D02*
D03*
Y109350D02*
D03*
Y114272D02*
D03*
X143307Y109350D02*
D03*
Y114272D02*
D03*
X164961Y131004D02*
D03*
Y135925D02*
D03*
Y109350D02*
D03*
Y114272D02*
D03*
X186614Y131004D02*
D03*
Y135925D02*
D03*
Y109350D02*
D03*
Y114272D02*
D03*
Y152657D02*
D03*
Y157579D02*
D03*
X164961Y152657D02*
D03*
Y157579D02*
D03*
X143307Y152657D02*
D03*
Y157579D02*
D03*
X121653Y152657D02*
D03*
Y157579D02*
D03*
Y195965D02*
D03*
Y200886D02*
D03*
X143307Y195965D02*
D03*
Y200886D02*
D03*
Y174311D02*
D03*
Y179232D02*
D03*
X121653Y174311D02*
D03*
Y179232D02*
D03*
X229921Y195965D02*
D03*
Y200886D02*
D03*
X208268Y195965D02*
D03*
Y200886D02*
D03*
X186614Y195965D02*
D03*
Y200886D02*
D03*
X164961Y195965D02*
D03*
Y200886D02*
D03*
Y174311D02*
D03*
Y179232D02*
D03*
X186614Y174311D02*
D03*
Y179232D02*
D03*
X208268Y174311D02*
D03*
Y179232D02*
D03*
X229921Y174311D02*
D03*
Y179232D02*
D03*
X251575Y174311D02*
D03*
Y179232D02*
D03*
Y195965D02*
D03*
Y200886D02*
D03*
X316535Y195965D02*
D03*
Y200886D02*
D03*
X294882Y195965D02*
D03*
Y200886D02*
D03*
X273228Y195965D02*
D03*
Y200886D02*
D03*
Y174311D02*
D03*
Y179232D02*
D03*
X294882Y174311D02*
D03*
Y179232D02*
D03*
X316535Y174311D02*
D03*
Y179232D02*
D03*
X338189Y174311D02*
D03*
Y179232D02*
D03*
X424803Y195965D02*
D03*
Y200886D02*
D03*
X403150Y195965D02*
D03*
Y200886D02*
D03*
X381496Y195965D02*
D03*
Y200886D02*
D03*
X359842Y195965D02*
D03*
Y200886D02*
D03*
Y174311D02*
D03*
Y179232D02*
D03*
X381496Y174311D02*
D03*
Y179232D02*
D03*
X403150Y174311D02*
D03*
Y179232D02*
D03*
X424803Y174311D02*
D03*
Y179232D02*
D03*
X446457Y174311D02*
D03*
Y179232D02*
D03*
Y195965D02*
D03*
Y200886D02*
D03*
X381496Y217618D02*
D03*
Y222539D02*
D03*
X403150Y217618D02*
D03*
Y222539D02*
D03*
X424803Y217618D02*
D03*
Y222539D02*
D03*
X446457Y217618D02*
D03*
Y222539D02*
D03*
Y239272D02*
D03*
Y244193D02*
D03*
X424803Y239272D02*
D03*
Y244193D02*
D03*
X403150Y239272D02*
D03*
Y244193D02*
D03*
X381496Y239272D02*
D03*
Y244193D02*
D03*
X359842Y239272D02*
D03*
Y244193D02*
D03*
Y217618D02*
D03*
Y222539D02*
D03*
X338189Y217618D02*
D03*
Y222539D02*
D03*
X316535Y217618D02*
D03*
Y222539D02*
D03*
X273228Y217618D02*
D03*
Y222539D02*
D03*
X294882Y217618D02*
D03*
Y222539D02*
D03*
Y239272D02*
D03*
Y244193D02*
D03*
X316535Y239272D02*
D03*
Y244193D02*
D03*
X338189Y239272D02*
D03*
Y244193D02*
D03*
X273228Y239272D02*
D03*
Y244193D02*
D03*
X208268Y239272D02*
D03*
Y244193D02*
D03*
X229921Y239272D02*
D03*
Y244193D02*
D03*
X251575Y239272D02*
D03*
Y244193D02*
D03*
Y217618D02*
D03*
Y222539D02*
D03*
X229921Y217618D02*
D03*
Y222539D02*
D03*
X208268Y217618D02*
D03*
Y222539D02*
D03*
X186614Y217618D02*
D03*
Y222539D02*
D03*
Y239272D02*
D03*
Y244193D02*
D03*
X164961Y217618D02*
D03*
Y222539D02*
D03*
X143307Y217618D02*
D03*
Y222539D02*
D03*
X121653Y217618D02*
D03*
Y222539D02*
D03*
Y239272D02*
D03*
Y244193D02*
D03*
X143307Y239272D02*
D03*
Y244193D02*
D03*
X164961Y239272D02*
D03*
Y244193D02*
D03*
X121653Y260925D02*
D03*
Y265846D02*
D03*
X143307Y260925D02*
D03*
Y265846D02*
D03*
X164961Y260925D02*
D03*
Y265846D02*
D03*
X186614Y260925D02*
D03*
Y265846D02*
D03*
X208268Y260925D02*
D03*
Y265846D02*
D03*
X229921Y260925D02*
D03*
Y265846D02*
D03*
X251575Y260925D02*
D03*
Y265846D02*
D03*
X273228Y260925D02*
D03*
Y265846D02*
D03*
X294882Y260925D02*
D03*
Y265846D02*
D03*
X316535Y260925D02*
D03*
Y265846D02*
D03*
X338189Y260925D02*
D03*
Y265846D02*
D03*
X359842Y260925D02*
D03*
Y265846D02*
D03*
X381496Y260925D02*
D03*
Y265846D02*
D03*
X403150Y260925D02*
D03*
Y265846D02*
D03*
X424803Y260925D02*
D03*
Y265846D02*
D03*
X446457Y260925D02*
D03*
Y265846D02*
D03*
X338189Y200886D02*
D03*
Y195965D02*
D03*
D13*
X388878Y118307D02*
D03*
X395768D02*
D03*
Y105315D02*
D03*
X410532Y118307D02*
D03*
X417421D02*
D03*
Y105315D02*
D03*
X432185Y118307D02*
D03*
X439075D02*
D03*
Y105315D02*
D03*
X432185Y139961D02*
D03*
X439075D02*
D03*
Y126969D02*
D03*
X410532Y139961D02*
D03*
X417421D02*
D03*
Y126969D02*
D03*
X388878Y139961D02*
D03*
X395768D02*
D03*
Y126969D02*
D03*
X367224Y139961D02*
D03*
X374114D02*
D03*
Y126969D02*
D03*
X367224Y118307D02*
D03*
X374114D02*
D03*
Y105315D02*
D03*
X345571Y118307D02*
D03*
X352461D02*
D03*
Y105315D02*
D03*
X345571Y139961D02*
D03*
X352461D02*
D03*
Y126969D02*
D03*
X388878Y161614D02*
D03*
X395768D02*
D03*
Y148622D02*
D03*
X410532Y161614D02*
D03*
X417421D02*
D03*
Y148622D02*
D03*
X432185Y161614D02*
D03*
X439075D02*
D03*
Y148622D02*
D03*
X367224Y161614D02*
D03*
X374114D02*
D03*
Y148622D02*
D03*
X345571Y161614D02*
D03*
X352461D02*
D03*
Y148622D02*
D03*
X215650Y118307D02*
D03*
X222539D02*
D03*
Y105315D02*
D03*
X237303Y118307D02*
D03*
X244193D02*
D03*
Y105315D02*
D03*
X258957Y118307D02*
D03*
X265846D02*
D03*
Y105315D02*
D03*
X280610Y118307D02*
D03*
X287500D02*
D03*
Y105315D02*
D03*
X302264Y118307D02*
D03*
X309154D02*
D03*
Y105315D02*
D03*
X323917Y118307D02*
D03*
X330807D02*
D03*
Y105315D02*
D03*
X323917Y139961D02*
D03*
X330807D02*
D03*
Y126969D02*
D03*
X302264Y139961D02*
D03*
X309154D02*
D03*
Y126969D02*
D03*
X280610Y139961D02*
D03*
X287500D02*
D03*
Y126969D02*
D03*
X258957Y139961D02*
D03*
X265846D02*
D03*
Y126969D02*
D03*
X237303Y139961D02*
D03*
X244193D02*
D03*
Y126969D02*
D03*
X215650Y139961D02*
D03*
X222539D02*
D03*
Y126969D02*
D03*
X215650Y161614D02*
D03*
X222539D02*
D03*
Y148622D02*
D03*
X237303Y161614D02*
D03*
X244193D02*
D03*
Y148622D02*
D03*
X258957Y161614D02*
D03*
X265846D02*
D03*
Y148622D02*
D03*
X280610Y161614D02*
D03*
X287500D02*
D03*
Y148622D02*
D03*
X302264Y161614D02*
D03*
X309154D02*
D03*
Y148622D02*
D03*
X323917Y161614D02*
D03*
X330807D02*
D03*
Y148622D02*
D03*
X129035Y139961D02*
D03*
X135925D02*
D03*
Y126969D02*
D03*
X172343Y118307D02*
D03*
X179232D02*
D03*
Y105315D02*
D03*
X129035Y118307D02*
D03*
X135925D02*
D03*
Y105315D02*
D03*
X150689Y118307D02*
D03*
X157579D02*
D03*
Y105315D02*
D03*
X150689Y139961D02*
D03*
X157579D02*
D03*
Y126969D02*
D03*
X172343Y139961D02*
D03*
X179232D02*
D03*
Y126969D02*
D03*
X107382Y139961D02*
D03*
X114272D02*
D03*
Y126969D02*
D03*
X107382Y118307D02*
D03*
X114272D02*
D03*
Y105315D02*
D03*
X193996Y118307D02*
D03*
X200886D02*
D03*
Y105315D02*
D03*
X193996Y139961D02*
D03*
X200886D02*
D03*
Y126969D02*
D03*
X193996Y161614D02*
D03*
X200886D02*
D03*
Y148622D02*
D03*
X172343Y161614D02*
D03*
X179232D02*
D03*
Y148622D02*
D03*
X150689Y161614D02*
D03*
X157579D02*
D03*
Y148622D02*
D03*
X129035Y161614D02*
D03*
X135925D02*
D03*
Y148622D02*
D03*
X107382Y161614D02*
D03*
X114272D02*
D03*
Y148622D02*
D03*
X150689Y183268D02*
D03*
X157579D02*
D03*
Y170276D02*
D03*
X129035Y183268D02*
D03*
X135925D02*
D03*
Y170276D02*
D03*
X107382Y183268D02*
D03*
X114272D02*
D03*
Y170276D02*
D03*
X107382Y204921D02*
D03*
X114272D02*
D03*
Y191929D02*
D03*
X129035Y204921D02*
D03*
X135925D02*
D03*
Y191929D02*
D03*
X150689Y204921D02*
D03*
X157579D02*
D03*
Y191929D02*
D03*
X237303Y183268D02*
D03*
X244193D02*
D03*
Y170276D02*
D03*
X215650Y183268D02*
D03*
X222539D02*
D03*
Y170276D02*
D03*
X193996Y183268D02*
D03*
X200886D02*
D03*
Y170276D02*
D03*
X172343Y183268D02*
D03*
X179232D02*
D03*
Y170276D02*
D03*
X172343Y204921D02*
D03*
X179232D02*
D03*
Y191929D02*
D03*
X193996Y204921D02*
D03*
X200886D02*
D03*
Y191929D02*
D03*
X215650Y204921D02*
D03*
X222539D02*
D03*
Y191929D02*
D03*
X237303Y204921D02*
D03*
X244193D02*
D03*
Y191929D02*
D03*
X323917Y204921D02*
D03*
X330807D02*
D03*
Y191929D02*
D03*
X302264Y204921D02*
D03*
X309154D02*
D03*
Y191929D02*
D03*
X280610Y204921D02*
D03*
X287500D02*
D03*
Y191929D02*
D03*
X258957Y204921D02*
D03*
X265846D02*
D03*
Y191929D02*
D03*
X258957Y183268D02*
D03*
X265846D02*
D03*
Y170276D02*
D03*
X345571Y183268D02*
D03*
X352461D02*
D03*
Y170276D02*
D03*
X345571Y204921D02*
D03*
X352461D02*
D03*
Y191929D02*
D03*
X388878Y183268D02*
D03*
X395768D02*
D03*
Y170276D02*
D03*
X367224Y183268D02*
D03*
X374114D02*
D03*
Y170276D02*
D03*
X367224Y204921D02*
D03*
X374114D02*
D03*
Y191929D02*
D03*
X388878Y204921D02*
D03*
X395768D02*
D03*
Y191929D02*
D03*
X410532Y204921D02*
D03*
X417421D02*
D03*
Y191929D02*
D03*
X432185Y204921D02*
D03*
X439075D02*
D03*
Y191929D02*
D03*
X410532Y183268D02*
D03*
X417421D02*
D03*
Y170276D02*
D03*
X432185Y183268D02*
D03*
X439075D02*
D03*
Y170276D02*
D03*
X410532Y226575D02*
D03*
X417421D02*
D03*
Y213583D02*
D03*
X388878Y226575D02*
D03*
X395768D02*
D03*
Y213583D02*
D03*
X367224Y226575D02*
D03*
X374114D02*
D03*
Y213583D02*
D03*
X367224Y248228D02*
D03*
X374114D02*
D03*
Y235236D02*
D03*
X388878Y248228D02*
D03*
X395768D02*
D03*
Y235236D02*
D03*
X410532Y248228D02*
D03*
X417421D02*
D03*
Y235236D02*
D03*
X432185Y248228D02*
D03*
X439075D02*
D03*
Y235236D02*
D03*
X432185Y226575D02*
D03*
X439075D02*
D03*
Y213583D02*
D03*
X280610Y226575D02*
D03*
X287500D02*
D03*
Y213583D02*
D03*
X302264Y226575D02*
D03*
X309154D02*
D03*
Y213583D02*
D03*
X323917Y226575D02*
D03*
X330807D02*
D03*
Y213583D02*
D03*
X345571Y226575D02*
D03*
X352461D02*
D03*
Y213583D02*
D03*
X345571Y248228D02*
D03*
X352461D02*
D03*
Y235236D02*
D03*
X323917Y248228D02*
D03*
X330807D02*
D03*
Y235236D02*
D03*
X302264Y248228D02*
D03*
X309154D02*
D03*
Y235236D02*
D03*
X280610Y248228D02*
D03*
X287500D02*
D03*
Y235236D02*
D03*
X258957Y248228D02*
D03*
X265846D02*
D03*
Y235236D02*
D03*
X237303Y248228D02*
D03*
X244193D02*
D03*
Y235236D02*
D03*
X215650Y248228D02*
D03*
X222539D02*
D03*
Y235236D02*
D03*
X193996Y248228D02*
D03*
X200886D02*
D03*
Y235236D02*
D03*
X193996Y226575D02*
D03*
X200886D02*
D03*
Y213583D02*
D03*
X215650Y226575D02*
D03*
X222539D02*
D03*
Y213583D02*
D03*
X237303Y226575D02*
D03*
X244193D02*
D03*
Y213583D02*
D03*
X258957Y226575D02*
D03*
X265846D02*
D03*
Y213583D02*
D03*
X150689Y248228D02*
D03*
X157579D02*
D03*
Y235236D02*
D03*
X172343Y248228D02*
D03*
X179232D02*
D03*
Y235236D02*
D03*
X172343Y226575D02*
D03*
X179232D02*
D03*
Y213583D02*
D03*
X150689Y226575D02*
D03*
X157579D02*
D03*
Y213583D02*
D03*
X129035Y226575D02*
D03*
X135925D02*
D03*
Y213583D02*
D03*
X107382Y226575D02*
D03*
X114272D02*
D03*
Y213583D02*
D03*
X129035Y248228D02*
D03*
X135925D02*
D03*
Y235236D02*
D03*
X107382Y248228D02*
D03*
X114272D02*
D03*
Y235236D02*
D03*
X107382Y269882D02*
D03*
X114272D02*
D03*
Y256890D02*
D03*
X129035Y269882D02*
D03*
X135925D02*
D03*
Y256890D02*
D03*
X150689Y269882D02*
D03*
X157579D02*
D03*
Y256890D02*
D03*
X172343Y269882D02*
D03*
X179232D02*
D03*
Y256890D02*
D03*
X193996Y269882D02*
D03*
X200886D02*
D03*
Y256890D02*
D03*
X215650Y269882D02*
D03*
X222539D02*
D03*
Y256890D02*
D03*
X237303Y269882D02*
D03*
X244193D02*
D03*
Y256890D02*
D03*
X258957Y269882D02*
D03*
X265846D02*
D03*
Y256890D02*
D03*
X280610Y269882D02*
D03*
X287500D02*
D03*
Y256890D02*
D03*
X302264Y269882D02*
D03*
X309154D02*
D03*
Y256890D02*
D03*
X323917Y269882D02*
D03*
X330807D02*
D03*
Y256890D02*
D03*
X345571Y269882D02*
D03*
X352461D02*
D03*
Y256890D02*
D03*
X367224Y269882D02*
D03*
X374114D02*
D03*
Y256890D02*
D03*
X388878Y269882D02*
D03*
X395768D02*
D03*
Y256890D02*
D03*
X410532Y269882D02*
D03*
X417421D02*
D03*
Y256890D02*
D03*
X432185Y269882D02*
D03*
X439075D02*
D03*
Y256890D02*
D03*
X330807Y170276D02*
D03*
Y183268D02*
D03*
X323917D02*
D03*
X309154Y170276D02*
D03*
Y183268D02*
D03*
X302264D02*
D03*
X287500Y170276D02*
D03*
Y183268D02*
D03*
X280610D02*
D03*
D14*
X388878Y105315D02*
D03*
X410532D02*
D03*
X432185D02*
D03*
Y126969D02*
D03*
X410532D02*
D03*
X388878D02*
D03*
X367224D02*
D03*
Y105315D02*
D03*
X345571D02*
D03*
Y126969D02*
D03*
X388878Y148622D02*
D03*
X410532D02*
D03*
X432185D02*
D03*
X367224D02*
D03*
X345571D02*
D03*
X215650Y105315D02*
D03*
X237303D02*
D03*
X258957D02*
D03*
X280610D02*
D03*
X302264D02*
D03*
X323917D02*
D03*
Y126969D02*
D03*
X302264D02*
D03*
X280610D02*
D03*
X258957D02*
D03*
X237303D02*
D03*
X215650D02*
D03*
Y148622D02*
D03*
X237303D02*
D03*
X258957D02*
D03*
X280610D02*
D03*
X302264D02*
D03*
X323917D02*
D03*
X129035Y126969D02*
D03*
X172343Y105315D02*
D03*
X129035D02*
D03*
X150689D02*
D03*
Y126969D02*
D03*
X172343D02*
D03*
X107382D02*
D03*
Y105315D02*
D03*
X193996D02*
D03*
Y126969D02*
D03*
Y148622D02*
D03*
X172343D02*
D03*
X150689D02*
D03*
X129035D02*
D03*
X107382D02*
D03*
X150689Y170276D02*
D03*
X129035D02*
D03*
X107382D02*
D03*
Y191929D02*
D03*
X129035D02*
D03*
X150689D02*
D03*
X237303Y170276D02*
D03*
X215650D02*
D03*
X193996D02*
D03*
X172343D02*
D03*
Y191929D02*
D03*
X193996D02*
D03*
X215650D02*
D03*
X237303D02*
D03*
X323917D02*
D03*
X302264D02*
D03*
X280610D02*
D03*
X258957D02*
D03*
Y170276D02*
D03*
X345571D02*
D03*
Y191929D02*
D03*
X388878Y170276D02*
D03*
X367224D02*
D03*
Y191929D02*
D03*
X388878D02*
D03*
X410532D02*
D03*
X432185D02*
D03*
X410532Y170276D02*
D03*
X432185D02*
D03*
X410532Y213583D02*
D03*
X388878D02*
D03*
X367224D02*
D03*
Y235236D02*
D03*
X388878D02*
D03*
X410532D02*
D03*
X432185D02*
D03*
Y213583D02*
D03*
X280610D02*
D03*
X302264D02*
D03*
X323917D02*
D03*
X345571D02*
D03*
Y235236D02*
D03*
X323917D02*
D03*
X302264D02*
D03*
X280610D02*
D03*
X258957D02*
D03*
X237303D02*
D03*
X215650D02*
D03*
X193996D02*
D03*
Y213583D02*
D03*
X215650D02*
D03*
X237303D02*
D03*
X258957D02*
D03*
X150689Y235236D02*
D03*
X172343D02*
D03*
Y213583D02*
D03*
X150689D02*
D03*
X129035D02*
D03*
X107382D02*
D03*
X129035Y235236D02*
D03*
X107382D02*
D03*
Y256890D02*
D03*
X129035D02*
D03*
X150689D02*
D03*
X172343D02*
D03*
X193996D02*
D03*
X215650D02*
D03*
X237303D02*
D03*
X258957D02*
D03*
X280610D02*
D03*
X302264D02*
D03*
X323917D02*
D03*
X345571D02*
D03*
X367224D02*
D03*
X388878D02*
D03*
X410532D02*
D03*
X432185D02*
D03*
X323917Y170276D02*
D03*
X302264D02*
D03*
X280610D02*
D03*
M02*
