G04*
G04 #@! TF.GenerationSoftware,Altium Limited,CircuitMaker,2.3.0 (3)*
G04*
G04 Layer_Physical_Order=3*
G04 Layer_Color=553216*
%FSLAX25Y25*%
%MOIN*%
G70*
G04*
G04 #@! TF.SameCoordinates,2CB11315-EA6C-4568-8D24-B69FFBB62024*
G04*
G04*
G04 #@! TF.FilePolarity,Negative*
G04*
G01*
G75*
%ADD26C,0.04000*%
%ADD27C,0.08016*%
%ADD29C,0.05575*%
%ADD30C,0.04787*%
%ADD31C,0.05378*%
D26*
X441378Y100000D02*
G03*
X451378Y110000I0J10000D01*
G01*
Y266181D02*
G03*
X441378Y276181I-10000J0D01*
G01*
X110000D02*
G03*
X100000Y266181I0J-10000D01*
G01*
Y110000D02*
G03*
X110000Y100000I10000J0D01*
G01*
X180709D02*
X441378D01*
X110000D02*
X180709D01*
X100000Y110000D02*
Y266181D01*
X110000Y276181D02*
X441378D01*
X451378Y110000D02*
Y266181D01*
D27*
X446457Y209252D02*
D03*
Y252559D02*
D03*
Y144291D02*
D03*
Y122638D02*
D03*
D29*
X108858Y263386D02*
D03*
X110827Y122638D02*
D03*
Y144291D02*
D03*
Y165945D02*
D03*
Y187598D02*
D03*
Y209252D02*
D03*
Y230906D02*
D03*
Y252559D02*
D03*
X435630Y122638D02*
D03*
Y144291D02*
D03*
Y165945D02*
D03*
Y187598D02*
D03*
Y209252D02*
D03*
Y230906D02*
D03*
Y252559D02*
D03*
X108858Y111811D02*
D03*
Y133465D02*
D03*
Y155118D02*
D03*
Y176772D02*
D03*
Y198425D02*
D03*
Y220079D02*
D03*
Y241732D02*
D03*
D30*
X442520Y104921D02*
D03*
X143307Y117717D02*
D03*
X186614D02*
D03*
X164961D02*
D03*
X229921D02*
D03*
X251575D02*
D03*
X208268D02*
D03*
X294882D02*
D03*
X316535D02*
D03*
X273228D02*
D03*
X359842D02*
D03*
X381496D02*
D03*
X338189D02*
D03*
X424803D02*
D03*
X446457D02*
D03*
X403150D02*
D03*
X121653Y139370D02*
D03*
X186614D02*
D03*
X164961D02*
D03*
X229921D02*
D03*
X251575D02*
D03*
X208268D02*
D03*
X294882D02*
D03*
X316535D02*
D03*
X273228D02*
D03*
X359842D02*
D03*
X381496D02*
D03*
X338189D02*
D03*
X424803D02*
D03*
X446457D02*
D03*
X403150D02*
D03*
X121653Y161024D02*
D03*
X143307D02*
D03*
X186614D02*
D03*
X164961D02*
D03*
X229921D02*
D03*
X251575D02*
D03*
X208268D02*
D03*
X294882D02*
D03*
X316535D02*
D03*
X273228D02*
D03*
X359842D02*
D03*
X381496D02*
D03*
X338189D02*
D03*
X424803D02*
D03*
X446457D02*
D03*
X403150D02*
D03*
X121653Y182677D02*
D03*
X143307D02*
D03*
X186614D02*
D03*
X164961D02*
D03*
X229921D02*
D03*
X251575D02*
D03*
X208268D02*
D03*
X294882D02*
D03*
X316535D02*
D03*
X273228D02*
D03*
X359842D02*
D03*
X381496D02*
D03*
X338189D02*
D03*
X424803D02*
D03*
X446457D02*
D03*
X403150D02*
D03*
X121653Y204331D02*
D03*
X143307D02*
D03*
X186614D02*
D03*
X164961D02*
D03*
X229921D02*
D03*
X251575D02*
D03*
X208268D02*
D03*
X294882D02*
D03*
X316535D02*
D03*
X273228D02*
D03*
X359842D02*
D03*
X381496D02*
D03*
X338189D02*
D03*
X424803D02*
D03*
X446457D02*
D03*
X403150D02*
D03*
X121653Y225984D02*
D03*
X143307D02*
D03*
X186614D02*
D03*
X164961D02*
D03*
X229921D02*
D03*
X251575D02*
D03*
X208268D02*
D03*
X294882D02*
D03*
X316535D02*
D03*
X273228D02*
D03*
X359842D02*
D03*
X381496D02*
D03*
X338189D02*
D03*
X424803D02*
D03*
X446457D02*
D03*
X403150D02*
D03*
X121653Y247638D02*
D03*
X143307D02*
D03*
X186614D02*
D03*
X164961D02*
D03*
X229921D02*
D03*
X251575D02*
D03*
X208268D02*
D03*
X294882D02*
D03*
X316535D02*
D03*
X273228D02*
D03*
X359842D02*
D03*
X381496D02*
D03*
X338189D02*
D03*
X424803D02*
D03*
X446457D02*
D03*
X403150D02*
D03*
Y269291D02*
D03*
X446457D02*
D03*
X424803D02*
D03*
X338189D02*
D03*
X381496D02*
D03*
X359842D02*
D03*
X273228D02*
D03*
X316535D02*
D03*
X294882D02*
D03*
X208268D02*
D03*
X251575D02*
D03*
X229921D02*
D03*
X164961D02*
D03*
X186614D02*
D03*
X143307D02*
D03*
X121653D02*
D03*
D31*
Y117717D02*
D03*
X143307Y139370D02*
D03*
M02*
