M48
;Layer_Color=6321
;FILE_FORMAT=2:4
INCH,TZ
;TYPE=PLATED
T1F00S00C0.0079
T2F00S00C0.0138
T3F00S00C0.0157
T4F00S00C0.0217
T5F00S00C0.0402
%
T01
X12165Y10591
X14331
Y11772
Y12756
X12165
Y13937
Y14921
X14331
X16496
Y13937
Y12756
Y11772
Y10591
X18661
Y11772
Y12756
Y13937
Y14921
X20827
Y13937
Y12756
Y11772
Y10591
X22992
Y11772
Y12756
Y13937
Y14921
X25157
Y13937
Y12756
Y11772
Y10591
X27323
Y11772
Y12756
Y13937
Y14921
X29488
Y13937
Y12756
Y11772
Y10591
X31654
Y11772
Y12756
Y13937
Y14921
X33819
Y13937
Y12756
Y11772
Y10591
X35984
Y11772
Y12756
Y13937
Y14921
X38150
Y13937
Y12756
Y11772
Y10591
X40315
Y11772
Y12756
Y13937
Y14921
X42480
Y13937
Y12756
Y11772
Y10591
X44252Y10492
X44646Y10591
Y11772
Y12756
Y13937
Y14921
Y16102
Y17087
Y18268
Y19252
Y20433
Y21417
Y22598
Y23583
Y24764
Y25748
Y26929
X42480
Y25748
Y24764
Y23583
Y22598
Y21417
Y20433
Y19252
Y18268
Y17087
Y16102
X40315
Y17087
Y18268
Y19252
Y20433
Y21417
Y22598
Y23583
Y24764
Y25748
Y26929
X38150
Y25748
Y24764
Y23583
Y22598
Y21417
Y20433
Y19252
Y18268
Y17087
Y16102
X35984
Y17087
Y18268
Y19252
Y20433
Y21417
Y22598
Y23583
Y24764
Y25748
Y26929
X33819
Y25748
Y24764
Y23583
Y22598
Y21417
Y20433
Y19252
Y18268
Y17087
Y16102
X31654
Y17087
Y18268
Y19252
Y20433
Y21417
Y22598
Y23583
Y24764
Y25748
Y26929
X29488
Y25748
Y24764
Y23583
Y22598
Y21417
Y20433
Y19252
Y18268
Y17087
Y16102
X27323
Y17087
Y18268
Y19252
Y20433
Y21417
Y22598
Y23583
Y24764
Y25748
Y26929
X25157
Y25748
Y24764
Y23583
Y22598
Y21417
Y20433
Y19252
Y18268
Y17087
Y16102
X22992
Y17087
Y18268
Y19252
Y20433
Y21417
Y22598
Y23583
Y24764
Y25748
Y26929
X20827
Y25748
Y24764
Y23583
Y22598
Y21417
Y20433
Y19252
Y18268
Y17087
Y16102
X18661
Y17087
Y18268
Y19252
Y20433
Y21417
Y22598
Y23583
Y24764
Y25748
Y26929
X16496
Y25748
Y24764
Y23583
Y22598
Y21417
Y20433
Y19252
Y18268
Y17087
Y16102
X14331
Y17087
Y18268
Y19252
Y20433
Y21417
Y22598
Y23583
Y24764
Y25748
Y26929
X12165
Y25748
Y24764
Y23583
Y22598
Y21417
Y20433
Y19252
Y18268
Y17087
Y16102
T02
X12165Y11772
X14331Y13937
T03
X10886Y11181
X11083Y12264
X10886Y13346
X11083Y14429
X10886Y15512
X43563Y14429
Y12264
Y16594
Y18760
Y20925
Y23091
Y25256
X11083
X10886Y26339
Y24173
X11083Y23091
X10886Y22008
X11083Y20925
X10886Y19843
X11083Y18760
X10886Y17677
X11083Y16594
T04
X14331Y12165
X13740Y13445
T05
X44646Y12264
Y14429
Y16594
Y20925
Y23091
Y25256
M30
