G04*
G04 #@! TF.GenerationSoftware,Altium Limited,CircuitMaker,2.3.0 (3)*
G04*
G04 Layer_Physical_Order=4*
G04 Layer_Color=11436288*
%FSLAX25Y25*%
%MOIN*%
G70*
G04*
G04 #@! TF.SameCoordinates,2CB11315-EA6C-4568-8D24-B69FFBB62024*
G04*
G04*
G04 #@! TF.FilePolarity,Positive*
G04*
G01*
G75*
%ADD10C,0.01000*%
%ADD22R,0.04724X0.04724*%
%ADD23C,0.03150*%
%ADD24C,0.02362*%
%ADD25C,0.01772*%
%ADD32R,0.02756X0.01181*%
%ADD33R,0.02756X0.03937*%
%ADD34R,0.03937X0.05315*%
G36*
X444295Y275797D02*
X446115Y275043D01*
X447753Y273949D01*
X449145Y272556D01*
X450240Y270918D01*
X450994Y269098D01*
X451378Y267166D01*
Y266181D01*
Y110000D01*
Y109015D01*
X450994Y107083D01*
X450240Y105263D01*
X449145Y103625D01*
X447753Y102233D01*
X446115Y101138D01*
X444295Y100384D01*
X442363Y100000D01*
X109015D01*
X107083Y100384D01*
X105263Y101138D01*
X103625Y102233D01*
X102233Y103625D01*
X101138Y105263D01*
X100384Y107083D01*
X100000Y109015D01*
Y110000D01*
Y266181D01*
Y267166D01*
X100384Y269098D01*
X101138Y270918D01*
X102233Y272556D01*
X103625Y273949D01*
X105263Y275043D01*
X107083Y275797D01*
X109015Y276181D01*
X442363D01*
X444295Y275797D01*
D02*
G37*
%LPC*%
G36*
X446732Y270677D02*
X446181D01*
X445672Y270466D01*
X445282Y270076D01*
X445071Y269567D01*
Y269016D01*
X445282Y268506D01*
X445672Y268116D01*
X446181Y267905D01*
X446732D01*
X447242Y268116D01*
X447632Y268506D01*
X447843Y269016D01*
Y269567D01*
X447632Y270076D01*
X447242Y270466D01*
X446732Y270677D01*
D02*
G37*
G36*
X425079D02*
X424528D01*
X424018Y270466D01*
X423628Y270076D01*
X423417Y269567D01*
Y269016D01*
X423628Y268506D01*
X424018Y268116D01*
X424528Y267905D01*
X425079D01*
X425588Y268116D01*
X425978Y268506D01*
X426189Y269016D01*
Y269567D01*
X425978Y270076D01*
X425588Y270466D01*
X425079Y270677D01*
D02*
G37*
G36*
X403425D02*
X402874D01*
X402365Y270466D01*
X401975Y270076D01*
X401764Y269567D01*
Y269016D01*
X401975Y268506D01*
X402365Y268116D01*
X402874Y267905D01*
X403425D01*
X403935Y268116D01*
X404324Y268506D01*
X404535Y269016D01*
Y269567D01*
X404324Y270076D01*
X403935Y270466D01*
X403425Y270677D01*
D02*
G37*
G36*
X381772D02*
X381220D01*
X380711Y270466D01*
X380321Y270076D01*
X380110Y269567D01*
Y269016D01*
X380321Y268506D01*
X380711Y268116D01*
X381220Y267905D01*
X381772D01*
X382281Y268116D01*
X382671Y268506D01*
X382882Y269016D01*
Y269567D01*
X382671Y270076D01*
X382281Y270466D01*
X381772Y270677D01*
D02*
G37*
G36*
X360118D02*
X359567D01*
X359057Y270466D01*
X358668Y270076D01*
X358457Y269567D01*
Y269016D01*
X358668Y268506D01*
X359057Y268116D01*
X359567Y267905D01*
X360118D01*
X360628Y268116D01*
X361017Y268506D01*
X361228Y269016D01*
Y269567D01*
X361017Y270076D01*
X360628Y270466D01*
X360118Y270677D01*
D02*
G37*
G36*
X338465D02*
X337913D01*
X337404Y270466D01*
X337014Y270076D01*
X336803Y269567D01*
Y269016D01*
X337014Y268506D01*
X337404Y268116D01*
X337913Y267905D01*
X338465D01*
X338974Y268116D01*
X339364Y268506D01*
X339575Y269016D01*
Y269567D01*
X339364Y270076D01*
X338974Y270466D01*
X338465Y270677D01*
D02*
G37*
G36*
X316811D02*
X316260D01*
X315750Y270466D01*
X315361Y270076D01*
X315150Y269567D01*
Y269016D01*
X315361Y268506D01*
X315750Y268116D01*
X316260Y267905D01*
X316811D01*
X317320Y268116D01*
X317710Y268506D01*
X317921Y269016D01*
Y269567D01*
X317710Y270076D01*
X317320Y270466D01*
X316811Y270677D01*
D02*
G37*
G36*
X295158D02*
X294606D01*
X294097Y270466D01*
X293707Y270076D01*
X293496Y269567D01*
Y269016D01*
X293707Y268506D01*
X294097Y268116D01*
X294606Y267905D01*
X295158D01*
X295667Y268116D01*
X296057Y268506D01*
X296268Y269016D01*
Y269567D01*
X296057Y270076D01*
X295667Y270466D01*
X295158Y270677D01*
D02*
G37*
G36*
X273504D02*
X272953D01*
X272443Y270466D01*
X272054Y270076D01*
X271843Y269567D01*
Y269016D01*
X272054Y268506D01*
X272443Y268116D01*
X272953Y267905D01*
X273504D01*
X274013Y268116D01*
X274403Y268506D01*
X274614Y269016D01*
Y269567D01*
X274403Y270076D01*
X274013Y270466D01*
X273504Y270677D01*
D02*
G37*
G36*
X251851D02*
X251299D01*
X250790Y270466D01*
X250400Y270076D01*
X250189Y269567D01*
Y269016D01*
X250400Y268506D01*
X250790Y268116D01*
X251299Y267905D01*
X251851D01*
X252360Y268116D01*
X252750Y268506D01*
X252961Y269016D01*
Y269567D01*
X252750Y270076D01*
X252360Y270466D01*
X251851Y270677D01*
D02*
G37*
G36*
X230197D02*
X229646D01*
X229136Y270466D01*
X228746Y270076D01*
X228535Y269567D01*
Y269016D01*
X228746Y268506D01*
X229136Y268116D01*
X229646Y267905D01*
X230197D01*
X230706Y268116D01*
X231096Y268506D01*
X231307Y269016D01*
Y269567D01*
X231096Y270076D01*
X230706Y270466D01*
X230197Y270677D01*
D02*
G37*
G36*
X208543D02*
X207992D01*
X207483Y270466D01*
X207093Y270076D01*
X206882Y269567D01*
Y269016D01*
X207093Y268506D01*
X207483Y268116D01*
X207992Y267905D01*
X208543D01*
X209053Y268116D01*
X209442Y268506D01*
X209653Y269016D01*
Y269567D01*
X209442Y270076D01*
X209053Y270466D01*
X208543Y270677D01*
D02*
G37*
G36*
X186890D02*
X186338D01*
X185829Y270466D01*
X185439Y270076D01*
X185228Y269567D01*
Y269016D01*
X185439Y268506D01*
X185829Y268116D01*
X186338Y267905D01*
X186890D01*
X187399Y268116D01*
X187789Y268506D01*
X188000Y269016D01*
Y269567D01*
X187789Y270076D01*
X187399Y270466D01*
X186890Y270677D01*
D02*
G37*
G36*
X165236D02*
X164685D01*
X164176Y270466D01*
X163786Y270076D01*
X163575Y269567D01*
Y269016D01*
X163786Y268506D01*
X164176Y268116D01*
X164685Y267905D01*
X165236D01*
X165746Y268116D01*
X166136Y268506D01*
X166346Y269016D01*
Y269567D01*
X166136Y270076D01*
X165746Y270466D01*
X165236Y270677D01*
D02*
G37*
G36*
X143583D02*
X143031D01*
X142522Y270466D01*
X142132Y270076D01*
X141921Y269567D01*
Y269016D01*
X142132Y268506D01*
X142522Y268116D01*
X143031Y267905D01*
X143583D01*
X144092Y268116D01*
X144482Y268506D01*
X144693Y269016D01*
Y269567D01*
X144482Y270076D01*
X144092Y270466D01*
X143583Y270677D01*
D02*
G37*
G36*
X121929D02*
X121378D01*
X120869Y270466D01*
X120479Y270076D01*
X120268Y269567D01*
Y269016D01*
X120479Y268506D01*
X120869Y268116D01*
X121378Y267905D01*
X121929D01*
X122439Y268116D01*
X122828Y268506D01*
X123039Y269016D01*
Y269567D01*
X122828Y270076D01*
X122439Y270466D01*
X121929Y270677D01*
D02*
G37*
G36*
X446732Y258866D02*
X446181D01*
X445672Y258655D01*
X445282Y258265D01*
X445071Y257756D01*
Y257205D01*
X445282Y256695D01*
X445672Y256306D01*
X446181Y256095D01*
X446732D01*
X447242Y256306D01*
X447632Y256695D01*
X447843Y257205D01*
Y257756D01*
X447632Y258265D01*
X447242Y258655D01*
X446732Y258866D01*
D02*
G37*
G36*
X425079D02*
X424528D01*
X424018Y258655D01*
X423628Y258265D01*
X423417Y257756D01*
Y257205D01*
X423628Y256695D01*
X424018Y256306D01*
X424528Y256095D01*
X425079D01*
X425588Y256306D01*
X425978Y256695D01*
X426189Y257205D01*
Y257756D01*
X425978Y258265D01*
X425588Y258655D01*
X425079Y258866D01*
D02*
G37*
G36*
X403425D02*
X402874D01*
X402365Y258655D01*
X401975Y258265D01*
X401764Y257756D01*
Y257205D01*
X401975Y256695D01*
X402365Y256306D01*
X402874Y256095D01*
X403425D01*
X403935Y256306D01*
X404324Y256695D01*
X404535Y257205D01*
Y257756D01*
X404324Y258265D01*
X403935Y258655D01*
X403425Y258866D01*
D02*
G37*
G36*
X381772D02*
X381220D01*
X380711Y258655D01*
X380321Y258265D01*
X380110Y257756D01*
Y257205D01*
X380321Y256695D01*
X380711Y256306D01*
X381220Y256095D01*
X381772D01*
X382281Y256306D01*
X382671Y256695D01*
X382882Y257205D01*
Y257756D01*
X382671Y258265D01*
X382281Y258655D01*
X381772Y258866D01*
D02*
G37*
G36*
X360118D02*
X359567D01*
X359057Y258655D01*
X358668Y258265D01*
X358457Y257756D01*
Y257205D01*
X358668Y256695D01*
X359057Y256306D01*
X359567Y256095D01*
X360118D01*
X360628Y256306D01*
X361017Y256695D01*
X361228Y257205D01*
Y257756D01*
X361017Y258265D01*
X360628Y258655D01*
X360118Y258866D01*
D02*
G37*
G36*
X338465D02*
X337913D01*
X337404Y258655D01*
X337014Y258265D01*
X336803Y257756D01*
Y257205D01*
X337014Y256695D01*
X337404Y256306D01*
X337913Y256095D01*
X338465D01*
X338974Y256306D01*
X339364Y256695D01*
X339575Y257205D01*
Y257756D01*
X339364Y258265D01*
X338974Y258655D01*
X338465Y258866D01*
D02*
G37*
G36*
X316811D02*
X316260D01*
X315750Y258655D01*
X315361Y258265D01*
X315150Y257756D01*
Y257205D01*
X315361Y256695D01*
X315750Y256306D01*
X316260Y256095D01*
X316811D01*
X317320Y256306D01*
X317710Y256695D01*
X317921Y257205D01*
Y257756D01*
X317710Y258265D01*
X317320Y258655D01*
X316811Y258866D01*
D02*
G37*
G36*
X295158D02*
X294606D01*
X294097Y258655D01*
X293707Y258265D01*
X293496Y257756D01*
Y257205D01*
X293707Y256695D01*
X294097Y256306D01*
X294606Y256095D01*
X295158D01*
X295667Y256306D01*
X296057Y256695D01*
X296268Y257205D01*
Y257756D01*
X296057Y258265D01*
X295667Y258655D01*
X295158Y258866D01*
D02*
G37*
G36*
X273504D02*
X272953D01*
X272443Y258655D01*
X272054Y258265D01*
X271843Y257756D01*
Y257205D01*
X272054Y256695D01*
X272443Y256306D01*
X272953Y256095D01*
X273504D01*
X274013Y256306D01*
X274403Y256695D01*
X274614Y257205D01*
Y257756D01*
X274403Y258265D01*
X274013Y258655D01*
X273504Y258866D01*
D02*
G37*
G36*
X251851D02*
X251299D01*
X250790Y258655D01*
X250400Y258265D01*
X250189Y257756D01*
Y257205D01*
X250400Y256695D01*
X250790Y256306D01*
X251299Y256095D01*
X251851D01*
X252360Y256306D01*
X252750Y256695D01*
X252961Y257205D01*
Y257756D01*
X252750Y258265D01*
X252360Y258655D01*
X251851Y258866D01*
D02*
G37*
G36*
X230197D02*
X229646D01*
X229136Y258655D01*
X228746Y258265D01*
X228535Y257756D01*
Y257205D01*
X228746Y256695D01*
X229136Y256306D01*
X229646Y256095D01*
X230197D01*
X230706Y256306D01*
X231096Y256695D01*
X231307Y257205D01*
Y257756D01*
X231096Y258265D01*
X230706Y258655D01*
X230197Y258866D01*
D02*
G37*
G36*
X208543D02*
X207992D01*
X207483Y258655D01*
X207093Y258265D01*
X206882Y257756D01*
Y257205D01*
X207093Y256695D01*
X207483Y256306D01*
X207992Y256095D01*
X208543D01*
X209053Y256306D01*
X209442Y256695D01*
X209653Y257205D01*
Y257756D01*
X209442Y258265D01*
X209053Y258655D01*
X208543Y258866D01*
D02*
G37*
G36*
X186890D02*
X186338D01*
X185829Y258655D01*
X185439Y258265D01*
X185228Y257756D01*
Y257205D01*
X185439Y256695D01*
X185829Y256306D01*
X186338Y256095D01*
X186890D01*
X187399Y256306D01*
X187789Y256695D01*
X188000Y257205D01*
Y257756D01*
X187789Y258265D01*
X187399Y258655D01*
X186890Y258866D01*
D02*
G37*
G36*
X165236D02*
X164685D01*
X164176Y258655D01*
X163786Y258265D01*
X163575Y257756D01*
Y257205D01*
X163786Y256695D01*
X164176Y256306D01*
X164685Y256095D01*
X165236D01*
X165746Y256306D01*
X166136Y256695D01*
X166346Y257205D01*
Y257756D01*
X166136Y258265D01*
X165746Y258655D01*
X165236Y258866D01*
D02*
G37*
G36*
X143583D02*
X143031D01*
X142522Y258655D01*
X142132Y258265D01*
X141921Y257756D01*
Y257205D01*
X142132Y256695D01*
X142522Y256306D01*
X143031Y256095D01*
X143583D01*
X144092Y256306D01*
X144482Y256695D01*
X144693Y257205D01*
Y257756D01*
X144482Y258265D01*
X144092Y258655D01*
X143583Y258866D01*
D02*
G37*
G36*
X121929D02*
X121378D01*
X120869Y258655D01*
X120479Y258265D01*
X120268Y257756D01*
Y257205D01*
X120479Y256695D01*
X120869Y256306D01*
X121378Y256095D01*
X121929D01*
X122439Y256306D01*
X122828Y256695D01*
X123039Y257205D01*
Y257756D01*
X122828Y258265D01*
X122439Y258655D01*
X121929Y258866D01*
D02*
G37*
G36*
X435964Y254240D02*
X435295D01*
X434678Y253984D01*
X434272Y253579D01*
X112185D01*
X111779Y253984D01*
X111161Y254240D01*
X110492D01*
X109874Y253984D01*
X109402Y253511D01*
X109146Y252893D01*
Y252225D01*
X109402Y251607D01*
X109874Y251134D01*
X110492Y250878D01*
X111161D01*
X111779Y251134D01*
X112185Y251539D01*
X434272D01*
X434678Y251134D01*
X435295Y250878D01*
X435964D01*
X436582Y251134D01*
X437055Y251607D01*
X437311Y252225D01*
Y252893D01*
X437055Y253511D01*
X436582Y253984D01*
X435964Y254240D01*
D02*
G37*
G36*
X109193Y265067D02*
X108524D01*
X107906Y264811D01*
X107433Y264338D01*
X107177Y263720D01*
Y263051D01*
X107433Y262434D01*
X107906Y261961D01*
X108524Y261705D01*
X109193D01*
X109810Y261961D01*
X110216Y262366D01*
X435208D01*
X443595Y253979D01*
Y249697D01*
X449319D01*
Y255421D01*
X445036D01*
X436351Y264107D01*
X436020Y264328D01*
X435630Y264405D01*
X110216D01*
X109810Y264811D01*
X109193Y265067D01*
D02*
G37*
G36*
X446732Y249024D02*
X446181D01*
X445672Y248813D01*
X445282Y248423D01*
X445071Y247914D01*
Y247362D01*
X445282Y246853D01*
X445672Y246463D01*
X446181Y246252D01*
X446732D01*
X447242Y246463D01*
X447632Y246853D01*
X447843Y247362D01*
Y247914D01*
X447632Y248423D01*
X447242Y248813D01*
X446732Y249024D01*
D02*
G37*
G36*
X425079D02*
X424528D01*
X424018Y248813D01*
X423628Y248423D01*
X423417Y247914D01*
Y247362D01*
X423628Y246853D01*
X424018Y246463D01*
X424528Y246252D01*
X425079D01*
X425588Y246463D01*
X425978Y246853D01*
X426189Y247362D01*
Y247914D01*
X425978Y248423D01*
X425588Y248813D01*
X425079Y249024D01*
D02*
G37*
G36*
X403425D02*
X402874D01*
X402365Y248813D01*
X401975Y248423D01*
X401764Y247914D01*
Y247362D01*
X401975Y246853D01*
X402365Y246463D01*
X402874Y246252D01*
X403425D01*
X403935Y246463D01*
X404324Y246853D01*
X404535Y247362D01*
Y247914D01*
X404324Y248423D01*
X403935Y248813D01*
X403425Y249024D01*
D02*
G37*
G36*
X381772D02*
X381220D01*
X380711Y248813D01*
X380321Y248423D01*
X380110Y247914D01*
Y247362D01*
X380321Y246853D01*
X380711Y246463D01*
X381220Y246252D01*
X381772D01*
X382281Y246463D01*
X382671Y246853D01*
X382882Y247362D01*
Y247914D01*
X382671Y248423D01*
X382281Y248813D01*
X381772Y249024D01*
D02*
G37*
G36*
X360118D02*
X359567D01*
X359057Y248813D01*
X358668Y248423D01*
X358457Y247914D01*
Y247362D01*
X358668Y246853D01*
X359057Y246463D01*
X359567Y246252D01*
X360118D01*
X360628Y246463D01*
X361017Y246853D01*
X361228Y247362D01*
Y247914D01*
X361017Y248423D01*
X360628Y248813D01*
X360118Y249024D01*
D02*
G37*
G36*
X338465D02*
X337913D01*
X337404Y248813D01*
X337014Y248423D01*
X336803Y247914D01*
Y247362D01*
X337014Y246853D01*
X337404Y246463D01*
X337913Y246252D01*
X338465D01*
X338974Y246463D01*
X339364Y246853D01*
X339575Y247362D01*
Y247914D01*
X339364Y248423D01*
X338974Y248813D01*
X338465Y249024D01*
D02*
G37*
G36*
X316811D02*
X316260D01*
X315750Y248813D01*
X315361Y248423D01*
X315150Y247914D01*
Y247362D01*
X315361Y246853D01*
X315750Y246463D01*
X316260Y246252D01*
X316811D01*
X317320Y246463D01*
X317710Y246853D01*
X317921Y247362D01*
Y247914D01*
X317710Y248423D01*
X317320Y248813D01*
X316811Y249024D01*
D02*
G37*
G36*
X295158D02*
X294606D01*
X294097Y248813D01*
X293707Y248423D01*
X293496Y247914D01*
Y247362D01*
X293707Y246853D01*
X294097Y246463D01*
X294606Y246252D01*
X295158D01*
X295667Y246463D01*
X296057Y246853D01*
X296268Y247362D01*
Y247914D01*
X296057Y248423D01*
X295667Y248813D01*
X295158Y249024D01*
D02*
G37*
G36*
X273504D02*
X272953D01*
X272443Y248813D01*
X272054Y248423D01*
X271843Y247914D01*
Y247362D01*
X272054Y246853D01*
X272443Y246463D01*
X272953Y246252D01*
X273504D01*
X274013Y246463D01*
X274403Y246853D01*
X274614Y247362D01*
Y247914D01*
X274403Y248423D01*
X274013Y248813D01*
X273504Y249024D01*
D02*
G37*
G36*
X251851D02*
X251299D01*
X250790Y248813D01*
X250400Y248423D01*
X250189Y247914D01*
Y247362D01*
X250400Y246853D01*
X250790Y246463D01*
X251299Y246252D01*
X251851D01*
X252360Y246463D01*
X252750Y246853D01*
X252961Y247362D01*
Y247914D01*
X252750Y248423D01*
X252360Y248813D01*
X251851Y249024D01*
D02*
G37*
G36*
X230197D02*
X229646D01*
X229136Y248813D01*
X228746Y248423D01*
X228535Y247914D01*
Y247362D01*
X228746Y246853D01*
X229136Y246463D01*
X229646Y246252D01*
X230197D01*
X230706Y246463D01*
X231096Y246853D01*
X231307Y247362D01*
Y247914D01*
X231096Y248423D01*
X230706Y248813D01*
X230197Y249024D01*
D02*
G37*
G36*
X208543D02*
X207992D01*
X207483Y248813D01*
X207093Y248423D01*
X206882Y247914D01*
Y247362D01*
X207093Y246853D01*
X207483Y246463D01*
X207992Y246252D01*
X208543D01*
X209053Y246463D01*
X209442Y246853D01*
X209653Y247362D01*
Y247914D01*
X209442Y248423D01*
X209053Y248813D01*
X208543Y249024D01*
D02*
G37*
G36*
X186890D02*
X186338D01*
X185829Y248813D01*
X185439Y248423D01*
X185228Y247914D01*
Y247362D01*
X185439Y246853D01*
X185829Y246463D01*
X186338Y246252D01*
X186890D01*
X187399Y246463D01*
X187789Y246853D01*
X188000Y247362D01*
Y247914D01*
X187789Y248423D01*
X187399Y248813D01*
X186890Y249024D01*
D02*
G37*
G36*
X165236D02*
X164685D01*
X164176Y248813D01*
X163786Y248423D01*
X163575Y247914D01*
Y247362D01*
X163786Y246853D01*
X164176Y246463D01*
X164685Y246252D01*
X165236D01*
X165746Y246463D01*
X166136Y246853D01*
X166346Y247362D01*
Y247914D01*
X166136Y248423D01*
X165746Y248813D01*
X165236Y249024D01*
D02*
G37*
G36*
X143583D02*
X143031D01*
X142522Y248813D01*
X142132Y248423D01*
X141921Y247914D01*
Y247362D01*
X142132Y246853D01*
X142522Y246463D01*
X143031Y246252D01*
X143583D01*
X144092Y246463D01*
X144482Y246853D01*
X144693Y247362D01*
Y247914D01*
X144482Y248423D01*
X144092Y248813D01*
X143583Y249024D01*
D02*
G37*
G36*
X121929D02*
X121378D01*
X120869Y248813D01*
X120479Y248423D01*
X120268Y247914D01*
Y247362D01*
X120479Y246853D01*
X120869Y246463D01*
X121378Y246252D01*
X121929D01*
X122439Y246463D01*
X122828Y246853D01*
X123039Y247362D01*
Y247914D01*
X122828Y248423D01*
X122439Y248813D01*
X121929Y249024D01*
D02*
G37*
G36*
X109193Y243413D02*
X108524D01*
X107906Y243157D01*
X107433Y242685D01*
X107177Y242067D01*
Y241398D01*
X107433Y240780D01*
X107906Y240307D01*
X108524Y240051D01*
X109193D01*
X109810Y240307D01*
X110283Y240780D01*
X110539Y241398D01*
Y242067D01*
X110283Y242685D01*
X109810Y243157D01*
X109193Y243413D01*
D02*
G37*
G36*
X446732Y237213D02*
X446181D01*
X445672Y237002D01*
X445282Y236612D01*
X445071Y236102D01*
Y235551D01*
X445282Y235042D01*
X445672Y234652D01*
X446181Y234441D01*
X446732D01*
X447242Y234652D01*
X447632Y235042D01*
X447843Y235551D01*
Y236102D01*
X447632Y236612D01*
X447242Y237002D01*
X446732Y237213D01*
D02*
G37*
G36*
X425079D02*
X424528D01*
X424018Y237002D01*
X423628Y236612D01*
X423417Y236102D01*
Y235551D01*
X423628Y235042D01*
X424018Y234652D01*
X424528Y234441D01*
X425079D01*
X425588Y234652D01*
X425978Y235042D01*
X426189Y235551D01*
Y236102D01*
X425978Y236612D01*
X425588Y237002D01*
X425079Y237213D01*
D02*
G37*
G36*
X403425D02*
X402874D01*
X402365Y237002D01*
X401975Y236612D01*
X401764Y236102D01*
Y235551D01*
X401975Y235042D01*
X402365Y234652D01*
X402874Y234441D01*
X403425D01*
X403935Y234652D01*
X404324Y235042D01*
X404535Y235551D01*
Y236102D01*
X404324Y236612D01*
X403935Y237002D01*
X403425Y237213D01*
D02*
G37*
G36*
X381772D02*
X381220D01*
X380711Y237002D01*
X380321Y236612D01*
X380110Y236102D01*
Y235551D01*
X380321Y235042D01*
X380711Y234652D01*
X381220Y234441D01*
X381772D01*
X382281Y234652D01*
X382671Y235042D01*
X382882Y235551D01*
Y236102D01*
X382671Y236612D01*
X382281Y237002D01*
X381772Y237213D01*
D02*
G37*
G36*
X360118D02*
X359567D01*
X359057Y237002D01*
X358668Y236612D01*
X358457Y236102D01*
Y235551D01*
X358668Y235042D01*
X359057Y234652D01*
X359567Y234441D01*
X360118D01*
X360628Y234652D01*
X361017Y235042D01*
X361228Y235551D01*
Y236102D01*
X361017Y236612D01*
X360628Y237002D01*
X360118Y237213D01*
D02*
G37*
G36*
X338465D02*
X337913D01*
X337404Y237002D01*
X337014Y236612D01*
X336803Y236102D01*
Y235551D01*
X337014Y235042D01*
X337404Y234652D01*
X337913Y234441D01*
X338465D01*
X338974Y234652D01*
X339364Y235042D01*
X339575Y235551D01*
Y236102D01*
X339364Y236612D01*
X338974Y237002D01*
X338465Y237213D01*
D02*
G37*
G36*
X316811D02*
X316260D01*
X315750Y237002D01*
X315361Y236612D01*
X315150Y236102D01*
Y235551D01*
X315361Y235042D01*
X315750Y234652D01*
X316260Y234441D01*
X316811D01*
X317320Y234652D01*
X317710Y235042D01*
X317921Y235551D01*
Y236102D01*
X317710Y236612D01*
X317320Y237002D01*
X316811Y237213D01*
D02*
G37*
G36*
X295158D02*
X294606D01*
X294097Y237002D01*
X293707Y236612D01*
X293496Y236102D01*
Y235551D01*
X293707Y235042D01*
X294097Y234652D01*
X294606Y234441D01*
X295158D01*
X295667Y234652D01*
X296057Y235042D01*
X296268Y235551D01*
Y236102D01*
X296057Y236612D01*
X295667Y237002D01*
X295158Y237213D01*
D02*
G37*
G36*
X273504D02*
X272953D01*
X272443Y237002D01*
X272054Y236612D01*
X271843Y236102D01*
Y235551D01*
X272054Y235042D01*
X272443Y234652D01*
X272953Y234441D01*
X273504D01*
X274013Y234652D01*
X274403Y235042D01*
X274614Y235551D01*
Y236102D01*
X274403Y236612D01*
X274013Y237002D01*
X273504Y237213D01*
D02*
G37*
G36*
X251851D02*
X251299D01*
X250790Y237002D01*
X250400Y236612D01*
X250189Y236102D01*
Y235551D01*
X250400Y235042D01*
X250790Y234652D01*
X251299Y234441D01*
X251851D01*
X252360Y234652D01*
X252750Y235042D01*
X252961Y235551D01*
Y236102D01*
X252750Y236612D01*
X252360Y237002D01*
X251851Y237213D01*
D02*
G37*
G36*
X230197D02*
X229646D01*
X229136Y237002D01*
X228746Y236612D01*
X228535Y236102D01*
Y235551D01*
X228746Y235042D01*
X229136Y234652D01*
X229646Y234441D01*
X230197D01*
X230706Y234652D01*
X231096Y235042D01*
X231307Y235551D01*
Y236102D01*
X231096Y236612D01*
X230706Y237002D01*
X230197Y237213D01*
D02*
G37*
G36*
X208543D02*
X207992D01*
X207483Y237002D01*
X207093Y236612D01*
X206882Y236102D01*
Y235551D01*
X207093Y235042D01*
X207483Y234652D01*
X207992Y234441D01*
X208543D01*
X209053Y234652D01*
X209442Y235042D01*
X209653Y235551D01*
Y236102D01*
X209442Y236612D01*
X209053Y237002D01*
X208543Y237213D01*
D02*
G37*
G36*
X186890D02*
X186338D01*
X185829Y237002D01*
X185439Y236612D01*
X185228Y236102D01*
Y235551D01*
X185439Y235042D01*
X185829Y234652D01*
X186338Y234441D01*
X186890D01*
X187399Y234652D01*
X187789Y235042D01*
X188000Y235551D01*
Y236102D01*
X187789Y236612D01*
X187399Y237002D01*
X186890Y237213D01*
D02*
G37*
G36*
X165236D02*
X164685D01*
X164176Y237002D01*
X163786Y236612D01*
X163575Y236102D01*
Y235551D01*
X163786Y235042D01*
X164176Y234652D01*
X164685Y234441D01*
X165236D01*
X165746Y234652D01*
X166136Y235042D01*
X166346Y235551D01*
Y236102D01*
X166136Y236612D01*
X165746Y237002D01*
X165236Y237213D01*
D02*
G37*
G36*
X143583D02*
X143031D01*
X142522Y237002D01*
X142132Y236612D01*
X141921Y236102D01*
Y235551D01*
X142132Y235042D01*
X142522Y234652D01*
X143031Y234441D01*
X143583D01*
X144092Y234652D01*
X144482Y235042D01*
X144693Y235551D01*
Y236102D01*
X144482Y236612D01*
X144092Y237002D01*
X143583Y237213D01*
D02*
G37*
G36*
X121929D02*
X121378D01*
X120869Y237002D01*
X120479Y236612D01*
X120268Y236102D01*
Y235551D01*
X120479Y235042D01*
X120869Y234652D01*
X121378Y234441D01*
X121929D01*
X122439Y234652D01*
X122828Y235042D01*
X123039Y235551D01*
Y236102D01*
X122828Y236612D01*
X122439Y237002D01*
X121929Y237213D01*
D02*
G37*
G36*
X435964Y232587D02*
X435295D01*
X434678Y232331D01*
X434272Y231925D01*
X112185D01*
X111779Y232331D01*
X111161Y232587D01*
X110492D01*
X109874Y232331D01*
X109402Y231858D01*
X109146Y231240D01*
Y230571D01*
X109402Y229953D01*
X109874Y229480D01*
X110492Y229224D01*
X111161D01*
X111779Y229480D01*
X112185Y229886D01*
X434272D01*
X434678Y229480D01*
X435295Y229224D01*
X435964D01*
X436582Y229480D01*
X437055Y229953D01*
X437311Y230571D01*
Y231240D01*
X437055Y231858D01*
X436582Y232331D01*
X435964Y232587D01*
D02*
G37*
G36*
X449319Y233768D02*
X443595D01*
Y228043D01*
X449319D01*
Y233768D01*
D02*
G37*
G36*
X446732Y227370D02*
X446181D01*
X445672Y227159D01*
X445282Y226769D01*
X445071Y226260D01*
Y225709D01*
X445282Y225199D01*
X445672Y224809D01*
X446181Y224598D01*
X446732D01*
X447242Y224809D01*
X447632Y225199D01*
X447843Y225709D01*
Y226260D01*
X447632Y226769D01*
X447242Y227159D01*
X446732Y227370D01*
D02*
G37*
G36*
X425079D02*
X424528D01*
X424018Y227159D01*
X423628Y226769D01*
X423417Y226260D01*
Y225709D01*
X423628Y225199D01*
X424018Y224809D01*
X424528Y224598D01*
X425079D01*
X425588Y224809D01*
X425978Y225199D01*
X426189Y225709D01*
Y226260D01*
X425978Y226769D01*
X425588Y227159D01*
X425079Y227370D01*
D02*
G37*
G36*
X403425D02*
X402874D01*
X402365Y227159D01*
X401975Y226769D01*
X401764Y226260D01*
Y225709D01*
X401975Y225199D01*
X402365Y224809D01*
X402874Y224598D01*
X403425D01*
X403935Y224809D01*
X404324Y225199D01*
X404535Y225709D01*
Y226260D01*
X404324Y226769D01*
X403935Y227159D01*
X403425Y227370D01*
D02*
G37*
G36*
X381772D02*
X381220D01*
X380711Y227159D01*
X380321Y226769D01*
X380110Y226260D01*
Y225709D01*
X380321Y225199D01*
X380711Y224809D01*
X381220Y224598D01*
X381772D01*
X382281Y224809D01*
X382671Y225199D01*
X382882Y225709D01*
Y226260D01*
X382671Y226769D01*
X382281Y227159D01*
X381772Y227370D01*
D02*
G37*
G36*
X360118D02*
X359567D01*
X359057Y227159D01*
X358668Y226769D01*
X358457Y226260D01*
Y225709D01*
X358668Y225199D01*
X359057Y224809D01*
X359567Y224598D01*
X360118D01*
X360628Y224809D01*
X361017Y225199D01*
X361228Y225709D01*
Y226260D01*
X361017Y226769D01*
X360628Y227159D01*
X360118Y227370D01*
D02*
G37*
G36*
X338465D02*
X337913D01*
X337404Y227159D01*
X337014Y226769D01*
X336803Y226260D01*
Y225709D01*
X337014Y225199D01*
X337404Y224809D01*
X337913Y224598D01*
X338465D01*
X338974Y224809D01*
X339364Y225199D01*
X339575Y225709D01*
Y226260D01*
X339364Y226769D01*
X338974Y227159D01*
X338465Y227370D01*
D02*
G37*
G36*
X316811D02*
X316260D01*
X315750Y227159D01*
X315361Y226769D01*
X315150Y226260D01*
Y225709D01*
X315361Y225199D01*
X315750Y224809D01*
X316260Y224598D01*
X316811D01*
X317320Y224809D01*
X317710Y225199D01*
X317921Y225709D01*
Y226260D01*
X317710Y226769D01*
X317320Y227159D01*
X316811Y227370D01*
D02*
G37*
G36*
X295158D02*
X294606D01*
X294097Y227159D01*
X293707Y226769D01*
X293496Y226260D01*
Y225709D01*
X293707Y225199D01*
X294097Y224809D01*
X294606Y224598D01*
X295158D01*
X295667Y224809D01*
X296057Y225199D01*
X296268Y225709D01*
Y226260D01*
X296057Y226769D01*
X295667Y227159D01*
X295158Y227370D01*
D02*
G37*
G36*
X273504D02*
X272953D01*
X272443Y227159D01*
X272054Y226769D01*
X271843Y226260D01*
Y225709D01*
X272054Y225199D01*
X272443Y224809D01*
X272953Y224598D01*
X273504D01*
X274013Y224809D01*
X274403Y225199D01*
X274614Y225709D01*
Y226260D01*
X274403Y226769D01*
X274013Y227159D01*
X273504Y227370D01*
D02*
G37*
G36*
X251851D02*
X251299D01*
X250790Y227159D01*
X250400Y226769D01*
X250189Y226260D01*
Y225709D01*
X250400Y225199D01*
X250790Y224809D01*
X251299Y224598D01*
X251851D01*
X252360Y224809D01*
X252750Y225199D01*
X252961Y225709D01*
Y226260D01*
X252750Y226769D01*
X252360Y227159D01*
X251851Y227370D01*
D02*
G37*
G36*
X230197D02*
X229646D01*
X229136Y227159D01*
X228746Y226769D01*
X228535Y226260D01*
Y225709D01*
X228746Y225199D01*
X229136Y224809D01*
X229646Y224598D01*
X230197D01*
X230706Y224809D01*
X231096Y225199D01*
X231307Y225709D01*
Y226260D01*
X231096Y226769D01*
X230706Y227159D01*
X230197Y227370D01*
D02*
G37*
G36*
X208543D02*
X207992D01*
X207483Y227159D01*
X207093Y226769D01*
X206882Y226260D01*
Y225709D01*
X207093Y225199D01*
X207483Y224809D01*
X207992Y224598D01*
X208543D01*
X209053Y224809D01*
X209442Y225199D01*
X209653Y225709D01*
Y226260D01*
X209442Y226769D01*
X209053Y227159D01*
X208543Y227370D01*
D02*
G37*
G36*
X186890D02*
X186338D01*
X185829Y227159D01*
X185439Y226769D01*
X185228Y226260D01*
Y225709D01*
X185439Y225199D01*
X185829Y224809D01*
X186338Y224598D01*
X186890D01*
X187399Y224809D01*
X187789Y225199D01*
X188000Y225709D01*
Y226260D01*
X187789Y226769D01*
X187399Y227159D01*
X186890Y227370D01*
D02*
G37*
G36*
X165236D02*
X164685D01*
X164176Y227159D01*
X163786Y226769D01*
X163575Y226260D01*
Y225709D01*
X163786Y225199D01*
X164176Y224809D01*
X164685Y224598D01*
X165236D01*
X165746Y224809D01*
X166136Y225199D01*
X166346Y225709D01*
Y226260D01*
X166136Y226769D01*
X165746Y227159D01*
X165236Y227370D01*
D02*
G37*
G36*
X143583D02*
X143031D01*
X142522Y227159D01*
X142132Y226769D01*
X141921Y226260D01*
Y225709D01*
X142132Y225199D01*
X142522Y224809D01*
X143031Y224598D01*
X143583D01*
X144092Y224809D01*
X144482Y225199D01*
X144693Y225709D01*
Y226260D01*
X144482Y226769D01*
X144092Y227159D01*
X143583Y227370D01*
D02*
G37*
G36*
X121929D02*
X121378D01*
X120869Y227159D01*
X120479Y226769D01*
X120268Y226260D01*
Y225709D01*
X120479Y225199D01*
X120869Y224809D01*
X121378Y224598D01*
X121929D01*
X122439Y224809D01*
X122828Y225199D01*
X123039Y225709D01*
Y226260D01*
X122828Y226769D01*
X122439Y227159D01*
X121929Y227370D01*
D02*
G37*
G36*
X109193Y221760D02*
X108524D01*
X107906Y221504D01*
X107433Y221031D01*
X107177Y220413D01*
Y219744D01*
X107433Y219127D01*
X107906Y218654D01*
X108524Y218398D01*
X109193D01*
X109810Y218654D01*
X110283Y219127D01*
X110539Y219744D01*
Y220413D01*
X110283Y221031D01*
X109810Y221504D01*
X109193Y221760D01*
D02*
G37*
G36*
X446732Y215559D02*
X446181D01*
X445672Y215348D01*
X445282Y214958D01*
X445071Y214449D01*
Y213898D01*
X445282Y213388D01*
X445672Y212998D01*
X446181Y212787D01*
X446732D01*
X447242Y212998D01*
X447632Y213388D01*
X447843Y213898D01*
Y214449D01*
X447632Y214958D01*
X447242Y215348D01*
X446732Y215559D01*
D02*
G37*
G36*
X425079D02*
X424528D01*
X424018Y215348D01*
X423628Y214958D01*
X423417Y214449D01*
Y213898D01*
X423628Y213388D01*
X424018Y212998D01*
X424528Y212787D01*
X425079D01*
X425588Y212998D01*
X425978Y213388D01*
X426189Y213898D01*
Y214449D01*
X425978Y214958D01*
X425588Y215348D01*
X425079Y215559D01*
D02*
G37*
G36*
X403425D02*
X402874D01*
X402365Y215348D01*
X401975Y214958D01*
X401764Y214449D01*
Y213898D01*
X401975Y213388D01*
X402365Y212998D01*
X402874Y212787D01*
X403425D01*
X403935Y212998D01*
X404324Y213388D01*
X404535Y213898D01*
Y214449D01*
X404324Y214958D01*
X403935Y215348D01*
X403425Y215559D01*
D02*
G37*
G36*
X381772D02*
X381220D01*
X380711Y215348D01*
X380321Y214958D01*
X380110Y214449D01*
Y213898D01*
X380321Y213388D01*
X380711Y212998D01*
X381220Y212787D01*
X381772D01*
X382281Y212998D01*
X382671Y213388D01*
X382882Y213898D01*
Y214449D01*
X382671Y214958D01*
X382281Y215348D01*
X381772Y215559D01*
D02*
G37*
G36*
X360118D02*
X359567D01*
X359057Y215348D01*
X358668Y214958D01*
X358457Y214449D01*
Y213898D01*
X358668Y213388D01*
X359057Y212998D01*
X359567Y212787D01*
X360118D01*
X360628Y212998D01*
X361017Y213388D01*
X361228Y213898D01*
Y214449D01*
X361017Y214958D01*
X360628Y215348D01*
X360118Y215559D01*
D02*
G37*
G36*
X338465D02*
X337913D01*
X337404Y215348D01*
X337014Y214958D01*
X336803Y214449D01*
Y213898D01*
X337014Y213388D01*
X337404Y212998D01*
X337913Y212787D01*
X338465D01*
X338974Y212998D01*
X339364Y213388D01*
X339575Y213898D01*
Y214449D01*
X339364Y214958D01*
X338974Y215348D01*
X338465Y215559D01*
D02*
G37*
G36*
X316811D02*
X316260D01*
X315750Y215348D01*
X315361Y214958D01*
X315150Y214449D01*
Y213898D01*
X315361Y213388D01*
X315750Y212998D01*
X316260Y212787D01*
X316811D01*
X317320Y212998D01*
X317710Y213388D01*
X317921Y213898D01*
Y214449D01*
X317710Y214958D01*
X317320Y215348D01*
X316811Y215559D01*
D02*
G37*
G36*
X295158D02*
X294606D01*
X294097Y215348D01*
X293707Y214958D01*
X293496Y214449D01*
Y213898D01*
X293707Y213388D01*
X294097Y212998D01*
X294606Y212787D01*
X295158D01*
X295667Y212998D01*
X296057Y213388D01*
X296268Y213898D01*
Y214449D01*
X296057Y214958D01*
X295667Y215348D01*
X295158Y215559D01*
D02*
G37*
G36*
X273504D02*
X272953D01*
X272443Y215348D01*
X272054Y214958D01*
X271843Y214449D01*
Y213898D01*
X272054Y213388D01*
X272443Y212998D01*
X272953Y212787D01*
X273504D01*
X274013Y212998D01*
X274403Y213388D01*
X274614Y213898D01*
Y214449D01*
X274403Y214958D01*
X274013Y215348D01*
X273504Y215559D01*
D02*
G37*
G36*
X251851D02*
X251299D01*
X250790Y215348D01*
X250400Y214958D01*
X250189Y214449D01*
Y213898D01*
X250400Y213388D01*
X250790Y212998D01*
X251299Y212787D01*
X251851D01*
X252360Y212998D01*
X252750Y213388D01*
X252961Y213898D01*
Y214449D01*
X252750Y214958D01*
X252360Y215348D01*
X251851Y215559D01*
D02*
G37*
G36*
X230197D02*
X229646D01*
X229136Y215348D01*
X228746Y214958D01*
X228535Y214449D01*
Y213898D01*
X228746Y213388D01*
X229136Y212998D01*
X229646Y212787D01*
X230197D01*
X230706Y212998D01*
X231096Y213388D01*
X231307Y213898D01*
Y214449D01*
X231096Y214958D01*
X230706Y215348D01*
X230197Y215559D01*
D02*
G37*
G36*
X208543D02*
X207992D01*
X207483Y215348D01*
X207093Y214958D01*
X206882Y214449D01*
Y213898D01*
X207093Y213388D01*
X207483Y212998D01*
X207992Y212787D01*
X208543D01*
X209053Y212998D01*
X209442Y213388D01*
X209653Y213898D01*
Y214449D01*
X209442Y214958D01*
X209053Y215348D01*
X208543Y215559D01*
D02*
G37*
G36*
X186890D02*
X186338D01*
X185829Y215348D01*
X185439Y214958D01*
X185228Y214449D01*
Y213898D01*
X185439Y213388D01*
X185829Y212998D01*
X186338Y212787D01*
X186890D01*
X187399Y212998D01*
X187789Y213388D01*
X188000Y213898D01*
Y214449D01*
X187789Y214958D01*
X187399Y215348D01*
X186890Y215559D01*
D02*
G37*
G36*
X165236D02*
X164685D01*
X164176Y215348D01*
X163786Y214958D01*
X163575Y214449D01*
Y213898D01*
X163786Y213388D01*
X164176Y212998D01*
X164685Y212787D01*
X165236D01*
X165746Y212998D01*
X166136Y213388D01*
X166346Y213898D01*
Y214449D01*
X166136Y214958D01*
X165746Y215348D01*
X165236Y215559D01*
D02*
G37*
G36*
X143583D02*
X143031D01*
X142522Y215348D01*
X142132Y214958D01*
X141921Y214449D01*
Y213898D01*
X142132Y213388D01*
X142522Y212998D01*
X143031Y212787D01*
X143583D01*
X144092Y212998D01*
X144482Y213388D01*
X144693Y213898D01*
Y214449D01*
X144482Y214958D01*
X144092Y215348D01*
X143583Y215559D01*
D02*
G37*
G36*
X121929D02*
X121378D01*
X120869Y215348D01*
X120479Y214958D01*
X120268Y214449D01*
Y213898D01*
X120479Y213388D01*
X120869Y212998D01*
X121378Y212787D01*
X121929D01*
X122439Y212998D01*
X122828Y213388D01*
X123039Y213898D01*
Y214449D01*
X122828Y214958D01*
X122439Y215348D01*
X121929Y215559D01*
D02*
G37*
G36*
X435964Y210933D02*
X435295D01*
X434678Y210677D01*
X434272Y210272D01*
X112185D01*
X111779Y210677D01*
X111161Y210933D01*
X110492D01*
X109874Y210677D01*
X109402Y210204D01*
X109146Y209586D01*
Y208918D01*
X109402Y208300D01*
X109874Y207827D01*
X110492Y207571D01*
X111161D01*
X111779Y207827D01*
X112185Y208232D01*
X434272D01*
X434678Y207827D01*
X435295Y207571D01*
X435964D01*
X436582Y207827D01*
X437055Y208300D01*
X437311Y208918D01*
Y209586D01*
X437055Y210204D01*
X436582Y210677D01*
X435964Y210933D01*
D02*
G37*
G36*
X449319Y212114D02*
X443595D01*
Y206390D01*
X449319D01*
Y212114D01*
D02*
G37*
G36*
X446732Y205716D02*
X446181D01*
X445672Y205506D01*
X445282Y205116D01*
X445071Y204606D01*
Y204055D01*
X445282Y203546D01*
X445672Y203156D01*
X446181Y202945D01*
X446732D01*
X447242Y203156D01*
X447632Y203546D01*
X447843Y204055D01*
Y204606D01*
X447632Y205116D01*
X447242Y205506D01*
X446732Y205716D01*
D02*
G37*
G36*
X425079D02*
X424528D01*
X424018Y205506D01*
X423628Y205116D01*
X423417Y204606D01*
Y204055D01*
X423628Y203546D01*
X424018Y203156D01*
X424528Y202945D01*
X425079D01*
X425588Y203156D01*
X425978Y203546D01*
X426189Y204055D01*
Y204606D01*
X425978Y205116D01*
X425588Y205506D01*
X425079Y205716D01*
D02*
G37*
G36*
X403425D02*
X402874D01*
X402365Y205506D01*
X401975Y205116D01*
X401764Y204606D01*
Y204055D01*
X401975Y203546D01*
X402365Y203156D01*
X402874Y202945D01*
X403425D01*
X403935Y203156D01*
X404324Y203546D01*
X404535Y204055D01*
Y204606D01*
X404324Y205116D01*
X403935Y205506D01*
X403425Y205716D01*
D02*
G37*
G36*
X381772D02*
X381220D01*
X380711Y205506D01*
X380321Y205116D01*
X380110Y204606D01*
Y204055D01*
X380321Y203546D01*
X380711Y203156D01*
X381220Y202945D01*
X381772D01*
X382281Y203156D01*
X382671Y203546D01*
X382882Y204055D01*
Y204606D01*
X382671Y205116D01*
X382281Y205506D01*
X381772Y205716D01*
D02*
G37*
G36*
X360118D02*
X359567D01*
X359057Y205506D01*
X358668Y205116D01*
X358457Y204606D01*
Y204055D01*
X358668Y203546D01*
X359057Y203156D01*
X359567Y202945D01*
X360118D01*
X360628Y203156D01*
X361017Y203546D01*
X361228Y204055D01*
Y204606D01*
X361017Y205116D01*
X360628Y205506D01*
X360118Y205716D01*
D02*
G37*
G36*
X338465D02*
X337913D01*
X337404Y205506D01*
X337014Y205116D01*
X336803Y204606D01*
Y204055D01*
X337014Y203546D01*
X337404Y203156D01*
X337913Y202945D01*
X338465D01*
X338974Y203156D01*
X339364Y203546D01*
X339575Y204055D01*
Y204606D01*
X339364Y205116D01*
X338974Y205506D01*
X338465Y205716D01*
D02*
G37*
G36*
X316811D02*
X316260D01*
X315750Y205506D01*
X315361Y205116D01*
X315150Y204606D01*
Y204055D01*
X315361Y203546D01*
X315750Y203156D01*
X316260Y202945D01*
X316811D01*
X317320Y203156D01*
X317710Y203546D01*
X317921Y204055D01*
Y204606D01*
X317710Y205116D01*
X317320Y205506D01*
X316811Y205716D01*
D02*
G37*
G36*
X295158D02*
X294606D01*
X294097Y205506D01*
X293707Y205116D01*
X293496Y204606D01*
Y204055D01*
X293707Y203546D01*
X294097Y203156D01*
X294606Y202945D01*
X295158D01*
X295667Y203156D01*
X296057Y203546D01*
X296268Y204055D01*
Y204606D01*
X296057Y205116D01*
X295667Y205506D01*
X295158Y205716D01*
D02*
G37*
G36*
X273504D02*
X272953D01*
X272443Y205506D01*
X272054Y205116D01*
X271843Y204606D01*
Y204055D01*
X272054Y203546D01*
X272443Y203156D01*
X272953Y202945D01*
X273504D01*
X274013Y203156D01*
X274403Y203546D01*
X274614Y204055D01*
Y204606D01*
X274403Y205116D01*
X274013Y205506D01*
X273504Y205716D01*
D02*
G37*
G36*
X251851D02*
X251299D01*
X250790Y205506D01*
X250400Y205116D01*
X250189Y204606D01*
Y204055D01*
X250400Y203546D01*
X250790Y203156D01*
X251299Y202945D01*
X251851D01*
X252360Y203156D01*
X252750Y203546D01*
X252961Y204055D01*
Y204606D01*
X252750Y205116D01*
X252360Y205506D01*
X251851Y205716D01*
D02*
G37*
G36*
X230197D02*
X229646D01*
X229136Y205506D01*
X228746Y205116D01*
X228535Y204606D01*
Y204055D01*
X228746Y203546D01*
X229136Y203156D01*
X229646Y202945D01*
X230197D01*
X230706Y203156D01*
X231096Y203546D01*
X231307Y204055D01*
Y204606D01*
X231096Y205116D01*
X230706Y205506D01*
X230197Y205716D01*
D02*
G37*
G36*
X208543D02*
X207992D01*
X207483Y205506D01*
X207093Y205116D01*
X206882Y204606D01*
Y204055D01*
X207093Y203546D01*
X207483Y203156D01*
X207992Y202945D01*
X208543D01*
X209053Y203156D01*
X209442Y203546D01*
X209653Y204055D01*
Y204606D01*
X209442Y205116D01*
X209053Y205506D01*
X208543Y205716D01*
D02*
G37*
G36*
X186890D02*
X186338D01*
X185829Y205506D01*
X185439Y205116D01*
X185228Y204606D01*
Y204055D01*
X185439Y203546D01*
X185829Y203156D01*
X186338Y202945D01*
X186890D01*
X187399Y203156D01*
X187789Y203546D01*
X188000Y204055D01*
Y204606D01*
X187789Y205116D01*
X187399Y205506D01*
X186890Y205716D01*
D02*
G37*
G36*
X165236D02*
X164685D01*
X164176Y205506D01*
X163786Y205116D01*
X163575Y204606D01*
Y204055D01*
X163786Y203546D01*
X164176Y203156D01*
X164685Y202945D01*
X165236D01*
X165746Y203156D01*
X166136Y203546D01*
X166346Y204055D01*
Y204606D01*
X166136Y205116D01*
X165746Y205506D01*
X165236Y205716D01*
D02*
G37*
G36*
X143583D02*
X143031D01*
X142522Y205506D01*
X142132Y205116D01*
X141921Y204606D01*
Y204055D01*
X142132Y203546D01*
X142522Y203156D01*
X143031Y202945D01*
X143583D01*
X144092Y203156D01*
X144482Y203546D01*
X144693Y204055D01*
Y204606D01*
X144482Y205116D01*
X144092Y205506D01*
X143583Y205716D01*
D02*
G37*
G36*
X121929D02*
X121378D01*
X120869Y205506D01*
X120479Y205116D01*
X120268Y204606D01*
Y204055D01*
X120479Y203546D01*
X120869Y203156D01*
X121378Y202945D01*
X121929D01*
X122439Y203156D01*
X122828Y203546D01*
X123039Y204055D01*
Y204606D01*
X122828Y205116D01*
X122439Y205506D01*
X121929Y205716D01*
D02*
G37*
G36*
X109193Y200106D02*
X108524D01*
X107906Y199850D01*
X107433Y199378D01*
X107177Y198760D01*
Y198091D01*
X107433Y197473D01*
X107906Y197000D01*
X108524Y196744D01*
X109193D01*
X109810Y197000D01*
X110283Y197473D01*
X110539Y198091D01*
Y198760D01*
X110283Y199378D01*
X109810Y199850D01*
X109193Y200106D01*
D02*
G37*
G36*
X446732Y193905D02*
X446181D01*
X445672Y193694D01*
X445282Y193305D01*
X445071Y192795D01*
Y192244D01*
X445282Y191735D01*
X445672Y191345D01*
X446181Y191134D01*
X446732D01*
X447242Y191345D01*
X447632Y191735D01*
X447843Y192244D01*
Y192795D01*
X447632Y193305D01*
X447242Y193694D01*
X446732Y193905D01*
D02*
G37*
G36*
X425079D02*
X424528D01*
X424018Y193694D01*
X423628Y193305D01*
X423417Y192795D01*
Y192244D01*
X423628Y191735D01*
X424018Y191345D01*
X424528Y191134D01*
X425079D01*
X425588Y191345D01*
X425978Y191735D01*
X426189Y192244D01*
Y192795D01*
X425978Y193305D01*
X425588Y193694D01*
X425079Y193905D01*
D02*
G37*
G36*
X403425D02*
X402874D01*
X402365Y193694D01*
X401975Y193305D01*
X401764Y192795D01*
Y192244D01*
X401975Y191735D01*
X402365Y191345D01*
X402874Y191134D01*
X403425D01*
X403935Y191345D01*
X404324Y191735D01*
X404535Y192244D01*
Y192795D01*
X404324Y193305D01*
X403935Y193694D01*
X403425Y193905D01*
D02*
G37*
G36*
X381772D02*
X381220D01*
X380711Y193694D01*
X380321Y193305D01*
X380110Y192795D01*
Y192244D01*
X380321Y191735D01*
X380711Y191345D01*
X381220Y191134D01*
X381772D01*
X382281Y191345D01*
X382671Y191735D01*
X382882Y192244D01*
Y192795D01*
X382671Y193305D01*
X382281Y193694D01*
X381772Y193905D01*
D02*
G37*
G36*
X360118D02*
X359567D01*
X359057Y193694D01*
X358668Y193305D01*
X358457Y192795D01*
Y192244D01*
X358668Y191735D01*
X359057Y191345D01*
X359567Y191134D01*
X360118D01*
X360628Y191345D01*
X361017Y191735D01*
X361228Y192244D01*
Y192795D01*
X361017Y193305D01*
X360628Y193694D01*
X360118Y193905D01*
D02*
G37*
G36*
X338465D02*
X337913D01*
X337404Y193694D01*
X337014Y193305D01*
X336803Y192795D01*
Y192244D01*
X337014Y191735D01*
X337404Y191345D01*
X337913Y191134D01*
X338465D01*
X338974Y191345D01*
X339364Y191735D01*
X339575Y192244D01*
Y192795D01*
X339364Y193305D01*
X338974Y193694D01*
X338465Y193905D01*
D02*
G37*
G36*
X316811D02*
X316260D01*
X315750Y193694D01*
X315361Y193305D01*
X315150Y192795D01*
Y192244D01*
X315361Y191735D01*
X315750Y191345D01*
X316260Y191134D01*
X316811D01*
X317320Y191345D01*
X317710Y191735D01*
X317921Y192244D01*
Y192795D01*
X317710Y193305D01*
X317320Y193694D01*
X316811Y193905D01*
D02*
G37*
G36*
X295158D02*
X294606D01*
X294097Y193694D01*
X293707Y193305D01*
X293496Y192795D01*
Y192244D01*
X293707Y191735D01*
X294097Y191345D01*
X294606Y191134D01*
X295158D01*
X295667Y191345D01*
X296057Y191735D01*
X296268Y192244D01*
Y192795D01*
X296057Y193305D01*
X295667Y193694D01*
X295158Y193905D01*
D02*
G37*
G36*
X273504D02*
X272953D01*
X272443Y193694D01*
X272054Y193305D01*
X271843Y192795D01*
Y192244D01*
X272054Y191735D01*
X272443Y191345D01*
X272953Y191134D01*
X273504D01*
X274013Y191345D01*
X274403Y191735D01*
X274614Y192244D01*
Y192795D01*
X274403Y193305D01*
X274013Y193694D01*
X273504Y193905D01*
D02*
G37*
G36*
X251851D02*
X251299D01*
X250790Y193694D01*
X250400Y193305D01*
X250189Y192795D01*
Y192244D01*
X250400Y191735D01*
X250790Y191345D01*
X251299Y191134D01*
X251851D01*
X252360Y191345D01*
X252750Y191735D01*
X252961Y192244D01*
Y192795D01*
X252750Y193305D01*
X252360Y193694D01*
X251851Y193905D01*
D02*
G37*
G36*
X230197D02*
X229646D01*
X229136Y193694D01*
X228746Y193305D01*
X228535Y192795D01*
Y192244D01*
X228746Y191735D01*
X229136Y191345D01*
X229646Y191134D01*
X230197D01*
X230706Y191345D01*
X231096Y191735D01*
X231307Y192244D01*
Y192795D01*
X231096Y193305D01*
X230706Y193694D01*
X230197Y193905D01*
D02*
G37*
G36*
X208543D02*
X207992D01*
X207483Y193694D01*
X207093Y193305D01*
X206882Y192795D01*
Y192244D01*
X207093Y191735D01*
X207483Y191345D01*
X207992Y191134D01*
X208543D01*
X209053Y191345D01*
X209442Y191735D01*
X209653Y192244D01*
Y192795D01*
X209442Y193305D01*
X209053Y193694D01*
X208543Y193905D01*
D02*
G37*
G36*
X186890D02*
X186338D01*
X185829Y193694D01*
X185439Y193305D01*
X185228Y192795D01*
Y192244D01*
X185439Y191735D01*
X185829Y191345D01*
X186338Y191134D01*
X186890D01*
X187399Y191345D01*
X187789Y191735D01*
X188000Y192244D01*
Y192795D01*
X187789Y193305D01*
X187399Y193694D01*
X186890Y193905D01*
D02*
G37*
G36*
X165236D02*
X164685D01*
X164176Y193694D01*
X163786Y193305D01*
X163575Y192795D01*
Y192244D01*
X163786Y191735D01*
X164176Y191345D01*
X164685Y191134D01*
X165236D01*
X165746Y191345D01*
X166136Y191735D01*
X166346Y192244D01*
Y192795D01*
X166136Y193305D01*
X165746Y193694D01*
X165236Y193905D01*
D02*
G37*
G36*
X143583D02*
X143031D01*
X142522Y193694D01*
X142132Y193305D01*
X141921Y192795D01*
Y192244D01*
X142132Y191735D01*
X142522Y191345D01*
X143031Y191134D01*
X143583D01*
X144092Y191345D01*
X144482Y191735D01*
X144693Y192244D01*
Y192795D01*
X144482Y193305D01*
X144092Y193694D01*
X143583Y193905D01*
D02*
G37*
G36*
X121929D02*
X121378D01*
X120869Y193694D01*
X120479Y193305D01*
X120268Y192795D01*
Y192244D01*
X120479Y191735D01*
X120869Y191345D01*
X121378Y191134D01*
X121929D01*
X122439Y191345D01*
X122828Y191735D01*
X123039Y192244D01*
Y192795D01*
X122828Y193305D01*
X122439Y193694D01*
X121929Y193905D01*
D02*
G37*
G36*
X435964Y189279D02*
X435295D01*
X434678Y189024D01*
X434272Y188618D01*
X112185D01*
X111779Y189024D01*
X111161Y189279D01*
X110492D01*
X109874Y189024D01*
X109402Y188551D01*
X109146Y187933D01*
Y187264D01*
X109402Y186646D01*
X109874Y186173D01*
X110492Y185917D01*
X111161D01*
X111779Y186173D01*
X112185Y186579D01*
X434272D01*
X434678Y186173D01*
X435295Y185917D01*
X435964D01*
X436582Y186173D01*
X437055Y186646D01*
X437311Y187264D01*
Y187933D01*
X437055Y188551D01*
X436582Y189024D01*
X435964Y189279D01*
D02*
G37*
G36*
X446732Y184063D02*
X446181D01*
X445672Y183852D01*
X445282Y183462D01*
X445071Y182953D01*
Y182402D01*
X445282Y181892D01*
X445672Y181502D01*
X446181Y181291D01*
X446732D01*
X447242Y181502D01*
X447632Y181892D01*
X447843Y182402D01*
Y182953D01*
X447632Y183462D01*
X447242Y183852D01*
X446732Y184063D01*
D02*
G37*
G36*
X425079D02*
X424528D01*
X424018Y183852D01*
X423628Y183462D01*
X423417Y182953D01*
Y182402D01*
X423628Y181892D01*
X424018Y181502D01*
X424528Y181291D01*
X425079D01*
X425588Y181502D01*
X425978Y181892D01*
X426189Y182402D01*
Y182953D01*
X425978Y183462D01*
X425588Y183852D01*
X425079Y184063D01*
D02*
G37*
G36*
X403425D02*
X402874D01*
X402365Y183852D01*
X401975Y183462D01*
X401764Y182953D01*
Y182402D01*
X401975Y181892D01*
X402365Y181502D01*
X402874Y181291D01*
X403425D01*
X403935Y181502D01*
X404324Y181892D01*
X404535Y182402D01*
Y182953D01*
X404324Y183462D01*
X403935Y183852D01*
X403425Y184063D01*
D02*
G37*
G36*
X381772D02*
X381220D01*
X380711Y183852D01*
X380321Y183462D01*
X380110Y182953D01*
Y182402D01*
X380321Y181892D01*
X380711Y181502D01*
X381220Y181291D01*
X381772D01*
X382281Y181502D01*
X382671Y181892D01*
X382882Y182402D01*
Y182953D01*
X382671Y183462D01*
X382281Y183852D01*
X381772Y184063D01*
D02*
G37*
G36*
X360118D02*
X359567D01*
X359057Y183852D01*
X358668Y183462D01*
X358457Y182953D01*
Y182402D01*
X358668Y181892D01*
X359057Y181502D01*
X359567Y181291D01*
X360118D01*
X360628Y181502D01*
X361017Y181892D01*
X361228Y182402D01*
Y182953D01*
X361017Y183462D01*
X360628Y183852D01*
X360118Y184063D01*
D02*
G37*
G36*
X338465D02*
X337913D01*
X337404Y183852D01*
X337014Y183462D01*
X336803Y182953D01*
Y182402D01*
X337014Y181892D01*
X337404Y181502D01*
X337913Y181291D01*
X338465D01*
X338974Y181502D01*
X339364Y181892D01*
X339575Y182402D01*
Y182953D01*
X339364Y183462D01*
X338974Y183852D01*
X338465Y184063D01*
D02*
G37*
G36*
X316811D02*
X316260D01*
X315750Y183852D01*
X315361Y183462D01*
X315150Y182953D01*
Y182402D01*
X315361Y181892D01*
X315750Y181502D01*
X316260Y181291D01*
X316811D01*
X317320Y181502D01*
X317710Y181892D01*
X317921Y182402D01*
Y182953D01*
X317710Y183462D01*
X317320Y183852D01*
X316811Y184063D01*
D02*
G37*
G36*
X295158D02*
X294606D01*
X294097Y183852D01*
X293707Y183462D01*
X293496Y182953D01*
Y182402D01*
X293707Y181892D01*
X294097Y181502D01*
X294606Y181291D01*
X295158D01*
X295667Y181502D01*
X296057Y181892D01*
X296268Y182402D01*
Y182953D01*
X296057Y183462D01*
X295667Y183852D01*
X295158Y184063D01*
D02*
G37*
G36*
X273504D02*
X272953D01*
X272443Y183852D01*
X272054Y183462D01*
X271843Y182953D01*
Y182402D01*
X272054Y181892D01*
X272443Y181502D01*
X272953Y181291D01*
X273504D01*
X274013Y181502D01*
X274403Y181892D01*
X274614Y182402D01*
Y182953D01*
X274403Y183462D01*
X274013Y183852D01*
X273504Y184063D01*
D02*
G37*
G36*
X251851D02*
X251299D01*
X250790Y183852D01*
X250400Y183462D01*
X250189Y182953D01*
Y182402D01*
X250400Y181892D01*
X250790Y181502D01*
X251299Y181291D01*
X251851D01*
X252360Y181502D01*
X252750Y181892D01*
X252961Y182402D01*
Y182953D01*
X252750Y183462D01*
X252360Y183852D01*
X251851Y184063D01*
D02*
G37*
G36*
X230197D02*
X229646D01*
X229136Y183852D01*
X228746Y183462D01*
X228535Y182953D01*
Y182402D01*
X228746Y181892D01*
X229136Y181502D01*
X229646Y181291D01*
X230197D01*
X230706Y181502D01*
X231096Y181892D01*
X231307Y182402D01*
Y182953D01*
X231096Y183462D01*
X230706Y183852D01*
X230197Y184063D01*
D02*
G37*
G36*
X208543D02*
X207992D01*
X207483Y183852D01*
X207093Y183462D01*
X206882Y182953D01*
Y182402D01*
X207093Y181892D01*
X207483Y181502D01*
X207992Y181291D01*
X208543D01*
X209053Y181502D01*
X209442Y181892D01*
X209653Y182402D01*
Y182953D01*
X209442Y183462D01*
X209053Y183852D01*
X208543Y184063D01*
D02*
G37*
G36*
X186890D02*
X186338D01*
X185829Y183852D01*
X185439Y183462D01*
X185228Y182953D01*
Y182402D01*
X185439Y181892D01*
X185829Y181502D01*
X186338Y181291D01*
X186890D01*
X187399Y181502D01*
X187789Y181892D01*
X188000Y182402D01*
Y182953D01*
X187789Y183462D01*
X187399Y183852D01*
X186890Y184063D01*
D02*
G37*
G36*
X165236D02*
X164685D01*
X164176Y183852D01*
X163786Y183462D01*
X163575Y182953D01*
Y182402D01*
X163786Y181892D01*
X164176Y181502D01*
X164685Y181291D01*
X165236D01*
X165746Y181502D01*
X166136Y181892D01*
X166346Y182402D01*
Y182953D01*
X166136Y183462D01*
X165746Y183852D01*
X165236Y184063D01*
D02*
G37*
G36*
X143583D02*
X143031D01*
X142522Y183852D01*
X142132Y183462D01*
X141921Y182953D01*
Y182402D01*
X142132Y181892D01*
X142522Y181502D01*
X143031Y181291D01*
X143583D01*
X144092Y181502D01*
X144482Y181892D01*
X144693Y182402D01*
Y182953D01*
X144482Y183462D01*
X144092Y183852D01*
X143583Y184063D01*
D02*
G37*
G36*
X121929D02*
X121378D01*
X120869Y183852D01*
X120479Y183462D01*
X120268Y182953D01*
Y182402D01*
X120479Y181892D01*
X120869Y181502D01*
X121378Y181291D01*
X121929D01*
X122439Y181502D01*
X122828Y181892D01*
X123039Y182402D01*
Y182953D01*
X122828Y183462D01*
X122439Y183852D01*
X121929Y184063D01*
D02*
G37*
G36*
X109193Y178453D02*
X108524D01*
X107906Y178197D01*
X107433Y177724D01*
X107177Y177106D01*
Y176437D01*
X107433Y175819D01*
X107906Y175347D01*
X108524Y175091D01*
X109193D01*
X109810Y175347D01*
X110283Y175819D01*
X110539Y176437D01*
Y177106D01*
X110283Y177724D01*
X109810Y178197D01*
X109193Y178453D01*
D02*
G37*
G36*
X446732Y172252D02*
X446181D01*
X445672Y172041D01*
X445282Y171651D01*
X445071Y171142D01*
Y170590D01*
X445282Y170081D01*
X445672Y169691D01*
X446181Y169480D01*
X446732D01*
X447242Y169691D01*
X447632Y170081D01*
X447843Y170590D01*
Y171142D01*
X447632Y171651D01*
X447242Y172041D01*
X446732Y172252D01*
D02*
G37*
G36*
X425079D02*
X424528D01*
X424018Y172041D01*
X423628Y171651D01*
X423417Y171142D01*
Y170590D01*
X423628Y170081D01*
X424018Y169691D01*
X424528Y169480D01*
X425079D01*
X425588Y169691D01*
X425978Y170081D01*
X426189Y170590D01*
Y171142D01*
X425978Y171651D01*
X425588Y172041D01*
X425079Y172252D01*
D02*
G37*
G36*
X403425D02*
X402874D01*
X402365Y172041D01*
X401975Y171651D01*
X401764Y171142D01*
Y170590D01*
X401975Y170081D01*
X402365Y169691D01*
X402874Y169480D01*
X403425D01*
X403935Y169691D01*
X404324Y170081D01*
X404535Y170590D01*
Y171142D01*
X404324Y171651D01*
X403935Y172041D01*
X403425Y172252D01*
D02*
G37*
G36*
X381772D02*
X381220D01*
X380711Y172041D01*
X380321Y171651D01*
X380110Y171142D01*
Y170590D01*
X380321Y170081D01*
X380711Y169691D01*
X381220Y169480D01*
X381772D01*
X382281Y169691D01*
X382671Y170081D01*
X382882Y170590D01*
Y171142D01*
X382671Y171651D01*
X382281Y172041D01*
X381772Y172252D01*
D02*
G37*
G36*
X360118D02*
X359567D01*
X359057Y172041D01*
X358668Y171651D01*
X358457Y171142D01*
Y170590D01*
X358668Y170081D01*
X359057Y169691D01*
X359567Y169480D01*
X360118D01*
X360628Y169691D01*
X361017Y170081D01*
X361228Y170590D01*
Y171142D01*
X361017Y171651D01*
X360628Y172041D01*
X360118Y172252D01*
D02*
G37*
G36*
X338465D02*
X337913D01*
X337404Y172041D01*
X337014Y171651D01*
X336803Y171142D01*
Y170590D01*
X337014Y170081D01*
X337404Y169691D01*
X337913Y169480D01*
X338465D01*
X338974Y169691D01*
X339364Y170081D01*
X339575Y170590D01*
Y171142D01*
X339364Y171651D01*
X338974Y172041D01*
X338465Y172252D01*
D02*
G37*
G36*
X316811D02*
X316260D01*
X315750Y172041D01*
X315361Y171651D01*
X315150Y171142D01*
Y170590D01*
X315361Y170081D01*
X315750Y169691D01*
X316260Y169480D01*
X316811D01*
X317320Y169691D01*
X317710Y170081D01*
X317921Y170590D01*
Y171142D01*
X317710Y171651D01*
X317320Y172041D01*
X316811Y172252D01*
D02*
G37*
G36*
X295158D02*
X294606D01*
X294097Y172041D01*
X293707Y171651D01*
X293496Y171142D01*
Y170590D01*
X293707Y170081D01*
X294097Y169691D01*
X294606Y169480D01*
X295158D01*
X295667Y169691D01*
X296057Y170081D01*
X296268Y170590D01*
Y171142D01*
X296057Y171651D01*
X295667Y172041D01*
X295158Y172252D01*
D02*
G37*
G36*
X273504D02*
X272953D01*
X272443Y172041D01*
X272054Y171651D01*
X271843Y171142D01*
Y170590D01*
X272054Y170081D01*
X272443Y169691D01*
X272953Y169480D01*
X273504D01*
X274013Y169691D01*
X274403Y170081D01*
X274614Y170590D01*
Y171142D01*
X274403Y171651D01*
X274013Y172041D01*
X273504Y172252D01*
D02*
G37*
G36*
X251851D02*
X251299D01*
X250790Y172041D01*
X250400Y171651D01*
X250189Y171142D01*
Y170590D01*
X250400Y170081D01*
X250790Y169691D01*
X251299Y169480D01*
X251851D01*
X252360Y169691D01*
X252750Y170081D01*
X252961Y170590D01*
Y171142D01*
X252750Y171651D01*
X252360Y172041D01*
X251851Y172252D01*
D02*
G37*
G36*
X230197D02*
X229646D01*
X229136Y172041D01*
X228746Y171651D01*
X228535Y171142D01*
Y170590D01*
X228746Y170081D01*
X229136Y169691D01*
X229646Y169480D01*
X230197D01*
X230706Y169691D01*
X231096Y170081D01*
X231307Y170590D01*
Y171142D01*
X231096Y171651D01*
X230706Y172041D01*
X230197Y172252D01*
D02*
G37*
G36*
X208543D02*
X207992D01*
X207483Y172041D01*
X207093Y171651D01*
X206882Y171142D01*
Y170590D01*
X207093Y170081D01*
X207483Y169691D01*
X207992Y169480D01*
X208543D01*
X209053Y169691D01*
X209442Y170081D01*
X209653Y170590D01*
Y171142D01*
X209442Y171651D01*
X209053Y172041D01*
X208543Y172252D01*
D02*
G37*
G36*
X186890D02*
X186338D01*
X185829Y172041D01*
X185439Y171651D01*
X185228Y171142D01*
Y170590D01*
X185439Y170081D01*
X185829Y169691D01*
X186338Y169480D01*
X186890D01*
X187399Y169691D01*
X187789Y170081D01*
X188000Y170590D01*
Y171142D01*
X187789Y171651D01*
X187399Y172041D01*
X186890Y172252D01*
D02*
G37*
G36*
X165236D02*
X164685D01*
X164176Y172041D01*
X163786Y171651D01*
X163575Y171142D01*
Y170590D01*
X163786Y170081D01*
X164176Y169691D01*
X164685Y169480D01*
X165236D01*
X165746Y169691D01*
X166136Y170081D01*
X166346Y170590D01*
Y171142D01*
X166136Y171651D01*
X165746Y172041D01*
X165236Y172252D01*
D02*
G37*
G36*
X143583D02*
X143031D01*
X142522Y172041D01*
X142132Y171651D01*
X141921Y171142D01*
Y170590D01*
X142132Y170081D01*
X142522Y169691D01*
X143031Y169480D01*
X143583D01*
X144092Y169691D01*
X144482Y170081D01*
X144693Y170590D01*
Y171142D01*
X144482Y171651D01*
X144092Y172041D01*
X143583Y172252D01*
D02*
G37*
G36*
X121929D02*
X121378D01*
X120869Y172041D01*
X120479Y171651D01*
X120268Y171142D01*
Y170590D01*
X120479Y170081D01*
X120869Y169691D01*
X121378Y169480D01*
X121929D01*
X122439Y169691D01*
X122828Y170081D01*
X123039Y170590D01*
Y171142D01*
X122828Y171651D01*
X122439Y172041D01*
X121929Y172252D01*
D02*
G37*
G36*
X435964Y167626D02*
X435295D01*
X434678Y167370D01*
X434272Y166964D01*
X112185D01*
X111779Y167370D01*
X111161Y167626D01*
X110492D01*
X109874Y167370D01*
X109402Y166897D01*
X109146Y166279D01*
Y165611D01*
X109402Y164993D01*
X109874Y164520D01*
X110492Y164264D01*
X111161D01*
X111779Y164520D01*
X112185Y164925D01*
X434272D01*
X434678Y164520D01*
X435295Y164264D01*
X435964D01*
X436582Y164520D01*
X437055Y164993D01*
X437311Y165611D01*
Y166279D01*
X437055Y166897D01*
X436582Y167370D01*
X435964Y167626D01*
D02*
G37*
G36*
X449319Y168807D02*
X443595D01*
Y163083D01*
X449319D01*
Y168807D01*
D02*
G37*
G36*
X446732Y162409D02*
X446181D01*
X445672Y162198D01*
X445282Y161809D01*
X445071Y161299D01*
Y160748D01*
X445282Y160239D01*
X445672Y159849D01*
X446181Y159638D01*
X446732D01*
X447242Y159849D01*
X447632Y160239D01*
X447843Y160748D01*
Y161299D01*
X447632Y161809D01*
X447242Y162198D01*
X446732Y162409D01*
D02*
G37*
G36*
X425079D02*
X424528D01*
X424018Y162198D01*
X423628Y161809D01*
X423417Y161299D01*
Y160748D01*
X423628Y160239D01*
X424018Y159849D01*
X424528Y159638D01*
X425079D01*
X425588Y159849D01*
X425978Y160239D01*
X426189Y160748D01*
Y161299D01*
X425978Y161809D01*
X425588Y162198D01*
X425079Y162409D01*
D02*
G37*
G36*
X403425D02*
X402874D01*
X402365Y162198D01*
X401975Y161809D01*
X401764Y161299D01*
Y160748D01*
X401975Y160239D01*
X402365Y159849D01*
X402874Y159638D01*
X403425D01*
X403935Y159849D01*
X404324Y160239D01*
X404535Y160748D01*
Y161299D01*
X404324Y161809D01*
X403935Y162198D01*
X403425Y162409D01*
D02*
G37*
G36*
X381772D02*
X381220D01*
X380711Y162198D01*
X380321Y161809D01*
X380110Y161299D01*
Y160748D01*
X380321Y160239D01*
X380711Y159849D01*
X381220Y159638D01*
X381772D01*
X382281Y159849D01*
X382671Y160239D01*
X382882Y160748D01*
Y161299D01*
X382671Y161809D01*
X382281Y162198D01*
X381772Y162409D01*
D02*
G37*
G36*
X360118D02*
X359567D01*
X359057Y162198D01*
X358668Y161809D01*
X358457Y161299D01*
Y160748D01*
X358668Y160239D01*
X359057Y159849D01*
X359567Y159638D01*
X360118D01*
X360628Y159849D01*
X361017Y160239D01*
X361228Y160748D01*
Y161299D01*
X361017Y161809D01*
X360628Y162198D01*
X360118Y162409D01*
D02*
G37*
G36*
X338465D02*
X337913D01*
X337404Y162198D01*
X337014Y161809D01*
X336803Y161299D01*
Y160748D01*
X337014Y160239D01*
X337404Y159849D01*
X337913Y159638D01*
X338465D01*
X338974Y159849D01*
X339364Y160239D01*
X339575Y160748D01*
Y161299D01*
X339364Y161809D01*
X338974Y162198D01*
X338465Y162409D01*
D02*
G37*
G36*
X316811D02*
X316260D01*
X315750Y162198D01*
X315361Y161809D01*
X315150Y161299D01*
Y160748D01*
X315361Y160239D01*
X315750Y159849D01*
X316260Y159638D01*
X316811D01*
X317320Y159849D01*
X317710Y160239D01*
X317921Y160748D01*
Y161299D01*
X317710Y161809D01*
X317320Y162198D01*
X316811Y162409D01*
D02*
G37*
G36*
X295158D02*
X294606D01*
X294097Y162198D01*
X293707Y161809D01*
X293496Y161299D01*
Y160748D01*
X293707Y160239D01*
X294097Y159849D01*
X294606Y159638D01*
X295158D01*
X295667Y159849D01*
X296057Y160239D01*
X296268Y160748D01*
Y161299D01*
X296057Y161809D01*
X295667Y162198D01*
X295158Y162409D01*
D02*
G37*
G36*
X273504D02*
X272953D01*
X272443Y162198D01*
X272054Y161809D01*
X271843Y161299D01*
Y160748D01*
X272054Y160239D01*
X272443Y159849D01*
X272953Y159638D01*
X273504D01*
X274013Y159849D01*
X274403Y160239D01*
X274614Y160748D01*
Y161299D01*
X274403Y161809D01*
X274013Y162198D01*
X273504Y162409D01*
D02*
G37*
G36*
X251851D02*
X251299D01*
X250790Y162198D01*
X250400Y161809D01*
X250189Y161299D01*
Y160748D01*
X250400Y160239D01*
X250790Y159849D01*
X251299Y159638D01*
X251851D01*
X252360Y159849D01*
X252750Y160239D01*
X252961Y160748D01*
Y161299D01*
X252750Y161809D01*
X252360Y162198D01*
X251851Y162409D01*
D02*
G37*
G36*
X230197D02*
X229646D01*
X229136Y162198D01*
X228746Y161809D01*
X228535Y161299D01*
Y160748D01*
X228746Y160239D01*
X229136Y159849D01*
X229646Y159638D01*
X230197D01*
X230706Y159849D01*
X231096Y160239D01*
X231307Y160748D01*
Y161299D01*
X231096Y161809D01*
X230706Y162198D01*
X230197Y162409D01*
D02*
G37*
G36*
X208543D02*
X207992D01*
X207483Y162198D01*
X207093Y161809D01*
X206882Y161299D01*
Y160748D01*
X207093Y160239D01*
X207483Y159849D01*
X207992Y159638D01*
X208543D01*
X209053Y159849D01*
X209442Y160239D01*
X209653Y160748D01*
Y161299D01*
X209442Y161809D01*
X209053Y162198D01*
X208543Y162409D01*
D02*
G37*
G36*
X186890D02*
X186338D01*
X185829Y162198D01*
X185439Y161809D01*
X185228Y161299D01*
Y160748D01*
X185439Y160239D01*
X185829Y159849D01*
X186338Y159638D01*
X186890D01*
X187399Y159849D01*
X187789Y160239D01*
X188000Y160748D01*
Y161299D01*
X187789Y161809D01*
X187399Y162198D01*
X186890Y162409D01*
D02*
G37*
G36*
X165236D02*
X164685D01*
X164176Y162198D01*
X163786Y161809D01*
X163575Y161299D01*
Y160748D01*
X163786Y160239D01*
X164176Y159849D01*
X164685Y159638D01*
X165236D01*
X165746Y159849D01*
X166136Y160239D01*
X166346Y160748D01*
Y161299D01*
X166136Y161809D01*
X165746Y162198D01*
X165236Y162409D01*
D02*
G37*
G36*
X143583D02*
X143031D01*
X142522Y162198D01*
X142132Y161809D01*
X141921Y161299D01*
Y160748D01*
X142132Y160239D01*
X142522Y159849D01*
X143031Y159638D01*
X143583D01*
X144092Y159849D01*
X144482Y160239D01*
X144693Y160748D01*
Y161299D01*
X144482Y161809D01*
X144092Y162198D01*
X143583Y162409D01*
D02*
G37*
G36*
X121929D02*
X121378D01*
X120869Y162198D01*
X120479Y161809D01*
X120268Y161299D01*
Y160748D01*
X120479Y160239D01*
X120869Y159849D01*
X121378Y159638D01*
X121929D01*
X122439Y159849D01*
X122828Y160239D01*
X123039Y160748D01*
Y161299D01*
X122828Y161809D01*
X122439Y162198D01*
X121929Y162409D01*
D02*
G37*
G36*
X109193Y156799D02*
X108524D01*
X107906Y156543D01*
X107433Y156070D01*
X107177Y155453D01*
Y154784D01*
X107433Y154166D01*
X107906Y153693D01*
X108524Y153437D01*
X109193D01*
X109810Y153693D01*
X110283Y154166D01*
X110539Y154784D01*
Y155453D01*
X110283Y156070D01*
X109810Y156543D01*
X109193Y156799D01*
D02*
G37*
G36*
X446732Y150598D02*
X446181D01*
X445672Y150387D01*
X445282Y149998D01*
X445071Y149488D01*
Y148937D01*
X445282Y148428D01*
X445672Y148038D01*
X446181Y147827D01*
X446732D01*
X447242Y148038D01*
X447632Y148428D01*
X447843Y148937D01*
Y149488D01*
X447632Y149998D01*
X447242Y150387D01*
X446732Y150598D01*
D02*
G37*
G36*
X425079D02*
X424528D01*
X424018Y150387D01*
X423628Y149998D01*
X423417Y149488D01*
Y148937D01*
X423628Y148428D01*
X424018Y148038D01*
X424528Y147827D01*
X425079D01*
X425588Y148038D01*
X425978Y148428D01*
X426189Y148937D01*
Y149488D01*
X425978Y149998D01*
X425588Y150387D01*
X425079Y150598D01*
D02*
G37*
G36*
X403425D02*
X402874D01*
X402365Y150387D01*
X401975Y149998D01*
X401764Y149488D01*
Y148937D01*
X401975Y148428D01*
X402365Y148038D01*
X402874Y147827D01*
X403425D01*
X403935Y148038D01*
X404324Y148428D01*
X404535Y148937D01*
Y149488D01*
X404324Y149998D01*
X403935Y150387D01*
X403425Y150598D01*
D02*
G37*
G36*
X381772D02*
X381220D01*
X380711Y150387D01*
X380321Y149998D01*
X380110Y149488D01*
Y148937D01*
X380321Y148428D01*
X380711Y148038D01*
X381220Y147827D01*
X381772D01*
X382281Y148038D01*
X382671Y148428D01*
X382882Y148937D01*
Y149488D01*
X382671Y149998D01*
X382281Y150387D01*
X381772Y150598D01*
D02*
G37*
G36*
X360118D02*
X359567D01*
X359057Y150387D01*
X358668Y149998D01*
X358457Y149488D01*
Y148937D01*
X358668Y148428D01*
X359057Y148038D01*
X359567Y147827D01*
X360118D01*
X360628Y148038D01*
X361017Y148428D01*
X361228Y148937D01*
Y149488D01*
X361017Y149998D01*
X360628Y150387D01*
X360118Y150598D01*
D02*
G37*
G36*
X338465D02*
X337913D01*
X337404Y150387D01*
X337014Y149998D01*
X336803Y149488D01*
Y148937D01*
X337014Y148428D01*
X337404Y148038D01*
X337913Y147827D01*
X338465D01*
X338974Y148038D01*
X339364Y148428D01*
X339575Y148937D01*
Y149488D01*
X339364Y149998D01*
X338974Y150387D01*
X338465Y150598D01*
D02*
G37*
G36*
X316811D02*
X316260D01*
X315750Y150387D01*
X315361Y149998D01*
X315150Y149488D01*
Y148937D01*
X315361Y148428D01*
X315750Y148038D01*
X316260Y147827D01*
X316811D01*
X317320Y148038D01*
X317710Y148428D01*
X317921Y148937D01*
Y149488D01*
X317710Y149998D01*
X317320Y150387D01*
X316811Y150598D01*
D02*
G37*
G36*
X295158D02*
X294606D01*
X294097Y150387D01*
X293707Y149998D01*
X293496Y149488D01*
Y148937D01*
X293707Y148428D01*
X294097Y148038D01*
X294606Y147827D01*
X295158D01*
X295667Y148038D01*
X296057Y148428D01*
X296268Y148937D01*
Y149488D01*
X296057Y149998D01*
X295667Y150387D01*
X295158Y150598D01*
D02*
G37*
G36*
X273504D02*
X272953D01*
X272443Y150387D01*
X272054Y149998D01*
X271843Y149488D01*
Y148937D01*
X272054Y148428D01*
X272443Y148038D01*
X272953Y147827D01*
X273504D01*
X274013Y148038D01*
X274403Y148428D01*
X274614Y148937D01*
Y149488D01*
X274403Y149998D01*
X274013Y150387D01*
X273504Y150598D01*
D02*
G37*
G36*
X251851D02*
X251299D01*
X250790Y150387D01*
X250400Y149998D01*
X250189Y149488D01*
Y148937D01*
X250400Y148428D01*
X250790Y148038D01*
X251299Y147827D01*
X251851D01*
X252360Y148038D01*
X252750Y148428D01*
X252961Y148937D01*
Y149488D01*
X252750Y149998D01*
X252360Y150387D01*
X251851Y150598D01*
D02*
G37*
G36*
X230197D02*
X229646D01*
X229136Y150387D01*
X228746Y149998D01*
X228535Y149488D01*
Y148937D01*
X228746Y148428D01*
X229136Y148038D01*
X229646Y147827D01*
X230197D01*
X230706Y148038D01*
X231096Y148428D01*
X231307Y148937D01*
Y149488D01*
X231096Y149998D01*
X230706Y150387D01*
X230197Y150598D01*
D02*
G37*
G36*
X208543D02*
X207992D01*
X207483Y150387D01*
X207093Y149998D01*
X206882Y149488D01*
Y148937D01*
X207093Y148428D01*
X207483Y148038D01*
X207992Y147827D01*
X208543D01*
X209053Y148038D01*
X209442Y148428D01*
X209653Y148937D01*
Y149488D01*
X209442Y149998D01*
X209053Y150387D01*
X208543Y150598D01*
D02*
G37*
G36*
X186890D02*
X186338D01*
X185829Y150387D01*
X185439Y149998D01*
X185228Y149488D01*
Y148937D01*
X185439Y148428D01*
X185829Y148038D01*
X186338Y147827D01*
X186890D01*
X187399Y148038D01*
X187789Y148428D01*
X188000Y148937D01*
Y149488D01*
X187789Y149998D01*
X187399Y150387D01*
X186890Y150598D01*
D02*
G37*
G36*
X165236D02*
X164685D01*
X164176Y150387D01*
X163786Y149998D01*
X163575Y149488D01*
Y148937D01*
X163786Y148428D01*
X164176Y148038D01*
X164685Y147827D01*
X165236D01*
X165746Y148038D01*
X166136Y148428D01*
X166346Y148937D01*
Y149488D01*
X166136Y149998D01*
X165746Y150387D01*
X165236Y150598D01*
D02*
G37*
G36*
X143583D02*
X143031D01*
X142522Y150387D01*
X142132Y149998D01*
X141921Y149488D01*
Y148937D01*
X142132Y148428D01*
X142522Y148038D01*
X143031Y147827D01*
X143583D01*
X144092Y148038D01*
X144482Y148428D01*
X144693Y148937D01*
Y149488D01*
X144482Y149998D01*
X144092Y150387D01*
X143583Y150598D01*
D02*
G37*
G36*
X121929D02*
X121378D01*
X120869Y150387D01*
X120479Y149998D01*
X120268Y149488D01*
Y148937D01*
X120479Y148428D01*
X120869Y148038D01*
X121378Y147827D01*
X121929D01*
X122439Y148038D01*
X122828Y148428D01*
X123039Y148937D01*
Y149488D01*
X122828Y149998D01*
X122439Y150387D01*
X121929Y150598D01*
D02*
G37*
G36*
X435964Y145972D02*
X435295D01*
X434678Y145717D01*
X434272Y145311D01*
X112185D01*
X111779Y145717D01*
X111161Y145972D01*
X110492D01*
X109874Y145717D01*
X109402Y145244D01*
X109146Y144626D01*
Y143957D01*
X109402Y143339D01*
X109874Y142866D01*
X110492Y142610D01*
X111161D01*
X111779Y142866D01*
X112185Y143272D01*
X124605D01*
X124796Y142810D01*
X123885Y141899D01*
X123664Y141568D01*
X123587Y141178D01*
Y131496D01*
X123664Y131106D01*
X123885Y130775D01*
X124870Y129791D01*
X125200Y129570D01*
X125591Y129492D01*
X126075D01*
Y127453D01*
Y123516D01*
Y119579D01*
Y116374D01*
X124438D01*
X123335Y117477D01*
Y118051D01*
X123079Y118669D01*
X122606Y119142D01*
X121988Y119398D01*
X121319D01*
X120701Y119142D01*
X120228Y118669D01*
X119972Y118051D01*
Y117382D01*
X120228Y116764D01*
X120701Y116291D01*
X121319Y116035D01*
X121893D01*
X123295Y114633D01*
X123626Y114412D01*
X124016Y114335D01*
X125721D01*
X126075Y113981D01*
X126075Y112886D01*
X125598Y112831D01*
X122076D01*
X112508Y122399D01*
Y122972D01*
X112252Y123590D01*
X111779Y124063D01*
X111161Y124319D01*
X110492D01*
X109874Y124063D01*
X109402Y123590D01*
X109146Y122972D01*
Y122303D01*
X109402Y121686D01*
X109874Y121213D01*
X110492Y120957D01*
X111066D01*
X120933Y111090D01*
X121263Y110869D01*
X121653Y110791D01*
X145276D01*
X145666Y110869D01*
X145996Y111090D01*
X156525Y121618D01*
X434272D01*
X434678Y121213D01*
X435295Y120957D01*
X435964D01*
X436582Y121213D01*
X437055Y121686D01*
X437311Y122303D01*
Y122972D01*
X437055Y123590D01*
X436582Y124063D01*
X435964Y124319D01*
X435295D01*
X434678Y124063D01*
X434272Y123657D01*
X156102D01*
X155712Y123580D01*
X155381Y123359D01*
X144853Y112831D01*
X130308D01*
X129831Y112886D01*
X129831Y113331D01*
Y114728D01*
X131193D01*
Y114657D01*
X134949D01*
Y116626D01*
Y120634D01*
X141484D01*
X141548Y120478D01*
X142132Y119895D01*
X142894Y119579D01*
X142974D01*
X143031Y119102D01*
X142522Y118891D01*
X142132Y118501D01*
X141921Y117992D01*
Y117441D01*
X142132Y116931D01*
X142522Y116542D01*
X143031Y116331D01*
X143583D01*
X144092Y116542D01*
X144482Y116931D01*
X144693Y117441D01*
Y117992D01*
X144482Y118501D01*
X144092Y118891D01*
X143583Y119102D01*
X143640Y119579D01*
X143720D01*
X144482Y119895D01*
X145066Y120478D01*
X145382Y121241D01*
Y122066D01*
X145066Y122829D01*
X144482Y123413D01*
X143720Y123728D01*
X142894D01*
X142132Y123413D01*
X141548Y122829D01*
X141484Y122673D01*
X137618D01*
X137410Y123173D01*
X138808Y124571D01*
X145276D01*
X145666Y124649D01*
X145997Y124870D01*
X147680Y126553D01*
X148122Y126370D01*
Y126370D01*
X153059D01*
Y132685D01*
X148122D01*
Y129879D01*
X145126Y126883D01*
X145069Y126905D01*
X144693Y127283D01*
Y127835D01*
X144482Y128344D01*
X144092Y128734D01*
X143583Y128945D01*
X143031D01*
X142522Y128734D01*
X142132Y128344D01*
X141921Y127835D01*
Y127283D01*
X141993Y127110D01*
X141659Y126610D01*
X138386D01*
X137996Y126532D01*
X137665Y126312D01*
X135995Y124642D01*
X134949D01*
Y126681D01*
X131193D01*
Y123488D01*
X130729Y123207D01*
X130693Y123207D01*
X130331Y123280D01*
X129831D01*
Y127453D01*
Y131839D01*
X130331D01*
X130693Y131911D01*
X130729Y131912D01*
X131193Y131630D01*
Y128437D01*
X134949D01*
Y132445D01*
X136417D01*
X136688Y132499D01*
X136989Y132374D01*
X137814D01*
X138577Y132690D01*
X139161Y133274D01*
X139476Y134036D01*
Y134862D01*
X139161Y135624D01*
X138577Y136208D01*
X137814Y136524D01*
X136989D01*
X136226Y136208D01*
X135643Y135624D01*
X135449Y135156D01*
X134949Y135256D01*
Y138350D01*
X141949D01*
X142355Y137945D01*
X142973Y137689D01*
X143641D01*
X144259Y137945D01*
X144732Y138418D01*
X144988Y139036D01*
Y139705D01*
X144732Y140322D01*
X144259Y140795D01*
X143641Y141051D01*
X142973D01*
X142355Y140795D01*
X141949Y140390D01*
X134949D01*
Y140461D01*
X131193D01*
Y140390D01*
X129831D01*
Y141713D01*
X144837D01*
X148122Y138428D01*
Y134244D01*
X153059D01*
Y140559D01*
X148875D01*
X146624Y142810D01*
X146816Y143272D01*
X434272D01*
X434678Y142866D01*
X435295Y142610D01*
X435964D01*
X436582Y142866D01*
X437055Y143339D01*
X437311Y143957D01*
Y144626D01*
X437055Y145244D01*
X436582Y145717D01*
X435964Y145972D01*
D02*
G37*
G36*
X449319Y147153D02*
X443595D01*
Y141429D01*
X449319D01*
Y147153D01*
D02*
G37*
G36*
X165236Y140756D02*
X164685D01*
X164176Y140545D01*
X163786Y140155D01*
X163575Y139646D01*
Y139426D01*
X162570Y138421D01*
X160146D01*
Y140559D01*
X155209D01*
Y134244D01*
X156658D01*
Y132685D01*
X155209D01*
Y126370D01*
X160146D01*
Y132685D01*
X158697D01*
Y134244D01*
X160146D01*
Y136382D01*
X162992D01*
X163382Y136460D01*
X163713Y136681D01*
X165017Y137984D01*
X165236D01*
X165746Y138195D01*
X166136Y138585D01*
X166346Y139094D01*
Y139646D01*
X166136Y140155D01*
X165746Y140545D01*
X165236Y140756D01*
D02*
G37*
G36*
X446732D02*
X446181D01*
X445672Y140545D01*
X445282Y140155D01*
X445071Y139646D01*
Y139094D01*
X445282Y138585D01*
X445672Y138195D01*
X446181Y137984D01*
X446732D01*
X447242Y138195D01*
X447632Y138585D01*
X447843Y139094D01*
Y139646D01*
X447632Y140155D01*
X447242Y140545D01*
X446732Y140756D01*
D02*
G37*
G36*
X425079D02*
X424528D01*
X424018Y140545D01*
X423628Y140155D01*
X423417Y139646D01*
Y139094D01*
X423628Y138585D01*
X424018Y138195D01*
X424528Y137984D01*
X425079D01*
X425588Y138195D01*
X425978Y138585D01*
X426189Y139094D01*
Y139646D01*
X425978Y140155D01*
X425588Y140545D01*
X425079Y140756D01*
D02*
G37*
G36*
X403425D02*
X402874D01*
X402365Y140545D01*
X401975Y140155D01*
X401764Y139646D01*
Y139094D01*
X401975Y138585D01*
X402365Y138195D01*
X402874Y137984D01*
X403425D01*
X403935Y138195D01*
X404324Y138585D01*
X404535Y139094D01*
Y139646D01*
X404324Y140155D01*
X403935Y140545D01*
X403425Y140756D01*
D02*
G37*
G36*
X381772D02*
X381220D01*
X380711Y140545D01*
X380321Y140155D01*
X380110Y139646D01*
Y139094D01*
X380321Y138585D01*
X380711Y138195D01*
X381220Y137984D01*
X381772D01*
X382281Y138195D01*
X382671Y138585D01*
X382882Y139094D01*
Y139646D01*
X382671Y140155D01*
X382281Y140545D01*
X381772Y140756D01*
D02*
G37*
G36*
X360118D02*
X359567D01*
X359057Y140545D01*
X358668Y140155D01*
X358457Y139646D01*
Y139094D01*
X358668Y138585D01*
X359057Y138195D01*
X359567Y137984D01*
X360118D01*
X360628Y138195D01*
X361017Y138585D01*
X361228Y139094D01*
Y139646D01*
X361017Y140155D01*
X360628Y140545D01*
X360118Y140756D01*
D02*
G37*
G36*
X338465D02*
X337913D01*
X337404Y140545D01*
X337014Y140155D01*
X336803Y139646D01*
Y139094D01*
X337014Y138585D01*
X337404Y138195D01*
X337913Y137984D01*
X338465D01*
X338974Y138195D01*
X339364Y138585D01*
X339575Y139094D01*
Y139646D01*
X339364Y140155D01*
X338974Y140545D01*
X338465Y140756D01*
D02*
G37*
G36*
X316811D02*
X316260D01*
X315750Y140545D01*
X315361Y140155D01*
X315150Y139646D01*
Y139094D01*
X315361Y138585D01*
X315750Y138195D01*
X316260Y137984D01*
X316811D01*
X317320Y138195D01*
X317710Y138585D01*
X317921Y139094D01*
Y139646D01*
X317710Y140155D01*
X317320Y140545D01*
X316811Y140756D01*
D02*
G37*
G36*
X295158D02*
X294606D01*
X294097Y140545D01*
X293707Y140155D01*
X293496Y139646D01*
Y139094D01*
X293707Y138585D01*
X294097Y138195D01*
X294606Y137984D01*
X295158D01*
X295667Y138195D01*
X296057Y138585D01*
X296268Y139094D01*
Y139646D01*
X296057Y140155D01*
X295667Y140545D01*
X295158Y140756D01*
D02*
G37*
G36*
X273504D02*
X272953D01*
X272443Y140545D01*
X272054Y140155D01*
X271843Y139646D01*
Y139094D01*
X272054Y138585D01*
X272443Y138195D01*
X272953Y137984D01*
X273504D01*
X274013Y138195D01*
X274403Y138585D01*
X274614Y139094D01*
Y139646D01*
X274403Y140155D01*
X274013Y140545D01*
X273504Y140756D01*
D02*
G37*
G36*
X251851D02*
X251299D01*
X250790Y140545D01*
X250400Y140155D01*
X250189Y139646D01*
Y139094D01*
X250400Y138585D01*
X250790Y138195D01*
X251299Y137984D01*
X251851D01*
X252360Y138195D01*
X252750Y138585D01*
X252961Y139094D01*
Y139646D01*
X252750Y140155D01*
X252360Y140545D01*
X251851Y140756D01*
D02*
G37*
G36*
X230197D02*
X229646D01*
X229136Y140545D01*
X228746Y140155D01*
X228535Y139646D01*
Y139094D01*
X228746Y138585D01*
X229136Y138195D01*
X229646Y137984D01*
X230197D01*
X230706Y138195D01*
X231096Y138585D01*
X231307Y139094D01*
Y139646D01*
X231096Y140155D01*
X230706Y140545D01*
X230197Y140756D01*
D02*
G37*
G36*
X208543D02*
X207992D01*
X207483Y140545D01*
X207093Y140155D01*
X206882Y139646D01*
Y139094D01*
X207093Y138585D01*
X207483Y138195D01*
X207992Y137984D01*
X208543D01*
X209053Y138195D01*
X209442Y138585D01*
X209653Y139094D01*
Y139646D01*
X209442Y140155D01*
X209053Y140545D01*
X208543Y140756D01*
D02*
G37*
G36*
X186890D02*
X186338D01*
X185829Y140545D01*
X185439Y140155D01*
X185228Y139646D01*
Y139094D01*
X185439Y138585D01*
X185829Y138195D01*
X186338Y137984D01*
X186890D01*
X187399Y138195D01*
X187789Y138585D01*
X188000Y139094D01*
Y139646D01*
X187789Y140155D01*
X187399Y140545D01*
X186890Y140756D01*
D02*
G37*
G36*
X121929D02*
X121378D01*
X120869Y140545D01*
X120479Y140155D01*
X120268Y139646D01*
Y139094D01*
X120479Y138585D01*
X120869Y138195D01*
X121378Y137984D01*
X121929D01*
X122439Y138195D01*
X122828Y138585D01*
X123039Y139094D01*
Y139646D01*
X122828Y140155D01*
X122439Y140545D01*
X121929Y140756D01*
D02*
G37*
G36*
X109193Y135146D02*
X108524D01*
X107906Y134890D01*
X107433Y134417D01*
X107177Y133799D01*
Y133130D01*
X107433Y132512D01*
X107906Y132039D01*
X108524Y131783D01*
X109193D01*
X109810Y132039D01*
X110283Y132512D01*
X110539Y133130D01*
Y133799D01*
X110283Y134417D01*
X109810Y134890D01*
X109193Y135146D01*
D02*
G37*
G36*
X446732Y128945D02*
X446181D01*
X445672Y128734D01*
X445282Y128344D01*
X445071Y127835D01*
Y127283D01*
X445282Y126774D01*
X445672Y126384D01*
X446181Y126173D01*
X446732D01*
X447242Y126384D01*
X447632Y126774D01*
X447843Y127283D01*
Y127835D01*
X447632Y128344D01*
X447242Y128734D01*
X446732Y128945D01*
D02*
G37*
G36*
X425079D02*
X424528D01*
X424018Y128734D01*
X423628Y128344D01*
X423417Y127835D01*
Y127283D01*
X423628Y126774D01*
X424018Y126384D01*
X424528Y126173D01*
X425079D01*
X425588Y126384D01*
X425978Y126774D01*
X426189Y127283D01*
Y127835D01*
X425978Y128344D01*
X425588Y128734D01*
X425079Y128945D01*
D02*
G37*
G36*
X403425D02*
X402874D01*
X402365Y128734D01*
X401975Y128344D01*
X401764Y127835D01*
Y127283D01*
X401975Y126774D01*
X402365Y126384D01*
X402874Y126173D01*
X403425D01*
X403935Y126384D01*
X404324Y126774D01*
X404535Y127283D01*
Y127835D01*
X404324Y128344D01*
X403935Y128734D01*
X403425Y128945D01*
D02*
G37*
G36*
X381772D02*
X381220D01*
X380711Y128734D01*
X380321Y128344D01*
X380110Y127835D01*
Y127283D01*
X380321Y126774D01*
X380711Y126384D01*
X381220Y126173D01*
X381772D01*
X382281Y126384D01*
X382671Y126774D01*
X382882Y127283D01*
Y127835D01*
X382671Y128344D01*
X382281Y128734D01*
X381772Y128945D01*
D02*
G37*
G36*
X360118D02*
X359567D01*
X359057Y128734D01*
X358668Y128344D01*
X358457Y127835D01*
Y127283D01*
X358668Y126774D01*
X359057Y126384D01*
X359567Y126173D01*
X360118D01*
X360628Y126384D01*
X361017Y126774D01*
X361228Y127283D01*
Y127835D01*
X361017Y128344D01*
X360628Y128734D01*
X360118Y128945D01*
D02*
G37*
G36*
X338465D02*
X337913D01*
X337404Y128734D01*
X337014Y128344D01*
X336803Y127835D01*
Y127283D01*
X337014Y126774D01*
X337404Y126384D01*
X337913Y126173D01*
X338465D01*
X338974Y126384D01*
X339364Y126774D01*
X339575Y127283D01*
Y127835D01*
X339364Y128344D01*
X338974Y128734D01*
X338465Y128945D01*
D02*
G37*
G36*
X316811D02*
X316260D01*
X315750Y128734D01*
X315361Y128344D01*
X315150Y127835D01*
Y127283D01*
X315361Y126774D01*
X315750Y126384D01*
X316260Y126173D01*
X316811D01*
X317320Y126384D01*
X317710Y126774D01*
X317921Y127283D01*
Y127835D01*
X317710Y128344D01*
X317320Y128734D01*
X316811Y128945D01*
D02*
G37*
G36*
X295158D02*
X294606D01*
X294097Y128734D01*
X293707Y128344D01*
X293496Y127835D01*
Y127283D01*
X293707Y126774D01*
X294097Y126384D01*
X294606Y126173D01*
X295158D01*
X295667Y126384D01*
X296057Y126774D01*
X296268Y127283D01*
Y127835D01*
X296057Y128344D01*
X295667Y128734D01*
X295158Y128945D01*
D02*
G37*
G36*
X273504D02*
X272953D01*
X272443Y128734D01*
X272054Y128344D01*
X271843Y127835D01*
Y127283D01*
X272054Y126774D01*
X272443Y126384D01*
X272953Y126173D01*
X273504D01*
X274013Y126384D01*
X274403Y126774D01*
X274614Y127283D01*
Y127835D01*
X274403Y128344D01*
X274013Y128734D01*
X273504Y128945D01*
D02*
G37*
G36*
X251851D02*
X251299D01*
X250790Y128734D01*
X250400Y128344D01*
X250189Y127835D01*
Y127283D01*
X250400Y126774D01*
X250790Y126384D01*
X251299Y126173D01*
X251851D01*
X252360Y126384D01*
X252750Y126774D01*
X252961Y127283D01*
Y127835D01*
X252750Y128344D01*
X252360Y128734D01*
X251851Y128945D01*
D02*
G37*
G36*
X230197D02*
X229646D01*
X229136Y128734D01*
X228746Y128344D01*
X228535Y127835D01*
Y127283D01*
X228746Y126774D01*
X229136Y126384D01*
X229646Y126173D01*
X230197D01*
X230706Y126384D01*
X231096Y126774D01*
X231307Y127283D01*
Y127835D01*
X231096Y128344D01*
X230706Y128734D01*
X230197Y128945D01*
D02*
G37*
G36*
X208543D02*
X207992D01*
X207483Y128734D01*
X207093Y128344D01*
X206882Y127835D01*
Y127283D01*
X207093Y126774D01*
X207483Y126384D01*
X207992Y126173D01*
X208543D01*
X209053Y126384D01*
X209442Y126774D01*
X209653Y127283D01*
Y127835D01*
X209442Y128344D01*
X209053Y128734D01*
X208543Y128945D01*
D02*
G37*
G36*
X186890D02*
X186338D01*
X185829Y128734D01*
X185439Y128344D01*
X185228Y127835D01*
Y127283D01*
X185439Y126774D01*
X185829Y126384D01*
X186338Y126173D01*
X186890D01*
X187399Y126384D01*
X187789Y126774D01*
X188000Y127283D01*
Y127835D01*
X187789Y128344D01*
X187399Y128734D01*
X186890Y128945D01*
D02*
G37*
G36*
X165236D02*
X164685D01*
X164176Y128734D01*
X163786Y128344D01*
X163575Y127835D01*
Y127283D01*
X163786Y126774D01*
X164176Y126384D01*
X164685Y126173D01*
X165236D01*
X165746Y126384D01*
X166136Y126774D01*
X166346Y127283D01*
Y127835D01*
X166136Y128344D01*
X165746Y128734D01*
X165236Y128945D01*
D02*
G37*
G36*
X121929D02*
X121378D01*
X120869Y128734D01*
X120479Y128344D01*
X120268Y127835D01*
Y127283D01*
X120479Y126774D01*
X120869Y126384D01*
X121378Y126173D01*
X121929D01*
X122439Y126384D01*
X122828Y126774D01*
X123039Y127283D01*
Y127835D01*
X122828Y128344D01*
X122439Y128734D01*
X121929Y128945D01*
D02*
G37*
G36*
X446732Y119102D02*
X446181D01*
X445672Y118891D01*
X445282Y118501D01*
X445071Y117992D01*
Y117441D01*
X445282Y116931D01*
X445672Y116542D01*
X446181Y116331D01*
X446732D01*
X447242Y116542D01*
X447632Y116931D01*
X447843Y117441D01*
Y117992D01*
X447632Y118501D01*
X447242Y118891D01*
X446732Y119102D01*
D02*
G37*
G36*
X425079D02*
X424528D01*
X424018Y118891D01*
X423628Y118501D01*
X423417Y117992D01*
Y117441D01*
X423628Y116931D01*
X424018Y116542D01*
X424528Y116331D01*
X425079D01*
X425588Y116542D01*
X425978Y116931D01*
X426189Y117441D01*
Y117992D01*
X425978Y118501D01*
X425588Y118891D01*
X425079Y119102D01*
D02*
G37*
G36*
X403425D02*
X402874D01*
X402365Y118891D01*
X401975Y118501D01*
X401764Y117992D01*
Y117441D01*
X401975Y116931D01*
X402365Y116542D01*
X402874Y116331D01*
X403425D01*
X403935Y116542D01*
X404324Y116931D01*
X404535Y117441D01*
Y117992D01*
X404324Y118501D01*
X403935Y118891D01*
X403425Y119102D01*
D02*
G37*
G36*
X381772D02*
X381220D01*
X380711Y118891D01*
X380321Y118501D01*
X380110Y117992D01*
Y117441D01*
X380321Y116931D01*
X380711Y116542D01*
X381220Y116331D01*
X381772D01*
X382281Y116542D01*
X382671Y116931D01*
X382882Y117441D01*
Y117992D01*
X382671Y118501D01*
X382281Y118891D01*
X381772Y119102D01*
D02*
G37*
G36*
X360118D02*
X359567D01*
X359057Y118891D01*
X358668Y118501D01*
X358457Y117992D01*
Y117441D01*
X358668Y116931D01*
X359057Y116542D01*
X359567Y116331D01*
X360118D01*
X360628Y116542D01*
X361017Y116931D01*
X361228Y117441D01*
Y117992D01*
X361017Y118501D01*
X360628Y118891D01*
X360118Y119102D01*
D02*
G37*
G36*
X338465D02*
X337913D01*
X337404Y118891D01*
X337014Y118501D01*
X336803Y117992D01*
Y117441D01*
X337014Y116931D01*
X337404Y116542D01*
X337913Y116331D01*
X338465D01*
X338974Y116542D01*
X339364Y116931D01*
X339575Y117441D01*
Y117992D01*
X339364Y118501D01*
X338974Y118891D01*
X338465Y119102D01*
D02*
G37*
G36*
X316811D02*
X316260D01*
X315750Y118891D01*
X315361Y118501D01*
X315150Y117992D01*
Y117441D01*
X315361Y116931D01*
X315750Y116542D01*
X316260Y116331D01*
X316811D01*
X317320Y116542D01*
X317710Y116931D01*
X317921Y117441D01*
Y117992D01*
X317710Y118501D01*
X317320Y118891D01*
X316811Y119102D01*
D02*
G37*
G36*
X295158D02*
X294606D01*
X294097Y118891D01*
X293707Y118501D01*
X293496Y117992D01*
Y117441D01*
X293707Y116931D01*
X294097Y116542D01*
X294606Y116331D01*
X295158D01*
X295667Y116542D01*
X296057Y116931D01*
X296268Y117441D01*
Y117992D01*
X296057Y118501D01*
X295667Y118891D01*
X295158Y119102D01*
D02*
G37*
G36*
X273504D02*
X272953D01*
X272443Y118891D01*
X272054Y118501D01*
X271843Y117992D01*
Y117441D01*
X272054Y116931D01*
X272443Y116542D01*
X272953Y116331D01*
X273504D01*
X274013Y116542D01*
X274403Y116931D01*
X274614Y117441D01*
Y117992D01*
X274403Y118501D01*
X274013Y118891D01*
X273504Y119102D01*
D02*
G37*
G36*
X251851D02*
X251299D01*
X250790Y118891D01*
X250400Y118501D01*
X250189Y117992D01*
Y117441D01*
X250400Y116931D01*
X250790Y116542D01*
X251299Y116331D01*
X251851D01*
X252360Y116542D01*
X252750Y116931D01*
X252961Y117441D01*
Y117992D01*
X252750Y118501D01*
X252360Y118891D01*
X251851Y119102D01*
D02*
G37*
G36*
X230197D02*
X229646D01*
X229136Y118891D01*
X228746Y118501D01*
X228535Y117992D01*
Y117441D01*
X228746Y116931D01*
X229136Y116542D01*
X229646Y116331D01*
X230197D01*
X230706Y116542D01*
X231096Y116931D01*
X231307Y117441D01*
Y117992D01*
X231096Y118501D01*
X230706Y118891D01*
X230197Y119102D01*
D02*
G37*
G36*
X208543D02*
X207992D01*
X207483Y118891D01*
X207093Y118501D01*
X206882Y117992D01*
Y117441D01*
X207093Y116931D01*
X207483Y116542D01*
X207992Y116331D01*
X208543D01*
X209053Y116542D01*
X209442Y116931D01*
X209653Y117441D01*
Y117992D01*
X209442Y118501D01*
X209053Y118891D01*
X208543Y119102D01*
D02*
G37*
G36*
X186890D02*
X186338D01*
X185829Y118891D01*
X185439Y118501D01*
X185228Y117992D01*
Y117441D01*
X185439Y116931D01*
X185829Y116542D01*
X186338Y116331D01*
X186890D01*
X187399Y116542D01*
X187789Y116931D01*
X188000Y117441D01*
Y117992D01*
X187789Y118501D01*
X187399Y118891D01*
X186890Y119102D01*
D02*
G37*
G36*
X165236D02*
X164685D01*
X164176Y118891D01*
X163786Y118501D01*
X163575Y117992D01*
Y117441D01*
X163786Y116931D01*
X164176Y116542D01*
X164685Y116331D01*
X165236D01*
X165746Y116542D01*
X166136Y116931D01*
X166346Y117441D01*
Y117992D01*
X166136Y118501D01*
X165746Y118891D01*
X165236Y119102D01*
D02*
G37*
G36*
X109193Y113492D02*
X108524D01*
X107906Y113236D01*
X107433Y112763D01*
X107177Y112145D01*
Y111477D01*
X107433Y110859D01*
X107906Y110386D01*
X108524Y110130D01*
X109193D01*
X109810Y110386D01*
X110283Y110859D01*
X110539Y111477D01*
Y112145D01*
X110283Y112763D01*
X109810Y113236D01*
X109193Y113492D01*
D02*
G37*
G36*
X446732Y107291D02*
X446181D01*
X445672Y107080D01*
X445282Y106691D01*
X445071Y106181D01*
Y105630D01*
X445282Y105121D01*
X445672Y104731D01*
X446181Y104520D01*
X446732D01*
X447242Y104731D01*
X447632Y105121D01*
X447843Y105630D01*
Y106181D01*
X447632Y106691D01*
X447242Y107080D01*
X446732Y107291D01*
D02*
G37*
G36*
X425079D02*
X424528D01*
X424018Y107080D01*
X423628Y106691D01*
X423417Y106181D01*
Y105630D01*
X423628Y105121D01*
X424018Y104731D01*
X424528Y104520D01*
X425079D01*
X425588Y104731D01*
X425978Y105121D01*
X426189Y105630D01*
Y106181D01*
X425978Y106691D01*
X425588Y107080D01*
X425079Y107291D01*
D02*
G37*
G36*
X403425D02*
X402874D01*
X402365Y107080D01*
X401975Y106691D01*
X401764Y106181D01*
Y105630D01*
X401975Y105121D01*
X402365Y104731D01*
X402874Y104520D01*
X403425D01*
X403935Y104731D01*
X404324Y105121D01*
X404535Y105630D01*
Y106181D01*
X404324Y106691D01*
X403935Y107080D01*
X403425Y107291D01*
D02*
G37*
G36*
X381772D02*
X381220D01*
X380711Y107080D01*
X380321Y106691D01*
X380110Y106181D01*
Y105630D01*
X380321Y105121D01*
X380711Y104731D01*
X381220Y104520D01*
X381772D01*
X382281Y104731D01*
X382671Y105121D01*
X382882Y105630D01*
Y106181D01*
X382671Y106691D01*
X382281Y107080D01*
X381772Y107291D01*
D02*
G37*
G36*
X360118D02*
X359567D01*
X359057Y107080D01*
X358668Y106691D01*
X358457Y106181D01*
Y105630D01*
X358668Y105121D01*
X359057Y104731D01*
X359567Y104520D01*
X360118D01*
X360628Y104731D01*
X361017Y105121D01*
X361228Y105630D01*
Y106181D01*
X361017Y106691D01*
X360628Y107080D01*
X360118Y107291D01*
D02*
G37*
G36*
X338465D02*
X337913D01*
X337404Y107080D01*
X337014Y106691D01*
X336803Y106181D01*
Y105630D01*
X337014Y105121D01*
X337404Y104731D01*
X337913Y104520D01*
X338465D01*
X338974Y104731D01*
X339364Y105121D01*
X339575Y105630D01*
Y106181D01*
X339364Y106691D01*
X338974Y107080D01*
X338465Y107291D01*
D02*
G37*
G36*
X316811D02*
X316260D01*
X315750Y107080D01*
X315361Y106691D01*
X315150Y106181D01*
Y105630D01*
X315361Y105121D01*
X315750Y104731D01*
X316260Y104520D01*
X316811D01*
X317320Y104731D01*
X317710Y105121D01*
X317921Y105630D01*
Y106181D01*
X317710Y106691D01*
X317320Y107080D01*
X316811Y107291D01*
D02*
G37*
G36*
X295158D02*
X294606D01*
X294097Y107080D01*
X293707Y106691D01*
X293496Y106181D01*
Y105630D01*
X293707Y105121D01*
X294097Y104731D01*
X294606Y104520D01*
X295158D01*
X295667Y104731D01*
X296057Y105121D01*
X296268Y105630D01*
Y106181D01*
X296057Y106691D01*
X295667Y107080D01*
X295158Y107291D01*
D02*
G37*
G36*
X273504D02*
X272953D01*
X272443Y107080D01*
X272054Y106691D01*
X271843Y106181D01*
Y105630D01*
X272054Y105121D01*
X272443Y104731D01*
X272953Y104520D01*
X273504D01*
X274013Y104731D01*
X274403Y105121D01*
X274614Y105630D01*
Y106181D01*
X274403Y106691D01*
X274013Y107080D01*
X273504Y107291D01*
D02*
G37*
G36*
X251851D02*
X251299D01*
X250790Y107080D01*
X250400Y106691D01*
X250189Y106181D01*
Y105630D01*
X250400Y105121D01*
X250790Y104731D01*
X251299Y104520D01*
X251851D01*
X252360Y104731D01*
X252750Y105121D01*
X252961Y105630D01*
Y106181D01*
X252750Y106691D01*
X252360Y107080D01*
X251851Y107291D01*
D02*
G37*
G36*
X230197D02*
X229646D01*
X229136Y107080D01*
X228746Y106691D01*
X228535Y106181D01*
Y105630D01*
X228746Y105121D01*
X229136Y104731D01*
X229646Y104520D01*
X230197D01*
X230706Y104731D01*
X231096Y105121D01*
X231307Y105630D01*
Y106181D01*
X231096Y106691D01*
X230706Y107080D01*
X230197Y107291D01*
D02*
G37*
G36*
X208543D02*
X207992D01*
X207483Y107080D01*
X207093Y106691D01*
X206882Y106181D01*
Y105630D01*
X207093Y105121D01*
X207483Y104731D01*
X207992Y104520D01*
X208543D01*
X209053Y104731D01*
X209442Y105121D01*
X209653Y105630D01*
Y106181D01*
X209442Y106691D01*
X209053Y107080D01*
X208543Y107291D01*
D02*
G37*
G36*
X186890D02*
X186338D01*
X185829Y107080D01*
X185439Y106691D01*
X185228Y106181D01*
Y105630D01*
X185439Y105121D01*
X185829Y104731D01*
X186338Y104520D01*
X186890D01*
X187399Y104731D01*
X187789Y105121D01*
X188000Y105630D01*
Y106181D01*
X187789Y106691D01*
X187399Y107080D01*
X186890Y107291D01*
D02*
G37*
G36*
X165236D02*
X164685D01*
X164176Y107080D01*
X163786Y106691D01*
X163575Y106181D01*
Y105630D01*
X163786Y105121D01*
X164176Y104731D01*
X164685Y104520D01*
X165236D01*
X165746Y104731D01*
X166136Y105121D01*
X166346Y105630D01*
Y106181D01*
X166136Y106691D01*
X165746Y107080D01*
X165236Y107291D01*
D02*
G37*
G36*
X143583D02*
X143031D01*
X142522Y107080D01*
X142132Y106691D01*
X141921Y106181D01*
Y105630D01*
X142132Y105121D01*
X142522Y104731D01*
X143031Y104520D01*
X143583D01*
X144092Y104731D01*
X144482Y105121D01*
X144693Y105630D01*
Y106181D01*
X144482Y106691D01*
X144092Y107080D01*
X143583Y107291D01*
D02*
G37*
G36*
X121929D02*
X121378D01*
X120869Y107080D01*
X120479Y106691D01*
X120268Y106181D01*
Y105630D01*
X120479Y105121D01*
X120869Y104731D01*
X121378Y104520D01*
X121929D01*
X122439Y104731D01*
X122828Y105121D01*
X123039Y105630D01*
Y106181D01*
X122828Y106691D01*
X122439Y107080D01*
X121929Y107291D01*
D02*
G37*
G36*
X449319Y125500D02*
X443595D01*
Y121218D01*
X441799Y119422D01*
X441578Y119091D01*
X441500Y118701D01*
Y105861D01*
X441345Y105706D01*
X441134Y105197D01*
Y104646D01*
X441345Y104136D01*
X441735Y103746D01*
X442244Y103535D01*
X442795D01*
X443305Y103746D01*
X443694Y104136D01*
X443905Y104646D01*
Y105197D01*
X443694Y105706D01*
X443539Y105861D01*
Y118279D01*
X445036Y119776D01*
X449319D01*
Y125500D01*
D02*
G37*
%LPD*%
D10*
X121653Y117717D02*
X124016Y115354D01*
X127953D01*
X143307Y139370D02*
X143307Y139370D01*
X133071Y139370D02*
X143307D01*
X136417Y133465D02*
X137402Y134449D01*
X133071Y133465D02*
X136417D01*
X143307Y121654D02*
X143307Y121653D01*
X133071Y121654D02*
X143307D01*
X127953Y139764D02*
X128346Y139370D01*
X133071D01*
X127953Y115354D02*
X128346Y115748D01*
X133071D01*
X162992Y137402D02*
X164961Y139370D01*
X157677Y137402D02*
X162992D01*
X157677Y129528D02*
X157677Y129528D01*
Y137402D01*
X145260Y142732D02*
X150591Y137402D01*
X126161Y142732D02*
X145260D01*
X124606Y141178D02*
X126161Y142732D01*
X124606Y131496D02*
Y141178D01*
Y131496D02*
X125591Y130512D01*
X127953D01*
Y132480D02*
X128331Y132858D01*
X130331D01*
X130937Y133465D01*
X133071D01*
X149213Y129528D02*
X150591D01*
X145276Y125591D02*
X149213Y129528D01*
X138386Y125591D02*
X145276D01*
X136417Y123622D02*
X138386Y125591D01*
X133071Y123622D02*
X136417D01*
X127953Y122638D02*
X128331Y122260D01*
X130331D01*
X130937Y121654D01*
X133071D01*
X156102Y122638D02*
X435630D01*
X145276Y111811D02*
X156102Y122638D01*
X121653Y111811D02*
X145276D01*
X110827Y122638D02*
X121653Y111811D01*
X110827Y252559D02*
X435630D01*
X108858Y263386D02*
X435630D01*
X446457Y252559D01*
X442520Y104921D02*
Y118701D01*
X446457Y122638D01*
X110827Y230906D02*
X435630D01*
X110827Y209252D02*
X435630D01*
X110827Y187598D02*
X435630D01*
X110827Y165945D02*
X435630D01*
X110827Y144291D02*
X435630D01*
D22*
X446457Y230906D02*
D03*
Y209252D02*
D03*
Y252559D02*
D03*
Y144291D02*
D03*
Y165945D02*
D03*
Y122638D02*
D03*
D23*
X137402Y134449D02*
D03*
X143307Y121654D02*
D03*
D24*
X108858Y263386D02*
D03*
X110827Y122638D02*
D03*
Y144291D02*
D03*
Y165945D02*
D03*
Y187598D02*
D03*
Y209252D02*
D03*
Y230906D02*
D03*
Y252559D02*
D03*
X435630Y122638D02*
D03*
Y144291D02*
D03*
Y165945D02*
D03*
Y187598D02*
D03*
Y209252D02*
D03*
Y230906D02*
D03*
Y252559D02*
D03*
X108858Y111811D02*
D03*
Y133465D02*
D03*
Y155118D02*
D03*
Y176772D02*
D03*
Y198425D02*
D03*
Y220079D02*
D03*
Y241732D02*
D03*
X121653Y117717D02*
D03*
X143307Y139370D02*
D03*
D25*
X442520Y104921D02*
D03*
X121653Y105905D02*
D03*
X143307Y117717D02*
D03*
Y105905D02*
D03*
X186614D02*
D03*
Y117717D02*
D03*
X164961D02*
D03*
Y105905D02*
D03*
X229921D02*
D03*
Y117717D02*
D03*
X251575D02*
D03*
Y105905D02*
D03*
X208268D02*
D03*
Y117717D02*
D03*
X294882Y105905D02*
D03*
Y117717D02*
D03*
X316535D02*
D03*
Y105905D02*
D03*
X273228D02*
D03*
Y117717D02*
D03*
X359842Y105905D02*
D03*
Y117717D02*
D03*
X381496D02*
D03*
Y105905D02*
D03*
X338189D02*
D03*
Y117717D02*
D03*
X424803Y105905D02*
D03*
Y117717D02*
D03*
X446457D02*
D03*
Y105905D02*
D03*
X403150D02*
D03*
Y117717D02*
D03*
X121653Y127559D02*
D03*
Y139370D02*
D03*
X143307Y127559D02*
D03*
X186614D02*
D03*
Y139370D02*
D03*
X164961D02*
D03*
Y127559D02*
D03*
X229921D02*
D03*
Y139370D02*
D03*
X251575D02*
D03*
Y127559D02*
D03*
X208268D02*
D03*
Y139370D02*
D03*
X294882Y127559D02*
D03*
Y139370D02*
D03*
X316535D02*
D03*
Y127559D02*
D03*
X273228D02*
D03*
Y139370D02*
D03*
X359842Y127559D02*
D03*
Y139370D02*
D03*
X381496D02*
D03*
Y127559D02*
D03*
X338189D02*
D03*
Y139370D02*
D03*
X424803Y127559D02*
D03*
Y139370D02*
D03*
X446457D02*
D03*
Y127559D02*
D03*
X403150D02*
D03*
Y139370D02*
D03*
X121653Y149213D02*
D03*
Y161024D02*
D03*
X143307D02*
D03*
Y149213D02*
D03*
X186614D02*
D03*
Y161024D02*
D03*
X164961D02*
D03*
Y149213D02*
D03*
X229921D02*
D03*
Y161024D02*
D03*
X251575D02*
D03*
Y149213D02*
D03*
X208268D02*
D03*
Y161024D02*
D03*
X294882Y149213D02*
D03*
Y161024D02*
D03*
X316535D02*
D03*
Y149213D02*
D03*
X273228D02*
D03*
Y161024D02*
D03*
X359842Y149213D02*
D03*
Y161024D02*
D03*
X381496D02*
D03*
Y149213D02*
D03*
X338189D02*
D03*
Y161024D02*
D03*
X424803Y149213D02*
D03*
Y161024D02*
D03*
X446457D02*
D03*
Y149213D02*
D03*
X403150D02*
D03*
Y161024D02*
D03*
X121653Y170866D02*
D03*
Y182677D02*
D03*
X143307D02*
D03*
Y170866D02*
D03*
X186614D02*
D03*
Y182677D02*
D03*
X164961D02*
D03*
Y170866D02*
D03*
X229921D02*
D03*
Y182677D02*
D03*
X251575D02*
D03*
Y170866D02*
D03*
X208268D02*
D03*
Y182677D02*
D03*
X294882Y170866D02*
D03*
Y182677D02*
D03*
X316535D02*
D03*
Y170866D02*
D03*
X273228D02*
D03*
Y182677D02*
D03*
X359842Y170866D02*
D03*
Y182677D02*
D03*
X381496D02*
D03*
Y170866D02*
D03*
X338189D02*
D03*
Y182677D02*
D03*
X424803Y170866D02*
D03*
Y182677D02*
D03*
X446457D02*
D03*
Y170866D02*
D03*
X403150D02*
D03*
Y182677D02*
D03*
X121653Y192520D02*
D03*
Y204331D02*
D03*
X143307D02*
D03*
Y192520D02*
D03*
X186614D02*
D03*
Y204331D02*
D03*
X164961D02*
D03*
Y192520D02*
D03*
X229921D02*
D03*
Y204331D02*
D03*
X251575D02*
D03*
Y192520D02*
D03*
X208268D02*
D03*
Y204331D02*
D03*
X294882Y192520D02*
D03*
Y204331D02*
D03*
X316535D02*
D03*
Y192520D02*
D03*
X273228D02*
D03*
Y204331D02*
D03*
X359842Y192520D02*
D03*
Y204331D02*
D03*
X381496D02*
D03*
Y192520D02*
D03*
X338189D02*
D03*
Y204331D02*
D03*
X424803Y192520D02*
D03*
Y204331D02*
D03*
X446457D02*
D03*
Y192520D02*
D03*
X403150D02*
D03*
Y204331D02*
D03*
X121653Y214173D02*
D03*
Y225984D02*
D03*
X143307D02*
D03*
Y214173D02*
D03*
X186614D02*
D03*
Y225984D02*
D03*
X164961D02*
D03*
Y214173D02*
D03*
X229921D02*
D03*
Y225984D02*
D03*
X251575D02*
D03*
Y214173D02*
D03*
X208268D02*
D03*
Y225984D02*
D03*
X294882Y214173D02*
D03*
Y225984D02*
D03*
X316535D02*
D03*
Y214173D02*
D03*
X273228D02*
D03*
Y225984D02*
D03*
X359842Y214173D02*
D03*
Y225984D02*
D03*
X381496D02*
D03*
Y214173D02*
D03*
X338189D02*
D03*
Y225984D02*
D03*
X424803Y214173D02*
D03*
Y225984D02*
D03*
X446457D02*
D03*
Y214173D02*
D03*
X403150D02*
D03*
Y225984D02*
D03*
X121653Y235827D02*
D03*
Y247638D02*
D03*
X143307D02*
D03*
Y235827D02*
D03*
X186614D02*
D03*
Y247638D02*
D03*
X164961D02*
D03*
Y235827D02*
D03*
X229921D02*
D03*
Y247638D02*
D03*
X251575D02*
D03*
Y235827D02*
D03*
X208268D02*
D03*
Y247638D02*
D03*
X294882Y235827D02*
D03*
Y247638D02*
D03*
X316535D02*
D03*
Y235827D02*
D03*
X273228D02*
D03*
Y247638D02*
D03*
X359842Y235827D02*
D03*
Y247638D02*
D03*
X381496D02*
D03*
Y235827D02*
D03*
X338189D02*
D03*
Y247638D02*
D03*
X424803Y235827D02*
D03*
Y247638D02*
D03*
X446457D02*
D03*
Y235827D02*
D03*
X403150D02*
D03*
Y247638D02*
D03*
Y269291D02*
D03*
Y257480D02*
D03*
X446457D02*
D03*
Y269291D02*
D03*
X424803D02*
D03*
Y257480D02*
D03*
X338189Y269291D02*
D03*
Y257480D02*
D03*
X381496D02*
D03*
Y269291D02*
D03*
X359842D02*
D03*
Y257480D02*
D03*
X273228Y269291D02*
D03*
Y257480D02*
D03*
X316535D02*
D03*
Y269291D02*
D03*
X294882D02*
D03*
Y257480D02*
D03*
X208268Y269291D02*
D03*
Y257480D02*
D03*
X251575D02*
D03*
Y269291D02*
D03*
X229921D02*
D03*
Y257480D02*
D03*
X164961D02*
D03*
Y269291D02*
D03*
X186614D02*
D03*
Y257480D02*
D03*
X143307D02*
D03*
Y269291D02*
D03*
X121653D02*
D03*
Y257480D02*
D03*
D32*
X133071Y115748D02*
D03*
Y117717D02*
D03*
Y119685D02*
D03*
Y121654D02*
D03*
Y123622D02*
D03*
Y125591D02*
D03*
Y129528D02*
D03*
Y131496D02*
D03*
Y133465D02*
D03*
Y135433D02*
D03*
Y137402D02*
D03*
Y139370D02*
D03*
X127953Y126575D02*
D03*
Y128543D02*
D03*
Y130512D02*
D03*
Y132480D02*
D03*
Y124606D02*
D03*
Y122638D02*
D03*
Y118701D02*
D03*
Y120669D02*
D03*
Y134449D02*
D03*
Y136417D02*
D03*
D33*
Y115354D02*
D03*
Y139764D02*
D03*
D34*
X157677Y137402D02*
D03*
X150591D02*
D03*
X150591Y129528D02*
D03*
X157677D02*
D03*
M02*
