G04*
G04 #@! TF.GenerationSoftware,Altium Limited,CircuitMaker,2.3.0 (3)*
G04*
G04 Layer_Color=15132400*
%FSLAX25Y25*%
%MOIN*%
G70*
G04*
G04 #@! TF.SameCoordinates,2CB11315-EA6C-4568-8D24-B69FFBB62024*
G04*
G04*
G04 #@! TF.FilePolarity,Positive*
G04*
G01*
G75*
%ADD10C,0.01000*%
%ADD11C,0.00394*%
D10*
X399152Y121093D02*
X401120D01*
Y119125D02*
Y121093D01*
X420805D02*
X422774D01*
Y119125D02*
Y121093D01*
X442459D02*
X444427D01*
Y119125D02*
Y121093D01*
X442459Y142747D02*
X444427D01*
Y140778D02*
Y142747D01*
X420805D02*
X422774D01*
Y140778D02*
Y142747D01*
X399152D02*
X401120D01*
Y140778D02*
Y142747D01*
X377498D02*
X379467D01*
Y140778D02*
Y142747D01*
X377498Y121093D02*
X379467D01*
Y119125D02*
Y121093D01*
X355845D02*
X357813D01*
Y119125D02*
Y121093D01*
X355845Y142747D02*
X357813D01*
Y140778D02*
Y142747D01*
X399152Y164400D02*
X401120D01*
Y162432D02*
Y164400D01*
X420805D02*
X422774D01*
Y162432D02*
Y164400D01*
X442459D02*
X444427D01*
Y162432D02*
Y164400D01*
X377498D02*
X379467D01*
Y162432D02*
Y164400D01*
X355845D02*
X357813D01*
Y162432D02*
Y164400D01*
X225923Y121093D02*
X227892D01*
Y119125D02*
Y121093D01*
X247577D02*
X249546D01*
Y119125D02*
Y121093D01*
X269231D02*
X271199D01*
Y119125D02*
Y121093D01*
X290884D02*
X292853D01*
Y119125D02*
Y121093D01*
X312538D02*
X314506D01*
Y119125D02*
Y121093D01*
X334191D02*
X336160D01*
Y119125D02*
Y121093D01*
X334191Y142747D02*
X336160D01*
Y140778D02*
Y142747D01*
X312538D02*
X314506D01*
Y140778D02*
Y142747D01*
X290884D02*
X292853D01*
Y140778D02*
Y142747D01*
X269231D02*
X271199D01*
Y140778D02*
Y142747D01*
X247577D02*
X249546D01*
Y140778D02*
Y142747D01*
X225923D02*
X227892D01*
Y140778D02*
Y142747D01*
X225923Y164400D02*
X227892D01*
Y162432D02*
Y164400D01*
X247577D02*
X249546D01*
Y162432D02*
Y164400D01*
X269231D02*
X271199D01*
Y162432D02*
Y164400D01*
X290884D02*
X292853D01*
Y162432D02*
Y164400D01*
X312538D02*
X314506D01*
Y162432D02*
Y164400D01*
X334191D02*
X336160D01*
Y162432D02*
Y164400D01*
X139309Y142747D02*
X141278D01*
Y140778D02*
Y142747D01*
X182616Y121093D02*
X184585D01*
Y119125D02*
Y121093D01*
X139309D02*
X141278D01*
Y119125D02*
Y121093D01*
X160963D02*
X162931D01*
Y119125D02*
Y121093D01*
X160963Y142747D02*
X162931D01*
Y140778D02*
Y142747D01*
X182616D02*
X184585D01*
Y140778D02*
Y142747D01*
X117656D02*
X119624D01*
Y140778D02*
Y142747D01*
X117656Y121093D02*
X119624D01*
Y119125D02*
Y121093D01*
X204270D02*
X206238D01*
Y119125D02*
Y121093D01*
X204270Y142747D02*
X206238D01*
Y140778D02*
Y142747D01*
X204270Y164400D02*
X206238D01*
Y162432D02*
Y164400D01*
X182616D02*
X184585D01*
Y162432D02*
Y164400D01*
X160963D02*
X162931D01*
Y162432D02*
Y164400D01*
X139309D02*
X141278D01*
Y162432D02*
Y164400D01*
X117656D02*
X119624D01*
Y162432D02*
Y164400D01*
X160963Y186054D02*
X162931D01*
Y184085D02*
Y186054D01*
X139309D02*
X141278D01*
Y184085D02*
Y186054D01*
X117656D02*
X119624D01*
Y184085D02*
Y186054D01*
X117656Y207707D02*
X119624D01*
Y205739D02*
Y207707D01*
X139309D02*
X141278D01*
Y205739D02*
Y207707D01*
X160963D02*
X162931D01*
Y205739D02*
Y207707D01*
X247577Y186054D02*
X249546D01*
Y184085D02*
Y186054D01*
X225923D02*
X227892D01*
Y184085D02*
Y186054D01*
X204270D02*
X206238D01*
Y184085D02*
Y186054D01*
X182616D02*
X184585D01*
Y184085D02*
Y186054D01*
X182616Y207707D02*
X184585D01*
Y205739D02*
Y207707D01*
X204270D02*
X206238D01*
Y205739D02*
Y207707D01*
X225923D02*
X227892D01*
Y205739D02*
Y207707D01*
X247577D02*
X249546D01*
Y205739D02*
Y207707D01*
X334191D02*
X336160D01*
Y205739D02*
Y207707D01*
X312538D02*
X314506D01*
Y205739D02*
Y207707D01*
X290884D02*
X292853D01*
Y205739D02*
Y207707D01*
X269231D02*
X271199D01*
Y205739D02*
Y207707D01*
X269231Y186054D02*
X271199D01*
Y184085D02*
Y186054D01*
X355845D02*
X357813D01*
Y184085D02*
Y186054D01*
X355845Y207707D02*
X357813D01*
Y205739D02*
Y207707D01*
X399152Y186054D02*
X401120D01*
Y184085D02*
Y186054D01*
X377498D02*
X379467D01*
Y184085D02*
Y186054D01*
X377498Y207707D02*
X379467D01*
Y205739D02*
Y207707D01*
X399152D02*
X401120D01*
Y205739D02*
Y207707D01*
X420805D02*
X422774D01*
Y205739D02*
Y207707D01*
X442459D02*
X444427D01*
Y205739D02*
Y207707D01*
X420805Y186054D02*
X422774D01*
Y184085D02*
Y186054D01*
X442459D02*
X444427D01*
Y184085D02*
Y186054D01*
X420805Y229361D02*
X422774D01*
Y227393D02*
Y229361D01*
X399152D02*
X401120D01*
Y227393D02*
Y229361D01*
X377498D02*
X379467D01*
Y227393D02*
Y229361D01*
X377498Y251014D02*
X379467D01*
Y249046D02*
Y251014D01*
X399152D02*
X401120D01*
Y249046D02*
Y251014D01*
X420805D02*
X422774D01*
Y249046D02*
Y251014D01*
X442459D02*
X444427D01*
Y249046D02*
Y251014D01*
X442459Y229361D02*
X444427D01*
Y227393D02*
Y229361D01*
X290884D02*
X292853D01*
Y227393D02*
Y229361D01*
X312538D02*
X314506D01*
Y227393D02*
Y229361D01*
X334191D02*
X336160D01*
Y227393D02*
Y229361D01*
X355845D02*
X357813D01*
Y227393D02*
Y229361D01*
X355845Y251014D02*
X357813D01*
Y249046D02*
Y251014D01*
X334191D02*
X336160D01*
Y249046D02*
Y251014D01*
X312538D02*
X314506D01*
Y249046D02*
Y251014D01*
X290884D02*
X292853D01*
Y249046D02*
Y251014D01*
X269231D02*
X271199D01*
Y249046D02*
Y251014D01*
X247577D02*
X249546D01*
Y249046D02*
Y251014D01*
X225923D02*
X227892D01*
Y249046D02*
Y251014D01*
X204270D02*
X206238D01*
Y249046D02*
Y251014D01*
X204270Y229361D02*
X206238D01*
Y227393D02*
Y229361D01*
X225923D02*
X227892D01*
Y227393D02*
Y229361D01*
X247577D02*
X249546D01*
Y227393D02*
Y229361D01*
X269231D02*
X271199D01*
Y227393D02*
Y229361D01*
X160963Y251014D02*
X162931D01*
Y249046D02*
Y251014D01*
X182616D02*
X184585D01*
Y249046D02*
Y251014D01*
X182616Y229361D02*
X184585D01*
Y227393D02*
Y229361D01*
X160963D02*
X162931D01*
Y227393D02*
Y229361D01*
X139309D02*
X141278D01*
Y227393D02*
Y229361D01*
X117656D02*
X119624D01*
Y227393D02*
Y229361D01*
X139309Y251014D02*
X141278D01*
Y249046D02*
Y251014D01*
X117656D02*
X119624D01*
Y249046D02*
Y251014D01*
X117656Y272668D02*
X119624D01*
Y270700D02*
Y272668D01*
X139309D02*
X141278D01*
Y270700D02*
Y272668D01*
X160963D02*
X162931D01*
Y270700D02*
Y272668D01*
X182616D02*
X184585D01*
Y270700D02*
Y272668D01*
X204270D02*
X206238D01*
Y270700D02*
Y272668D01*
X225923D02*
X227892D01*
Y270700D02*
Y272668D01*
X247577D02*
X249546D01*
Y270700D02*
Y272668D01*
X269231D02*
X271199D01*
Y270700D02*
Y272668D01*
X290884D02*
X292853D01*
Y270700D02*
Y272668D01*
X312538D02*
X314506D01*
Y270700D02*
Y272668D01*
X334191D02*
X336160D01*
Y270700D02*
Y272668D01*
X355845D02*
X357813D01*
Y270700D02*
Y272668D01*
X377498D02*
X379467D01*
Y270700D02*
Y272668D01*
X399152D02*
X401120D01*
Y270700D02*
Y272668D01*
X420805D02*
X422774D01*
Y270700D02*
Y272668D01*
X442459D02*
X444427D01*
Y270700D02*
Y272668D01*
X336160Y184085D02*
Y186054D01*
X334191D02*
X336160D01*
X314506Y184085D02*
Y186054D01*
X312538D02*
X314506D01*
X292853Y184085D02*
Y186054D01*
X290884D02*
X292853D01*
D11*
X434252Y112205D02*
Y111417D01*
X434646D01*
X434777Y111549D01*
Y112073D01*
X434646Y112205D01*
X434252D01*
X435040Y111417D02*
X435302D01*
X435171D01*
Y112205D01*
X435040Y112073D01*
X436220Y111417D02*
X435696D01*
X436220Y111942D01*
Y112073D01*
X436089Y112205D01*
X435827D01*
X435696Y112073D01*
X436483D02*
X436614Y112205D01*
X436876D01*
X437007Y112073D01*
Y111942D01*
X436876Y111811D01*
X437007Y111680D01*
Y111549D01*
X436876Y111417D01*
X436614D01*
X436483Y111549D01*
Y111680D01*
X436614Y111811D01*
X436483Y111942D01*
Y112073D01*
X436614Y111811D02*
X436876D01*
X412599Y112205D02*
Y111417D01*
X412992D01*
X413124Y111549D01*
Y112073D01*
X412992Y112205D01*
X412599D01*
X413386Y111417D02*
X413648D01*
X413517D01*
Y112205D01*
X413386Y112073D01*
X414567Y111417D02*
X414042D01*
X414567Y111942D01*
Y112073D01*
X414435Y112205D01*
X414173D01*
X414042Y112073D01*
X414829Y112205D02*
X415354D01*
Y112073D01*
X414829Y111549D01*
Y111417D01*
X390945Y112205D02*
Y111417D01*
X391339D01*
X391470Y111549D01*
Y112073D01*
X391339Y112205D01*
X390945D01*
X391733Y111417D02*
X391995D01*
X391864D01*
Y112205D01*
X391733Y112073D01*
X392913Y111417D02*
X392388D01*
X392913Y111942D01*
Y112073D01*
X392782Y112205D01*
X392520D01*
X392388Y112073D01*
X393700Y112205D02*
X393438Y112073D01*
X393176Y111811D01*
Y111549D01*
X393307Y111417D01*
X393569D01*
X393700Y111549D01*
Y111680D01*
X393569Y111811D01*
X393176D01*
X369292Y112205D02*
Y111417D01*
X369685D01*
X369817Y111549D01*
Y112073D01*
X369685Y112205D01*
X369292D01*
X370079Y111417D02*
X370341D01*
X370210D01*
Y112205D01*
X370079Y112073D01*
X371260Y111417D02*
X370735D01*
X371260Y111942D01*
Y112073D01*
X371129Y112205D01*
X370866D01*
X370735Y112073D01*
X372047Y112205D02*
X371522D01*
Y111811D01*
X371784Y111942D01*
X371916D01*
X372047Y111811D01*
Y111549D01*
X371916Y111417D01*
X371653D01*
X371522Y111549D01*
X347638Y112205D02*
Y111417D01*
X348032D01*
X348163Y111549D01*
Y112073D01*
X348032Y112205D01*
X347638D01*
X348425Y111417D02*
X348688D01*
X348557D01*
Y112205D01*
X348425Y112073D01*
X349606Y111417D02*
X349081D01*
X349606Y111942D01*
Y112073D01*
X349475Y112205D01*
X349213D01*
X349081Y112073D01*
X350262Y111417D02*
Y112205D01*
X349868Y111811D01*
X350393D01*
X325985Y112205D02*
Y111417D01*
X326378D01*
X326509Y111549D01*
Y112073D01*
X326378Y112205D01*
X325985D01*
X326772Y111417D02*
X327034D01*
X326903D01*
Y112205D01*
X326772Y112073D01*
X327953Y111417D02*
X327428D01*
X327953Y111942D01*
Y112073D01*
X327821Y112205D01*
X327559D01*
X327428Y112073D01*
X328215D02*
X328346Y112205D01*
X328608D01*
X328740Y112073D01*
Y111942D01*
X328608Y111811D01*
X328477D01*
X328608D01*
X328740Y111680D01*
Y111549D01*
X328608Y111417D01*
X328346D01*
X328215Y111549D01*
X304331Y112205D02*
Y111417D01*
X304725D01*
X304856Y111549D01*
Y112073D01*
X304725Y112205D01*
X304331D01*
X305118Y111417D02*
X305381D01*
X305250D01*
Y112205D01*
X305118Y112073D01*
X306299Y111417D02*
X305774D01*
X306299Y111942D01*
Y112073D01*
X306168Y112205D01*
X305906D01*
X305774Y112073D01*
X307086Y111417D02*
X306561D01*
X307086Y111942D01*
Y112073D01*
X306955Y112205D01*
X306693D01*
X306561Y112073D01*
X282809Y112205D02*
Y111417D01*
X283202D01*
X283334Y111549D01*
Y112073D01*
X283202Y112205D01*
X282809D01*
X283596Y111417D02*
X283858D01*
X283727D01*
Y112205D01*
X283596Y112073D01*
X284777Y111417D02*
X284252D01*
X284777Y111942D01*
Y112073D01*
X284646Y112205D01*
X284383D01*
X284252Y112073D01*
X285039Y111417D02*
X285301D01*
X285170D01*
Y112205D01*
X285039Y112073D01*
X261024Y112205D02*
Y111417D01*
X261418D01*
X261549Y111549D01*
Y112073D01*
X261418Y112205D01*
X261024D01*
X261811Y111417D02*
X262074D01*
X261942D01*
Y112205D01*
X261811Y112073D01*
X262992Y111417D02*
X262467D01*
X262992Y111942D01*
Y112073D01*
X262861Y112205D01*
X262598D01*
X262467Y112073D01*
X263254D02*
X263386Y112205D01*
X263648D01*
X263779Y112073D01*
Y111549D01*
X263648Y111417D01*
X263386D01*
X263254Y111549D01*
Y112073D01*
X239436Y112205D02*
Y111417D01*
X239830D01*
X239961Y111549D01*
Y112073D01*
X239830Y112205D01*
X239436D01*
X240223Y111417D02*
X240486D01*
X240354D01*
Y112205D01*
X240223Y112073D01*
X240879Y111417D02*
X241142D01*
X241010D01*
Y112205D01*
X240879Y112073D01*
X241535Y111549D02*
X241666Y111417D01*
X241929D01*
X242060Y111549D01*
Y112073D01*
X241929Y112205D01*
X241666D01*
X241535Y112073D01*
Y111942D01*
X241666Y111811D01*
X242060D01*
X217783Y112205D02*
Y111417D01*
X218176D01*
X218307Y111549D01*
Y112073D01*
X218176Y112205D01*
X217783D01*
X218570Y111417D02*
X218832D01*
X218701D01*
Y112205D01*
X218570Y112073D01*
X219226Y111417D02*
X219488D01*
X219357D01*
Y112205D01*
X219226Y112073D01*
X219882D02*
X220013Y112205D01*
X220275D01*
X220406Y112073D01*
Y111942D01*
X220275Y111811D01*
X220406Y111680D01*
Y111549D01*
X220275Y111417D01*
X220013D01*
X219882Y111549D01*
Y111680D01*
X220013Y111811D01*
X219882Y111942D01*
Y112073D01*
X220013Y111811D02*
X220275D01*
X196129Y112205D02*
Y111417D01*
X196523D01*
X196654Y111549D01*
Y112073D01*
X196523Y112205D01*
X196129D01*
X196916Y111417D02*
X197179D01*
X197047D01*
Y112205D01*
X196916Y112073D01*
X197572Y111417D02*
X197835D01*
X197703D01*
Y112205D01*
X197572Y112073D01*
X198228Y112205D02*
X198753D01*
Y112073D01*
X198228Y111549D01*
Y111417D01*
X174476Y112205D02*
Y111417D01*
X174869D01*
X175000Y111549D01*
Y112073D01*
X174869Y112205D01*
X174476D01*
X175263Y111417D02*
X175525D01*
X175394D01*
Y112205D01*
X175263Y112073D01*
X175919Y111417D02*
X176181D01*
X176050D01*
Y112205D01*
X175919Y112073D01*
X177099Y112205D02*
X176837Y112073D01*
X176575Y111811D01*
Y111549D01*
X176706Y111417D01*
X176968D01*
X177099Y111549D01*
Y111680D01*
X176968Y111811D01*
X176575D01*
X152822Y112205D02*
Y111417D01*
X153216D01*
X153347Y111549D01*
Y112073D01*
X153216Y112205D01*
X152822D01*
X153609Y111417D02*
X153872D01*
X153740D01*
Y112205D01*
X153609Y112073D01*
X154265Y111417D02*
X154527D01*
X154396D01*
Y112205D01*
X154265Y112073D01*
X155446Y112205D02*
X154921D01*
Y111811D01*
X155183Y111942D01*
X155315D01*
X155446Y111811D01*
Y111549D01*
X155315Y111417D01*
X155052D01*
X154921Y111549D01*
X131168Y112205D02*
Y111417D01*
X131562D01*
X131693Y111549D01*
Y112073D01*
X131562Y112205D01*
X131168D01*
X131956Y111417D02*
X132218D01*
X132087D01*
Y112205D01*
X131956Y112073D01*
X132612Y111417D02*
X132874D01*
X132743D01*
Y112205D01*
X132612Y112073D01*
X133661Y111417D02*
Y112205D01*
X133267Y111811D01*
X133792D01*
X109515Y112205D02*
Y111417D01*
X109908D01*
X110040Y111549D01*
Y112073D01*
X109908Y112205D01*
X109515D01*
X110302Y111417D02*
X110564D01*
X110433D01*
Y112205D01*
X110302Y112073D01*
X110958Y111417D02*
X111220D01*
X111089D01*
Y112205D01*
X110958Y112073D01*
X111614D02*
X111745Y112205D01*
X112007D01*
X112139Y112073D01*
Y111942D01*
X112007Y111811D01*
X111876D01*
X112007D01*
X112139Y111680D01*
Y111549D01*
X112007Y111417D01*
X111745D01*
X111614Y111549D01*
X434318Y133858D02*
Y133071D01*
X434712D01*
X434843Y133202D01*
Y133727D01*
X434712Y133858D01*
X434318D01*
X435105Y133071D02*
X435368D01*
X435236D01*
Y133858D01*
X435105Y133727D01*
X435761Y133071D02*
X436024D01*
X435892D01*
Y133858D01*
X435761Y133727D01*
X436942Y133071D02*
X436417D01*
X436942Y133596D01*
Y133727D01*
X436811Y133858D01*
X436548D01*
X436417Y133727D01*
X412796Y133858D02*
Y133071D01*
X413189D01*
X413320Y133202D01*
Y133727D01*
X413189Y133858D01*
X412796D01*
X413583Y133071D02*
X413845D01*
X413714D01*
Y133858D01*
X413583Y133727D01*
X414239Y133071D02*
X414501D01*
X414370D01*
Y133858D01*
X414239Y133727D01*
X414895Y133071D02*
X415157D01*
X415026D01*
Y133858D01*
X414895Y133727D01*
X391011Y133858D02*
Y133071D01*
X391405D01*
X391536Y133202D01*
Y133727D01*
X391405Y133858D01*
X391011D01*
X391798Y133071D02*
X392060D01*
X391929D01*
Y133858D01*
X391798Y133727D01*
X392454Y133071D02*
X392716D01*
X392585D01*
Y133858D01*
X392454Y133727D01*
X393110D02*
X393241Y133858D01*
X393503D01*
X393635Y133727D01*
Y133202D01*
X393503Y133071D01*
X393241D01*
X393110Y133202D01*
Y133727D01*
X369292Y133858D02*
Y133071D01*
X369685D01*
X369817Y133202D01*
Y133727D01*
X369685Y133858D01*
X369292D01*
X370079Y133071D02*
X370341D01*
X370210D01*
Y133858D01*
X370079Y133727D01*
X370735D02*
X370866Y133858D01*
X371129D01*
X371260Y133727D01*
Y133202D01*
X371129Y133071D01*
X370866D01*
X370735Y133202D01*
Y133727D01*
X371522Y133202D02*
X371653Y133071D01*
X371916D01*
X372047Y133202D01*
Y133727D01*
X371916Y133858D01*
X371653D01*
X371522Y133727D01*
Y133596D01*
X371653Y133465D01*
X372047D01*
X347638Y133858D02*
Y133071D01*
X348032D01*
X348163Y133202D01*
Y133727D01*
X348032Y133858D01*
X347638D01*
X348425Y133071D02*
X348688D01*
X348557D01*
Y133858D01*
X348425Y133727D01*
X349081D02*
X349213Y133858D01*
X349475D01*
X349606Y133727D01*
Y133202D01*
X349475Y133071D01*
X349213D01*
X349081Y133202D01*
Y133727D01*
X349868D02*
X350000Y133858D01*
X350262D01*
X350393Y133727D01*
Y133596D01*
X350262Y133465D01*
X350393Y133333D01*
Y133202D01*
X350262Y133071D01*
X350000D01*
X349868Y133202D01*
Y133333D01*
X350000Y133465D01*
X349868Y133596D01*
Y133727D01*
X350000Y133465D02*
X350262D01*
X325985Y133858D02*
Y133071D01*
X326378D01*
X326509Y133202D01*
Y133727D01*
X326378Y133858D01*
X325985D01*
X326772Y133071D02*
X327034D01*
X326903D01*
Y133858D01*
X326772Y133727D01*
X327428D02*
X327559Y133858D01*
X327821D01*
X327953Y133727D01*
Y133202D01*
X327821Y133071D01*
X327559D01*
X327428Y133202D01*
Y133727D01*
X328215Y133858D02*
X328740D01*
Y133727D01*
X328215Y133202D01*
Y133071D01*
X304331Y133858D02*
Y133071D01*
X304725D01*
X304856Y133202D01*
Y133727D01*
X304725Y133858D01*
X304331D01*
X305118Y133071D02*
X305381D01*
X305250D01*
Y133858D01*
X305118Y133727D01*
X305774D02*
X305906Y133858D01*
X306168D01*
X306299Y133727D01*
Y133202D01*
X306168Y133071D01*
X305906D01*
X305774Y133202D01*
Y133727D01*
X307086Y133858D02*
X306824Y133727D01*
X306561Y133465D01*
Y133202D01*
X306693Y133071D01*
X306955D01*
X307086Y133202D01*
Y133333D01*
X306955Y133465D01*
X306561D01*
X282678Y133858D02*
Y133071D01*
X283071D01*
X283202Y133202D01*
Y133727D01*
X283071Y133858D01*
X282678D01*
X283465Y133071D02*
X283727D01*
X283596D01*
Y133858D01*
X283465Y133727D01*
X284121D02*
X284252Y133858D01*
X284514D01*
X284646Y133727D01*
Y133202D01*
X284514Y133071D01*
X284252D01*
X284121Y133202D01*
Y133727D01*
X285433Y133858D02*
X284908D01*
Y133465D01*
X285170Y133596D01*
X285301D01*
X285433Y133465D01*
Y133202D01*
X285301Y133071D01*
X285039D01*
X284908Y133202D01*
X261024Y133858D02*
Y133071D01*
X261418D01*
X261549Y133202D01*
Y133727D01*
X261418Y133858D01*
X261024D01*
X261811Y133071D02*
X262074D01*
X261942D01*
Y133858D01*
X261811Y133727D01*
X262467D02*
X262598Y133858D01*
X262861D01*
X262992Y133727D01*
Y133202D01*
X262861Y133071D01*
X262598D01*
X262467Y133202D01*
Y133727D01*
X263648Y133071D02*
Y133858D01*
X263254Y133465D01*
X263779D01*
X239370Y133858D02*
Y133071D01*
X239764D01*
X239895Y133202D01*
Y133727D01*
X239764Y133858D01*
X239370D01*
X240158Y133071D02*
X240420D01*
X240289D01*
Y133858D01*
X240158Y133727D01*
X240814D02*
X240945Y133858D01*
X241207D01*
X241338Y133727D01*
Y133202D01*
X241207Y133071D01*
X240945D01*
X240814Y133202D01*
Y133727D01*
X241601D02*
X241732Y133858D01*
X241994D01*
X242126Y133727D01*
Y133596D01*
X241994Y133465D01*
X241863D01*
X241994D01*
X242126Y133333D01*
Y133202D01*
X241994Y133071D01*
X241732D01*
X241601Y133202D01*
X217717Y133858D02*
Y133071D01*
X218111D01*
X218242Y133202D01*
Y133727D01*
X218111Y133858D01*
X217717D01*
X218504Y133071D02*
X218766D01*
X218635D01*
Y133858D01*
X218504Y133727D01*
X219160D02*
X219291Y133858D01*
X219554D01*
X219685Y133727D01*
Y133202D01*
X219554Y133071D01*
X219291D01*
X219160Y133202D01*
Y133727D01*
X220472Y133071D02*
X219947D01*
X220472Y133596D01*
Y133727D01*
X220341Y133858D01*
X220078D01*
X219947Y133727D01*
X196195Y133858D02*
Y133071D01*
X196588D01*
X196719Y133202D01*
Y133727D01*
X196588Y133858D01*
X196195D01*
X196982Y133071D02*
X197244D01*
X197113D01*
Y133858D01*
X196982Y133727D01*
X197638D02*
X197769Y133858D01*
X198031D01*
X198162Y133727D01*
Y133202D01*
X198031Y133071D01*
X197769D01*
X197638Y133202D01*
Y133727D01*
X198425Y133071D02*
X198687D01*
X198556D01*
Y133858D01*
X198425Y133727D01*
X174410Y133858D02*
Y133071D01*
X174803D01*
X174935Y133202D01*
Y133727D01*
X174803Y133858D01*
X174410D01*
X175197Y133071D02*
X175459D01*
X175328D01*
Y133858D01*
X175197Y133727D01*
X175853D02*
X175984Y133858D01*
X176247D01*
X176378Y133727D01*
Y133202D01*
X176247Y133071D01*
X175984D01*
X175853Y133202D01*
Y133727D01*
X176640D02*
X176771Y133858D01*
X177034D01*
X177165Y133727D01*
Y133202D01*
X177034Y133071D01*
X176771D01*
X176640Y133202D01*
Y133727D01*
X153084Y133858D02*
Y133071D01*
X153478D01*
X153609Y133202D01*
Y133727D01*
X153478Y133858D01*
X153084D01*
X153872Y133202D02*
X154003Y133071D01*
X154265D01*
X154396Y133202D01*
Y133727D01*
X154265Y133858D01*
X154003D01*
X153872Y133727D01*
Y133596D01*
X154003Y133465D01*
X154396D01*
X154659Y133202D02*
X154790Y133071D01*
X155052D01*
X155183Y133202D01*
Y133727D01*
X155052Y133858D01*
X154790D01*
X154659Y133727D01*
Y133596D01*
X154790Y133465D01*
X155183D01*
X131431Y133858D02*
Y133071D01*
X131824D01*
X131956Y133202D01*
Y133727D01*
X131824Y133858D01*
X131431D01*
X132218Y133202D02*
X132349Y133071D01*
X132612D01*
X132743Y133202D01*
Y133727D01*
X132612Y133858D01*
X132349D01*
X132218Y133727D01*
Y133596D01*
X132349Y133465D01*
X132743D01*
X133005Y133727D02*
X133136Y133858D01*
X133399D01*
X133530Y133727D01*
Y133596D01*
X133399Y133465D01*
X133530Y133333D01*
Y133202D01*
X133399Y133071D01*
X133136D01*
X133005Y133202D01*
Y133333D01*
X133136Y133465D01*
X133005Y133596D01*
Y133727D01*
X133136Y133465D02*
X133399D01*
X109777Y133858D02*
Y133071D01*
X110171D01*
X110302Y133202D01*
Y133727D01*
X110171Y133858D01*
X109777D01*
X110564Y133202D02*
X110696Y133071D01*
X110958D01*
X111089Y133202D01*
Y133727D01*
X110958Y133858D01*
X110696D01*
X110564Y133727D01*
Y133596D01*
X110696Y133465D01*
X111089D01*
X111352Y133858D02*
X111876D01*
Y133727D01*
X111352Y133202D01*
Y133071D01*
X434580Y155512D02*
Y154725D01*
X434974D01*
X435105Y154856D01*
Y155380D01*
X434974Y155512D01*
X434580D01*
X435367Y154856D02*
X435499Y154725D01*
X435761D01*
X435892Y154856D01*
Y155380D01*
X435761Y155512D01*
X435499D01*
X435367Y155380D01*
Y155249D01*
X435499Y155118D01*
X435892D01*
X436679Y155512D02*
X436417Y155380D01*
X436155Y155118D01*
Y154856D01*
X436286Y154725D01*
X436548D01*
X436679Y154856D01*
Y154987D01*
X436548Y155118D01*
X436155D01*
X412927Y155512D02*
Y154725D01*
X413320D01*
X413452Y154856D01*
Y155380D01*
X413320Y155512D01*
X412927D01*
X413714Y154856D02*
X413845Y154725D01*
X414108D01*
X414239Y154856D01*
Y155380D01*
X414108Y155512D01*
X413845D01*
X413714Y155380D01*
Y155249D01*
X413845Y155118D01*
X414239D01*
X415026Y155512D02*
X414501D01*
Y155118D01*
X414763Y155249D01*
X414895D01*
X415026Y155118D01*
Y154856D01*
X414895Y154725D01*
X414632D01*
X414501Y154856D01*
X391273Y155512D02*
Y154725D01*
X391667D01*
X391798Y154856D01*
Y155380D01*
X391667Y155512D01*
X391273D01*
X392060Y154856D02*
X392192Y154725D01*
X392454D01*
X392585Y154856D01*
Y155380D01*
X392454Y155512D01*
X392192D01*
X392060Y155380D01*
Y155249D01*
X392192Y155118D01*
X392585D01*
X393241Y154725D02*
Y155512D01*
X392848Y155118D01*
X393372D01*
X369620Y155512D02*
Y154725D01*
X370013D01*
X370145Y154856D01*
Y155380D01*
X370013Y155512D01*
X369620D01*
X370407Y154856D02*
X370538Y154725D01*
X370800D01*
X370932Y154856D01*
Y155380D01*
X370800Y155512D01*
X370538D01*
X370407Y155380D01*
Y155249D01*
X370538Y155118D01*
X370932D01*
X371194Y155380D02*
X371325Y155512D01*
X371588D01*
X371719Y155380D01*
Y155249D01*
X371588Y155118D01*
X371456D01*
X371588D01*
X371719Y154987D01*
Y154856D01*
X371588Y154725D01*
X371325D01*
X371194Y154856D01*
X347966Y155512D02*
Y154725D01*
X348360D01*
X348491Y154856D01*
Y155380D01*
X348360Y155512D01*
X347966D01*
X348753Y154856D02*
X348885Y154725D01*
X349147D01*
X349278Y154856D01*
Y155380D01*
X349147Y155512D01*
X348885D01*
X348753Y155380D01*
Y155249D01*
X348885Y155118D01*
X349278D01*
X350065Y154725D02*
X349540D01*
X350065Y155249D01*
Y155380D01*
X349934Y155512D01*
X349672D01*
X349540Y155380D01*
X326444Y155512D02*
Y154725D01*
X326837D01*
X326969Y154856D01*
Y155380D01*
X326837Y155512D01*
X326444D01*
X327231Y154856D02*
X327362Y154725D01*
X327625D01*
X327756Y154856D01*
Y155380D01*
X327625Y155512D01*
X327362D01*
X327231Y155380D01*
Y155249D01*
X327362Y155118D01*
X327756D01*
X328018Y154725D02*
X328280D01*
X328149D01*
Y155512D01*
X328018Y155380D01*
X304659Y155512D02*
Y154725D01*
X305053D01*
X305184Y154856D01*
Y155380D01*
X305053Y155512D01*
X304659D01*
X305446Y154856D02*
X305577Y154725D01*
X305840D01*
X305971Y154856D01*
Y155380D01*
X305840Y155512D01*
X305577D01*
X305446Y155380D01*
Y155249D01*
X305577Y155118D01*
X305971D01*
X306233Y155380D02*
X306365Y155512D01*
X306627D01*
X306758Y155380D01*
Y154856D01*
X306627Y154725D01*
X306365D01*
X306233Y154856D01*
Y155380D01*
X283006Y155512D02*
Y154725D01*
X283399D01*
X283530Y154856D01*
Y155380D01*
X283399Y155512D01*
X283006D01*
X283793Y155380D02*
X283924Y155512D01*
X284186D01*
X284317Y155380D01*
Y155249D01*
X284186Y155118D01*
X284317Y154987D01*
Y154856D01*
X284186Y154725D01*
X283924D01*
X283793Y154856D01*
Y154987D01*
X283924Y155118D01*
X283793Y155249D01*
Y155380D01*
X283924Y155118D02*
X284186D01*
X284580Y154856D02*
X284711Y154725D01*
X284974D01*
X285105Y154856D01*
Y155380D01*
X284974Y155512D01*
X284711D01*
X284580Y155380D01*
Y155249D01*
X284711Y155118D01*
X285105D01*
X261352Y155512D02*
Y154725D01*
X261746D01*
X261877Y154856D01*
Y155380D01*
X261746Y155512D01*
X261352D01*
X262139Y155380D02*
X262270Y155512D01*
X262533D01*
X262664Y155380D01*
Y155249D01*
X262533Y155118D01*
X262664Y154987D01*
Y154856D01*
X262533Y154725D01*
X262270D01*
X262139Y154856D01*
Y154987D01*
X262270Y155118D01*
X262139Y155249D01*
Y155380D01*
X262270Y155118D02*
X262533D01*
X262926Y155380D02*
X263057Y155512D01*
X263320D01*
X263451Y155380D01*
Y155249D01*
X263320Y155118D01*
X263451Y154987D01*
Y154856D01*
X263320Y154725D01*
X263057D01*
X262926Y154856D01*
Y154987D01*
X263057Y155118D01*
X262926Y155249D01*
Y155380D01*
X263057Y155118D02*
X263320D01*
X239699Y155512D02*
Y154725D01*
X240092D01*
X240223Y154856D01*
Y155380D01*
X240092Y155512D01*
X239699D01*
X240486Y155380D02*
X240617Y155512D01*
X240879D01*
X241010Y155380D01*
Y155249D01*
X240879Y155118D01*
X241010Y154987D01*
Y154856D01*
X240879Y154725D01*
X240617D01*
X240486Y154856D01*
Y154987D01*
X240617Y155118D01*
X240486Y155249D01*
Y155380D01*
X240617Y155118D02*
X240879D01*
X241273Y155512D02*
X241798D01*
Y155380D01*
X241273Y154856D01*
Y154725D01*
X218045Y155512D02*
Y154725D01*
X218439D01*
X218570Y154856D01*
Y155380D01*
X218439Y155512D01*
X218045D01*
X218832Y155380D02*
X218963Y155512D01*
X219226D01*
X219357Y155380D01*
Y155249D01*
X219226Y155118D01*
X219357Y154987D01*
Y154856D01*
X219226Y154725D01*
X218963D01*
X218832Y154856D01*
Y154987D01*
X218963Y155118D01*
X218832Y155249D01*
Y155380D01*
X218963Y155118D02*
X219226D01*
X220144Y155512D02*
X219882Y155380D01*
X219619Y155118D01*
Y154856D01*
X219750Y154725D01*
X220013D01*
X220144Y154856D01*
Y154987D01*
X220013Y155118D01*
X219619D01*
X196391Y155512D02*
Y154725D01*
X196785D01*
X196916Y154856D01*
Y155380D01*
X196785Y155512D01*
X196391D01*
X197179Y155380D02*
X197310Y155512D01*
X197572D01*
X197703Y155380D01*
Y155249D01*
X197572Y155118D01*
X197703Y154987D01*
Y154856D01*
X197572Y154725D01*
X197310D01*
X197179Y154856D01*
Y154987D01*
X197310Y155118D01*
X197179Y155249D01*
Y155380D01*
X197310Y155118D02*
X197572D01*
X198491Y155512D02*
X197966D01*
Y155118D01*
X198228Y155249D01*
X198359D01*
X198491Y155118D01*
Y154856D01*
X198359Y154725D01*
X198097D01*
X197966Y154856D01*
X174738Y155512D02*
Y154725D01*
X175131D01*
X175263Y154856D01*
Y155380D01*
X175131Y155512D01*
X174738D01*
X175525Y155380D02*
X175656Y155512D01*
X175919D01*
X176050Y155380D01*
Y155249D01*
X175919Y155118D01*
X176050Y154987D01*
Y154856D01*
X175919Y154725D01*
X175656D01*
X175525Y154856D01*
Y154987D01*
X175656Y155118D01*
X175525Y155249D01*
Y155380D01*
X175656Y155118D02*
X175919D01*
X176706Y154725D02*
Y155512D01*
X176312Y155118D01*
X176837D01*
X153084Y155512D02*
Y154725D01*
X153478D01*
X153609Y154856D01*
Y155380D01*
X153478Y155512D01*
X153084D01*
X153872Y155380D02*
X154003Y155512D01*
X154265D01*
X154396Y155380D01*
Y155249D01*
X154265Y155118D01*
X154396Y154987D01*
Y154856D01*
X154265Y154725D01*
X154003D01*
X153872Y154856D01*
Y154987D01*
X154003Y155118D01*
X153872Y155249D01*
Y155380D01*
X154003Y155118D02*
X154265D01*
X154659Y155380D02*
X154790Y155512D01*
X155052D01*
X155183Y155380D01*
Y155249D01*
X155052Y155118D01*
X154921D01*
X155052D01*
X155183Y154987D01*
Y154856D01*
X155052Y154725D01*
X154790D01*
X154659Y154856D01*
X131431Y155512D02*
Y154725D01*
X131824D01*
X131956Y154856D01*
Y155380D01*
X131824Y155512D01*
X131431D01*
X132218Y155380D02*
X132349Y155512D01*
X132612D01*
X132743Y155380D01*
Y155249D01*
X132612Y155118D01*
X132743Y154987D01*
Y154856D01*
X132612Y154725D01*
X132349D01*
X132218Y154856D01*
Y154987D01*
X132349Y155118D01*
X132218Y155249D01*
Y155380D01*
X132349Y155118D02*
X132612D01*
X133530Y154725D02*
X133005D01*
X133530Y155249D01*
Y155380D01*
X133399Y155512D01*
X133136D01*
X133005Y155380D01*
X109908Y155512D02*
Y154725D01*
X110302D01*
X110433Y154856D01*
Y155380D01*
X110302Y155512D01*
X109908D01*
X110696Y155380D02*
X110827Y155512D01*
X111089D01*
X111220Y155380D01*
Y155249D01*
X111089Y155118D01*
X111220Y154987D01*
Y154856D01*
X111089Y154725D01*
X110827D01*
X110696Y154856D01*
Y154987D01*
X110827Y155118D01*
X110696Y155249D01*
Y155380D01*
X110827Y155118D02*
X111089D01*
X111483Y154725D02*
X111745D01*
X111614D01*
Y155512D01*
X111483Y155380D01*
X434580Y177165D02*
Y176378D01*
X434974D01*
X435105Y176509D01*
Y177034D01*
X434974Y177165D01*
X434580D01*
X435367Y177034D02*
X435499Y177165D01*
X435761D01*
X435892Y177034D01*
Y176903D01*
X435761Y176772D01*
X435892Y176640D01*
Y176509D01*
X435761Y176378D01*
X435499D01*
X435367Y176509D01*
Y176640D01*
X435499Y176772D01*
X435367Y176903D01*
Y177034D01*
X435499Y176772D02*
X435761D01*
X436155Y177034D02*
X436286Y177165D01*
X436548D01*
X436679Y177034D01*
Y176509D01*
X436548Y176378D01*
X436286D01*
X436155Y176509D01*
Y177034D01*
X412927Y177165D02*
Y176378D01*
X413320D01*
X413452Y176509D01*
Y177034D01*
X413320Y177165D01*
X412927D01*
X413714D02*
X414239D01*
Y177034D01*
X413714Y176509D01*
Y176378D01*
X414501Y176509D02*
X414632Y176378D01*
X414895D01*
X415026Y176509D01*
Y177034D01*
X414895Y177165D01*
X414632D01*
X414501Y177034D01*
Y176903D01*
X414632Y176772D01*
X415026D01*
X391273Y177165D02*
Y176378D01*
X391667D01*
X391798Y176509D01*
Y177034D01*
X391667Y177165D01*
X391273D01*
X392060D02*
X392585D01*
Y177034D01*
X392060Y176509D01*
Y176378D01*
X392848Y177034D02*
X392979Y177165D01*
X393241D01*
X393372Y177034D01*
Y176903D01*
X393241Y176772D01*
X393372Y176640D01*
Y176509D01*
X393241Y176378D01*
X392979D01*
X392848Y176509D01*
Y176640D01*
X392979Y176772D01*
X392848Y176903D01*
Y177034D01*
X392979Y176772D02*
X393241D01*
X369620Y177165D02*
Y176378D01*
X370013D01*
X370145Y176509D01*
Y177034D01*
X370013Y177165D01*
X369620D01*
X370407D02*
X370932D01*
Y177034D01*
X370407Y176509D01*
Y176378D01*
X371194Y177165D02*
X371719D01*
Y177034D01*
X371194Y176509D01*
Y176378D01*
X347966Y177165D02*
Y176378D01*
X348360D01*
X348491Y176509D01*
Y177034D01*
X348360Y177165D01*
X347966D01*
X348753D02*
X349278D01*
Y177034D01*
X348753Y176509D01*
Y176378D01*
X350065Y177165D02*
X349803Y177034D01*
X349540Y176772D01*
Y176509D01*
X349672Y176378D01*
X349934D01*
X350065Y176509D01*
Y176640D01*
X349934Y176772D01*
X349540D01*
X320300Y189987D02*
Y189200D01*
X320694D01*
X320825Y189331D01*
Y189856D01*
X320694Y189987D01*
X320300D01*
X321087D02*
X321612D01*
Y189856D01*
X321087Y189331D01*
Y189200D01*
X322399Y189987D02*
X321874D01*
Y189594D01*
X322137Y189725D01*
X322268D01*
X322399Y189594D01*
Y189331D01*
X322268Y189200D01*
X322006D01*
X321874Y189331D01*
X298600Y189987D02*
Y189200D01*
X298994D01*
X299125Y189331D01*
Y189856D01*
X298994Y189987D01*
X298600D01*
X299387D02*
X299912D01*
Y189856D01*
X299387Y189331D01*
Y189200D01*
X300568D02*
Y189987D01*
X300174Y189594D01*
X300699D01*
X276900Y189987D02*
Y189200D01*
X277294D01*
X277425Y189331D01*
Y189856D01*
X277294Y189987D01*
X276900D01*
X277687D02*
X278212D01*
Y189856D01*
X277687Y189331D01*
Y189200D01*
X278474Y189856D02*
X278606Y189987D01*
X278868D01*
X278999Y189856D01*
Y189725D01*
X278868Y189594D01*
X278737D01*
X278868D01*
X278999Y189462D01*
Y189331D01*
X278868Y189200D01*
X278606D01*
X278474Y189331D01*
X261352Y177165D02*
Y176378D01*
X261746D01*
X261877Y176509D01*
Y177034D01*
X261746Y177165D01*
X261352D01*
X262139D02*
X262664D01*
Y177034D01*
X262139Y176509D01*
Y176378D01*
X263451D02*
X262926D01*
X263451Y176903D01*
Y177034D01*
X263320Y177165D01*
X263057D01*
X262926Y177034D01*
X239830Y177165D02*
Y176378D01*
X240223D01*
X240354Y176509D01*
Y177034D01*
X240223Y177165D01*
X239830D01*
X240617D02*
X241142D01*
Y177034D01*
X240617Y176509D01*
Y176378D01*
X241404D02*
X241666D01*
X241535D01*
Y177165D01*
X241404Y177034D01*
X218045Y177165D02*
Y176378D01*
X218439D01*
X218570Y176509D01*
Y177034D01*
X218439Y177165D01*
X218045D01*
X218832D02*
X219357D01*
Y177034D01*
X218832Y176509D01*
Y176378D01*
X219619Y177034D02*
X219750Y177165D01*
X220013D01*
X220144Y177034D01*
Y176509D01*
X220013Y176378D01*
X219750D01*
X219619Y176509D01*
Y177034D01*
X196391Y177165D02*
Y176378D01*
X196785D01*
X196916Y176509D01*
Y177034D01*
X196785Y177165D01*
X196391D01*
X197703D02*
X197441Y177034D01*
X197179Y176772D01*
Y176509D01*
X197310Y176378D01*
X197572D01*
X197703Y176509D01*
Y176640D01*
X197572Y176772D01*
X197179D01*
X197966Y176509D02*
X198097Y176378D01*
X198359D01*
X198491Y176509D01*
Y177034D01*
X198359Y177165D01*
X198097D01*
X197966Y177034D01*
Y176903D01*
X198097Y176772D01*
X198491D01*
X174738Y177165D02*
Y176378D01*
X175131D01*
X175263Y176509D01*
Y177034D01*
X175131Y177165D01*
X174738D01*
X176050D02*
X175787Y177034D01*
X175525Y176772D01*
Y176509D01*
X175656Y176378D01*
X175919D01*
X176050Y176509D01*
Y176640D01*
X175919Y176772D01*
X175525D01*
X176312Y177034D02*
X176443Y177165D01*
X176706D01*
X176837Y177034D01*
Y176903D01*
X176706Y176772D01*
X176837Y176640D01*
Y176509D01*
X176706Y176378D01*
X176443D01*
X176312Y176509D01*
Y176640D01*
X176443Y176772D01*
X176312Y176903D01*
Y177034D01*
X176443Y176772D02*
X176706D01*
X153084Y177165D02*
Y176378D01*
X153478D01*
X153609Y176509D01*
Y177034D01*
X153478Y177165D01*
X153084D01*
X154396D02*
X154134Y177034D01*
X153872Y176772D01*
Y176509D01*
X154003Y176378D01*
X154265D01*
X154396Y176509D01*
Y176640D01*
X154265Y176772D01*
X153872D01*
X154659Y177165D02*
X155183D01*
Y177034D01*
X154659Y176509D01*
Y176378D01*
X131431Y177165D02*
Y176378D01*
X131824D01*
X131956Y176509D01*
Y177034D01*
X131824Y177165D01*
X131431D01*
X132743D02*
X132480Y177034D01*
X132218Y176772D01*
Y176509D01*
X132349Y176378D01*
X132612D01*
X132743Y176509D01*
Y176640D01*
X132612Y176772D01*
X132218D01*
X133530Y177165D02*
X133267Y177034D01*
X133005Y176772D01*
Y176509D01*
X133136Y176378D01*
X133399D01*
X133530Y176509D01*
Y176640D01*
X133399Y176772D01*
X133005D01*
X109777Y177165D02*
Y176378D01*
X110171D01*
X110302Y176509D01*
Y177034D01*
X110171Y177165D01*
X109777D01*
X111089D02*
X110827Y177034D01*
X110564Y176772D01*
Y176509D01*
X110696Y176378D01*
X110958D01*
X111089Y176509D01*
Y176640D01*
X110958Y176772D01*
X110564D01*
X111876Y177165D02*
X111352D01*
Y176772D01*
X111614Y176903D01*
X111745D01*
X111876Y176772D01*
Y176509D01*
X111745Y176378D01*
X111483D01*
X111352Y176509D01*
X434580Y198819D02*
Y198032D01*
X434974D01*
X435105Y198163D01*
Y198688D01*
X434974Y198819D01*
X434580D01*
X435892D02*
X435630Y198688D01*
X435367Y198425D01*
Y198163D01*
X435499Y198032D01*
X435761D01*
X435892Y198163D01*
Y198294D01*
X435761Y198425D01*
X435367D01*
X436548Y198032D02*
Y198819D01*
X436155Y198425D01*
X436679D01*
X412927Y198819D02*
Y198032D01*
X413320D01*
X413452Y198163D01*
Y198688D01*
X413320Y198819D01*
X412927D01*
X414239D02*
X413976Y198688D01*
X413714Y198425D01*
Y198163D01*
X413845Y198032D01*
X414108D01*
X414239Y198163D01*
Y198294D01*
X414108Y198425D01*
X413714D01*
X414501Y198688D02*
X414632Y198819D01*
X414895D01*
X415026Y198688D01*
Y198556D01*
X414895Y198425D01*
X414763D01*
X414895D01*
X415026Y198294D01*
Y198163D01*
X414895Y198032D01*
X414632D01*
X414501Y198163D01*
X391273Y198819D02*
Y198032D01*
X391667D01*
X391798Y198163D01*
Y198688D01*
X391667Y198819D01*
X391273D01*
X392585D02*
X392323Y198688D01*
X392060Y198425D01*
Y198163D01*
X392192Y198032D01*
X392454D01*
X392585Y198163D01*
Y198294D01*
X392454Y198425D01*
X392060D01*
X393372Y198032D02*
X392848D01*
X393372Y198556D01*
Y198688D01*
X393241Y198819D01*
X392979D01*
X392848Y198688D01*
X369751Y198819D02*
Y198032D01*
X370145D01*
X370276Y198163D01*
Y198688D01*
X370145Y198819D01*
X369751D01*
X371063D02*
X370800Y198688D01*
X370538Y198425D01*
Y198163D01*
X370669Y198032D01*
X370932D01*
X371063Y198163D01*
Y198294D01*
X370932Y198425D01*
X370538D01*
X371325Y198032D02*
X371588D01*
X371456D01*
Y198819D01*
X371325Y198688D01*
X347966Y198819D02*
Y198032D01*
X348360D01*
X348491Y198163D01*
Y198688D01*
X348360Y198819D01*
X347966D01*
X349278D02*
X349016Y198688D01*
X348753Y198425D01*
Y198163D01*
X348885Y198032D01*
X349147D01*
X349278Y198163D01*
Y198294D01*
X349147Y198425D01*
X348753D01*
X349540Y198688D02*
X349672Y198819D01*
X349934D01*
X350065Y198688D01*
Y198163D01*
X349934Y198032D01*
X349672D01*
X349540Y198163D01*
Y198688D01*
X326313Y198819D02*
Y198032D01*
X326706D01*
X326837Y198163D01*
Y198688D01*
X326706Y198819D01*
X326313D01*
X327625D02*
X327100D01*
Y198425D01*
X327362Y198556D01*
X327493D01*
X327625Y198425D01*
Y198163D01*
X327493Y198032D01*
X327231D01*
X327100Y198163D01*
X327887D02*
X328018Y198032D01*
X328280D01*
X328412Y198163D01*
Y198688D01*
X328280Y198819D01*
X328018D01*
X327887Y198688D01*
Y198556D01*
X328018Y198425D01*
X328412D01*
X304659Y198819D02*
Y198032D01*
X305053D01*
X305184Y198163D01*
Y198688D01*
X305053Y198819D01*
X304659D01*
X305971D02*
X305446D01*
Y198425D01*
X305709Y198556D01*
X305840D01*
X305971Y198425D01*
Y198163D01*
X305840Y198032D01*
X305577D01*
X305446Y198163D01*
X306233Y198688D02*
X306365Y198819D01*
X306627D01*
X306758Y198688D01*
Y198556D01*
X306627Y198425D01*
X306758Y198294D01*
Y198163D01*
X306627Y198032D01*
X306365D01*
X306233Y198163D01*
Y198294D01*
X306365Y198425D01*
X306233Y198556D01*
Y198688D01*
X306365Y198425D02*
X306627D01*
X283006Y198819D02*
Y198032D01*
X283399D01*
X283530Y198163D01*
Y198688D01*
X283399Y198819D01*
X283006D01*
X284317D02*
X283793D01*
Y198425D01*
X284055Y198556D01*
X284186D01*
X284317Y198425D01*
Y198163D01*
X284186Y198032D01*
X283924D01*
X283793Y198163D01*
X284580Y198819D02*
X285105D01*
Y198688D01*
X284580Y198163D01*
Y198032D01*
X261352Y198819D02*
Y198032D01*
X261746D01*
X261877Y198163D01*
Y198688D01*
X261746Y198819D01*
X261352D01*
X262664D02*
X262139D01*
Y198425D01*
X262402Y198556D01*
X262533D01*
X262664Y198425D01*
Y198163D01*
X262533Y198032D01*
X262270D01*
X262139Y198163D01*
X263451Y198819D02*
X263189Y198688D01*
X262926Y198425D01*
Y198163D01*
X263057Y198032D01*
X263320D01*
X263451Y198163D01*
Y198294D01*
X263320Y198425D01*
X262926D01*
X239699Y198819D02*
Y198032D01*
X240092D01*
X240223Y198163D01*
Y198688D01*
X240092Y198819D01*
X239699D01*
X241010D02*
X240486D01*
Y198425D01*
X240748Y198556D01*
X240879D01*
X241010Y198425D01*
Y198163D01*
X240879Y198032D01*
X240617D01*
X240486Y198163D01*
X241798Y198819D02*
X241273D01*
Y198425D01*
X241535Y198556D01*
X241666D01*
X241798Y198425D01*
Y198163D01*
X241666Y198032D01*
X241404D01*
X241273Y198163D01*
X218045Y198819D02*
Y198032D01*
X218439D01*
X218570Y198163D01*
Y198688D01*
X218439Y198819D01*
X218045D01*
X219357D02*
X218832D01*
Y198425D01*
X219094Y198556D01*
X219226D01*
X219357Y198425D01*
Y198163D01*
X219226Y198032D01*
X218963D01*
X218832Y198163D01*
X220013Y198032D02*
Y198819D01*
X219619Y198425D01*
X220144D01*
X196391Y198819D02*
Y198032D01*
X196785D01*
X196916Y198163D01*
Y198688D01*
X196785Y198819D01*
X196391D01*
X197703D02*
X197179D01*
Y198425D01*
X197441Y198556D01*
X197572D01*
X197703Y198425D01*
Y198163D01*
X197572Y198032D01*
X197310D01*
X197179Y198163D01*
X197966Y198688D02*
X198097Y198819D01*
X198359D01*
X198491Y198688D01*
Y198556D01*
X198359Y198425D01*
X198228D01*
X198359D01*
X198491Y198294D01*
Y198163D01*
X198359Y198032D01*
X198097D01*
X197966Y198163D01*
X174738Y198819D02*
Y198032D01*
X175131D01*
X175263Y198163D01*
Y198688D01*
X175131Y198819D01*
X174738D01*
X176050D02*
X175525D01*
Y198425D01*
X175787Y198556D01*
X175919D01*
X176050Y198425D01*
Y198163D01*
X175919Y198032D01*
X175656D01*
X175525Y198163D01*
X176837Y198032D02*
X176312D01*
X176837Y198556D01*
Y198688D01*
X176706Y198819D01*
X176443D01*
X176312Y198688D01*
X153216Y198819D02*
Y198032D01*
X153609D01*
X153740Y198163D01*
Y198688D01*
X153609Y198819D01*
X153216D01*
X154527D02*
X154003D01*
Y198425D01*
X154265Y198556D01*
X154396D01*
X154527Y198425D01*
Y198163D01*
X154396Y198032D01*
X154134D01*
X154003Y198163D01*
X154790Y198032D02*
X155052D01*
X154921D01*
Y198819D01*
X154790Y198688D01*
X131431Y198819D02*
Y198032D01*
X131824D01*
X131956Y198163D01*
Y198688D01*
X131824Y198819D01*
X131431D01*
X132743D02*
X132218D01*
Y198425D01*
X132480Y198556D01*
X132612D01*
X132743Y198425D01*
Y198163D01*
X132612Y198032D01*
X132349D01*
X132218Y198163D01*
X133005Y198688D02*
X133136Y198819D01*
X133399D01*
X133530Y198688D01*
Y198163D01*
X133399Y198032D01*
X133136D01*
X133005Y198163D01*
Y198688D01*
X109777Y198819D02*
Y198032D01*
X110171D01*
X110302Y198163D01*
Y198688D01*
X110171Y198819D01*
X109777D01*
X110958Y198032D02*
Y198819D01*
X110564Y198425D01*
X111089D01*
X111352Y198163D02*
X111483Y198032D01*
X111745D01*
X111876Y198163D01*
Y198688D01*
X111745Y198819D01*
X111483D01*
X111352Y198688D01*
Y198556D01*
X111483Y198425D01*
X111876D01*
X434580Y220472D02*
Y219685D01*
X434974D01*
X435105Y219816D01*
Y220341D01*
X434974Y220472D01*
X434580D01*
X435761Y219685D02*
Y220472D01*
X435367Y220079D01*
X435892D01*
X436155Y220341D02*
X436286Y220472D01*
X436548D01*
X436679Y220341D01*
Y220210D01*
X436548Y220079D01*
X436679Y219948D01*
Y219816D01*
X436548Y219685D01*
X436286D01*
X436155Y219816D01*
Y219948D01*
X436286Y220079D01*
X436155Y220210D01*
Y220341D01*
X436286Y220079D02*
X436548D01*
X412927Y220472D02*
Y219685D01*
X413320D01*
X413452Y219816D01*
Y220341D01*
X413320Y220472D01*
X412927D01*
X414108Y219685D02*
Y220472D01*
X413714Y220079D01*
X414239D01*
X414501Y220472D02*
X415026D01*
Y220341D01*
X414501Y219816D01*
Y219685D01*
X391273Y220472D02*
Y219685D01*
X391667D01*
X391798Y219816D01*
Y220341D01*
X391667Y220472D01*
X391273D01*
X392454Y219685D02*
Y220472D01*
X392060Y220079D01*
X392585D01*
X393372Y220472D02*
X393110Y220341D01*
X392848Y220079D01*
Y219816D01*
X392979Y219685D01*
X393241D01*
X393372Y219816D01*
Y219948D01*
X393241Y220079D01*
X392848D01*
X369620Y220472D02*
Y219685D01*
X370013D01*
X370145Y219816D01*
Y220341D01*
X370013Y220472D01*
X369620D01*
X370800Y219685D02*
Y220472D01*
X370407Y220079D01*
X370932D01*
X371719Y220472D02*
X371194D01*
Y220079D01*
X371456Y220210D01*
X371588D01*
X371719Y220079D01*
Y219816D01*
X371588Y219685D01*
X371325D01*
X371194Y219816D01*
X347966Y220472D02*
Y219685D01*
X348360D01*
X348491Y219816D01*
Y220341D01*
X348360Y220472D01*
X347966D01*
X349147Y219685D02*
Y220472D01*
X348753Y220079D01*
X349278D01*
X349934Y219685D02*
Y220472D01*
X349540Y220079D01*
X350065D01*
X326313Y220472D02*
Y219685D01*
X326706D01*
X326837Y219816D01*
Y220341D01*
X326706Y220472D01*
X326313D01*
X327493Y219685D02*
Y220472D01*
X327100Y220079D01*
X327625D01*
X327887Y220341D02*
X328018Y220472D01*
X328280D01*
X328412Y220341D01*
Y220210D01*
X328280Y220079D01*
X328149D01*
X328280D01*
X328412Y219948D01*
Y219816D01*
X328280Y219685D01*
X328018D01*
X327887Y219816D01*
X304659Y220472D02*
Y219685D01*
X305053D01*
X305184Y219816D01*
Y220341D01*
X305053Y220472D01*
X304659D01*
X305840Y219685D02*
Y220472D01*
X305446Y220079D01*
X305971D01*
X306758Y219685D02*
X306233D01*
X306758Y220210D01*
Y220341D01*
X306627Y220472D01*
X306365D01*
X306233Y220341D01*
X283137Y220472D02*
Y219685D01*
X283530D01*
X283662Y219816D01*
Y220341D01*
X283530Y220472D01*
X283137D01*
X284317Y219685D02*
Y220472D01*
X283924Y220079D01*
X284449D01*
X284711Y219685D02*
X284974D01*
X284842D01*
Y220472D01*
X284711Y220341D01*
X261352Y220472D02*
Y219685D01*
X261746D01*
X261877Y219816D01*
Y220341D01*
X261746Y220472D01*
X261352D01*
X262533Y219685D02*
Y220472D01*
X262139Y220079D01*
X262664D01*
X262926Y220341D02*
X263057Y220472D01*
X263320D01*
X263451Y220341D01*
Y219816D01*
X263320Y219685D01*
X263057D01*
X262926Y219816D01*
Y220341D01*
X239699Y220472D02*
Y219685D01*
X240092D01*
X240223Y219816D01*
Y220341D01*
X240092Y220472D01*
X239699D01*
X240486Y220341D02*
X240617Y220472D01*
X240879D01*
X241010Y220341D01*
Y220210D01*
X240879Y220079D01*
X240748D01*
X240879D01*
X241010Y219948D01*
Y219816D01*
X240879Y219685D01*
X240617D01*
X240486Y219816D01*
X241273D02*
X241404Y219685D01*
X241666D01*
X241798Y219816D01*
Y220341D01*
X241666Y220472D01*
X241404D01*
X241273Y220341D01*
Y220210D01*
X241404Y220079D01*
X241798D01*
X218045Y220472D02*
Y219685D01*
X218439D01*
X218570Y219816D01*
Y220341D01*
X218439Y220472D01*
X218045D01*
X218832Y220341D02*
X218963Y220472D01*
X219226D01*
X219357Y220341D01*
Y220210D01*
X219226Y220079D01*
X219094D01*
X219226D01*
X219357Y219948D01*
Y219816D01*
X219226Y219685D01*
X218963D01*
X218832Y219816D01*
X219619Y220341D02*
X219750Y220472D01*
X220013D01*
X220144Y220341D01*
Y220210D01*
X220013Y220079D01*
X220144Y219948D01*
Y219816D01*
X220013Y219685D01*
X219750D01*
X219619Y219816D01*
Y219948D01*
X219750Y220079D01*
X219619Y220210D01*
Y220341D01*
X219750Y220079D02*
X220013D01*
X196391Y220472D02*
Y219685D01*
X196785D01*
X196916Y219816D01*
Y220341D01*
X196785Y220472D01*
X196391D01*
X197179Y220341D02*
X197310Y220472D01*
X197572D01*
X197703Y220341D01*
Y220210D01*
X197572Y220079D01*
X197441D01*
X197572D01*
X197703Y219948D01*
Y219816D01*
X197572Y219685D01*
X197310D01*
X197179Y219816D01*
X197966Y220472D02*
X198491D01*
Y220341D01*
X197966Y219816D01*
Y219685D01*
X174738Y220472D02*
Y219685D01*
X175131D01*
X175263Y219816D01*
Y220341D01*
X175131Y220472D01*
X174738D01*
X175525Y220341D02*
X175656Y220472D01*
X175919D01*
X176050Y220341D01*
Y220210D01*
X175919Y220079D01*
X175787D01*
X175919D01*
X176050Y219948D01*
Y219816D01*
X175919Y219685D01*
X175656D01*
X175525Y219816D01*
X176837Y220472D02*
X176575Y220341D01*
X176312Y220079D01*
Y219816D01*
X176443Y219685D01*
X176706D01*
X176837Y219816D01*
Y219948D01*
X176706Y220079D01*
X176312D01*
X153084Y220472D02*
Y219685D01*
X153478D01*
X153609Y219816D01*
Y220341D01*
X153478Y220472D01*
X153084D01*
X153872Y220341D02*
X154003Y220472D01*
X154265D01*
X154396Y220341D01*
Y220210D01*
X154265Y220079D01*
X154134D01*
X154265D01*
X154396Y219948D01*
Y219816D01*
X154265Y219685D01*
X154003D01*
X153872Y219816D01*
X155183Y220472D02*
X154659D01*
Y220079D01*
X154921Y220210D01*
X155052D01*
X155183Y220079D01*
Y219816D01*
X155052Y219685D01*
X154790D01*
X154659Y219816D01*
X131431Y220472D02*
Y219685D01*
X131824D01*
X131956Y219816D01*
Y220341D01*
X131824Y220472D01*
X131431D01*
X132218Y220341D02*
X132349Y220472D01*
X132612D01*
X132743Y220341D01*
Y220210D01*
X132612Y220079D01*
X132480D01*
X132612D01*
X132743Y219948D01*
Y219816D01*
X132612Y219685D01*
X132349D01*
X132218Y219816D01*
X133399Y219685D02*
Y220472D01*
X133005Y220079D01*
X133530D01*
X109777Y220472D02*
Y219685D01*
X110171D01*
X110302Y219816D01*
Y220341D01*
X110171Y220472D01*
X109777D01*
X110564Y220341D02*
X110696Y220472D01*
X110958D01*
X111089Y220341D01*
Y220210D01*
X110958Y220079D01*
X110827D01*
X110958D01*
X111089Y219948D01*
Y219816D01*
X110958Y219685D01*
X110696D01*
X110564Y219816D01*
X111352Y220341D02*
X111483Y220472D01*
X111745D01*
X111876Y220341D01*
Y220210D01*
X111745Y220079D01*
X111614D01*
X111745D01*
X111876Y219948D01*
Y219816D01*
X111745Y219685D01*
X111483D01*
X111352Y219816D01*
X434580Y242126D02*
Y241339D01*
X434974D01*
X435105Y241470D01*
Y241995D01*
X434974Y242126D01*
X434580D01*
X435367Y241995D02*
X435499Y242126D01*
X435761D01*
X435892Y241995D01*
Y241863D01*
X435761Y241732D01*
X435630D01*
X435761D01*
X435892Y241601D01*
Y241470D01*
X435761Y241339D01*
X435499D01*
X435367Y241470D01*
X436679Y241339D02*
X436155D01*
X436679Y241863D01*
Y241995D01*
X436548Y242126D01*
X436286D01*
X436155Y241995D01*
X413058Y242126D02*
Y241339D01*
X413452D01*
X413583Y241470D01*
Y241995D01*
X413452Y242126D01*
X413058D01*
X413845Y241995D02*
X413976Y242126D01*
X414239D01*
X414370Y241995D01*
Y241863D01*
X414239Y241732D01*
X414108D01*
X414239D01*
X414370Y241601D01*
Y241470D01*
X414239Y241339D01*
X413976D01*
X413845Y241470D01*
X414632Y241339D02*
X414895D01*
X414763D01*
Y242126D01*
X414632Y241995D01*
X391273Y242126D02*
Y241339D01*
X391667D01*
X391798Y241470D01*
Y241995D01*
X391667Y242126D01*
X391273D01*
X392060Y241995D02*
X392192Y242126D01*
X392454D01*
X392585Y241995D01*
Y241863D01*
X392454Y241732D01*
X392323D01*
X392454D01*
X392585Y241601D01*
Y241470D01*
X392454Y241339D01*
X392192D01*
X392060Y241470D01*
X392848Y241995D02*
X392979Y242126D01*
X393241D01*
X393372Y241995D01*
Y241470D01*
X393241Y241339D01*
X392979D01*
X392848Y241470D01*
Y241995D01*
X369620Y242126D02*
Y241339D01*
X370013D01*
X370145Y241470D01*
Y241995D01*
X370013Y242126D01*
X369620D01*
X370932Y241339D02*
X370407D01*
X370932Y241863D01*
Y241995D01*
X370800Y242126D01*
X370538D01*
X370407Y241995D01*
X371194Y241470D02*
X371325Y241339D01*
X371588D01*
X371719Y241470D01*
Y241995D01*
X371588Y242126D01*
X371325D01*
X371194Y241995D01*
Y241863D01*
X371325Y241732D01*
X371719D01*
X347966Y242126D02*
Y241339D01*
X348360D01*
X348491Y241470D01*
Y241995D01*
X348360Y242126D01*
X347966D01*
X349278Y241339D02*
X348753D01*
X349278Y241863D01*
Y241995D01*
X349147Y242126D01*
X348885D01*
X348753Y241995D01*
X349540D02*
X349672Y242126D01*
X349934D01*
X350065Y241995D01*
Y241863D01*
X349934Y241732D01*
X350065Y241601D01*
Y241470D01*
X349934Y241339D01*
X349672D01*
X349540Y241470D01*
Y241601D01*
X349672Y241732D01*
X349540Y241863D01*
Y241995D01*
X349672Y241732D02*
X349934D01*
X326313Y242126D02*
Y241339D01*
X326706D01*
X326837Y241470D01*
Y241995D01*
X326706Y242126D01*
X326313D01*
X327625Y241339D02*
X327100D01*
X327625Y241863D01*
Y241995D01*
X327493Y242126D01*
X327231D01*
X327100Y241995D01*
X327887Y242126D02*
X328412D01*
Y241995D01*
X327887Y241470D01*
Y241339D01*
X304659Y242126D02*
Y241339D01*
X305053D01*
X305184Y241470D01*
Y241995D01*
X305053Y242126D01*
X304659D01*
X305971Y241339D02*
X305446D01*
X305971Y241863D01*
Y241995D01*
X305840Y242126D01*
X305577D01*
X305446Y241995D01*
X306758Y242126D02*
X306496Y241995D01*
X306233Y241732D01*
Y241470D01*
X306365Y241339D01*
X306627D01*
X306758Y241470D01*
Y241601D01*
X306627Y241732D01*
X306233D01*
X283006Y242126D02*
Y241339D01*
X283399D01*
X283530Y241470D01*
Y241995D01*
X283399Y242126D01*
X283006D01*
X284317Y241339D02*
X283793D01*
X284317Y241863D01*
Y241995D01*
X284186Y242126D01*
X283924D01*
X283793Y241995D01*
X285105Y242126D02*
X284580D01*
Y241732D01*
X284842Y241863D01*
X284974D01*
X285105Y241732D01*
Y241470D01*
X284974Y241339D01*
X284711D01*
X284580Y241470D01*
X261352Y242126D02*
Y241339D01*
X261746D01*
X261877Y241470D01*
Y241995D01*
X261746Y242126D01*
X261352D01*
X262664Y241339D02*
X262139D01*
X262664Y241863D01*
Y241995D01*
X262533Y242126D01*
X262270D01*
X262139Y241995D01*
X263320Y241339D02*
Y242126D01*
X262926Y241732D01*
X263451D01*
X239699Y242126D02*
Y241339D01*
X240092D01*
X240223Y241470D01*
Y241995D01*
X240092Y242126D01*
X239699D01*
X241010Y241339D02*
X240486D01*
X241010Y241863D01*
Y241995D01*
X240879Y242126D01*
X240617D01*
X240486Y241995D01*
X241273D02*
X241404Y242126D01*
X241666D01*
X241798Y241995D01*
Y241863D01*
X241666Y241732D01*
X241535D01*
X241666D01*
X241798Y241601D01*
Y241470D01*
X241666Y241339D01*
X241404D01*
X241273Y241470D01*
X218045Y242126D02*
Y241339D01*
X218439D01*
X218570Y241470D01*
Y241995D01*
X218439Y242126D01*
X218045D01*
X219357Y241339D02*
X218832D01*
X219357Y241863D01*
Y241995D01*
X219226Y242126D01*
X218963D01*
X218832Y241995D01*
X220144Y241339D02*
X219619D01*
X220144Y241863D01*
Y241995D01*
X220013Y242126D01*
X219750D01*
X219619Y241995D01*
X196523Y242126D02*
Y241339D01*
X196916D01*
X197047Y241470D01*
Y241995D01*
X196916Y242126D01*
X196523D01*
X197835Y241339D02*
X197310D01*
X197835Y241863D01*
Y241995D01*
X197703Y242126D01*
X197441D01*
X197310Y241995D01*
X198097Y241339D02*
X198359D01*
X198228D01*
Y242126D01*
X198097Y241995D01*
X174738Y242126D02*
Y241339D01*
X175131D01*
X175263Y241470D01*
Y241995D01*
X175131Y242126D01*
X174738D01*
X176050Y241339D02*
X175525D01*
X176050Y241863D01*
Y241995D01*
X175919Y242126D01*
X175656D01*
X175525Y241995D01*
X176312D02*
X176443Y242126D01*
X176706D01*
X176837Y241995D01*
Y241470D01*
X176706Y241339D01*
X176443D01*
X176312Y241470D01*
Y241995D01*
X153150Y242126D02*
Y241339D01*
X153543D01*
X153675Y241470D01*
Y241995D01*
X153543Y242126D01*
X153150D01*
X153937Y241339D02*
X154200D01*
X154068D01*
Y242126D01*
X153937Y241995D01*
X154593Y241470D02*
X154724Y241339D01*
X154987D01*
X155118Y241470D01*
Y241995D01*
X154987Y242126D01*
X154724D01*
X154593Y241995D01*
Y241863D01*
X154724Y241732D01*
X155118D01*
X131496Y242126D02*
Y241339D01*
X131890D01*
X132021Y241470D01*
Y241995D01*
X131890Y242126D01*
X131496D01*
X132283Y241339D02*
X132546D01*
X132415D01*
Y242126D01*
X132283Y241995D01*
X132940D02*
X133071Y242126D01*
X133333D01*
X133464Y241995D01*
Y241863D01*
X133333Y241732D01*
X133464Y241601D01*
Y241470D01*
X133333Y241339D01*
X133071D01*
X132940Y241470D01*
Y241601D01*
X133071Y241732D01*
X132940Y241863D01*
Y241995D01*
X133071Y241732D02*
X133333D01*
X109843Y242126D02*
Y241339D01*
X110236D01*
X110368Y241470D01*
Y241995D01*
X110236Y242126D01*
X109843D01*
X110630Y241339D02*
X110892D01*
X110761D01*
Y242126D01*
X110630Y241995D01*
X111286Y242126D02*
X111811D01*
Y241995D01*
X111286Y241470D01*
Y241339D01*
X434646Y263779D02*
Y262992D01*
X435040D01*
X435171Y263123D01*
Y263648D01*
X435040Y263779D01*
X434646D01*
X435433Y262992D02*
X435696D01*
X435564D01*
Y263779D01*
X435433Y263648D01*
X436614Y263779D02*
X436351Y263648D01*
X436089Y263386D01*
Y263123D01*
X436220Y262992D01*
X436483D01*
X436614Y263123D01*
Y263255D01*
X436483Y263386D01*
X436089D01*
X412992Y263779D02*
Y262992D01*
X413386D01*
X413517Y263123D01*
Y263648D01*
X413386Y263779D01*
X412992D01*
X413780Y262992D02*
X414042D01*
X413911D01*
Y263779D01*
X413780Y263648D01*
X414960Y263779D02*
X414435D01*
Y263386D01*
X414698Y263517D01*
X414829D01*
X414960Y263386D01*
Y263123D01*
X414829Y262992D01*
X414567D01*
X414435Y263123D01*
X391339Y263779D02*
Y262992D01*
X391733D01*
X391864Y263123D01*
Y263648D01*
X391733Y263779D01*
X391339D01*
X392126Y262992D02*
X392388D01*
X392257D01*
Y263779D01*
X392126Y263648D01*
X393176Y262992D02*
Y263779D01*
X392782Y263386D01*
X393307D01*
X369685Y263779D02*
Y262992D01*
X370079D01*
X370210Y263123D01*
Y263648D01*
X370079Y263779D01*
X369685D01*
X370473Y262992D02*
X370735D01*
X370604D01*
Y263779D01*
X370473Y263648D01*
X371129D02*
X371260Y263779D01*
X371522D01*
X371653Y263648D01*
Y263517D01*
X371522Y263386D01*
X371391D01*
X371522D01*
X371653Y263255D01*
Y263123D01*
X371522Y262992D01*
X371260D01*
X371129Y263123D01*
X348032Y263779D02*
Y262992D01*
X348425D01*
X348557Y263123D01*
Y263648D01*
X348425Y263779D01*
X348032D01*
X348819Y262992D02*
X349081D01*
X348950D01*
Y263779D01*
X348819Y263648D01*
X350000Y262992D02*
X349475D01*
X350000Y263517D01*
Y263648D01*
X349868Y263779D01*
X349606D01*
X349475Y263648D01*
X326509Y263779D02*
Y262992D01*
X326903D01*
X327034Y263123D01*
Y263648D01*
X326903Y263779D01*
X326509D01*
X327297Y262992D02*
X327559D01*
X327428D01*
Y263779D01*
X327297Y263648D01*
X327953Y262992D02*
X328215D01*
X328084D01*
Y263779D01*
X327953Y263648D01*
X304725Y263779D02*
Y262992D01*
X305118D01*
X305250Y263123D01*
Y263648D01*
X305118Y263779D01*
X304725D01*
X305512Y262992D02*
X305774D01*
X305643D01*
Y263779D01*
X305512Y263648D01*
X306168D02*
X306299Y263779D01*
X306561D01*
X306693Y263648D01*
Y263123D01*
X306561Y262992D01*
X306299D01*
X306168Y263123D01*
Y263648D01*
X283399Y263779D02*
Y262992D01*
X283793D01*
X283924Y263123D01*
Y263648D01*
X283793Y263779D01*
X283399D01*
X284186Y263123D02*
X284317Y262992D01*
X284580D01*
X284711Y263123D01*
Y263648D01*
X284580Y263779D01*
X284317D01*
X284186Y263648D01*
Y263517D01*
X284317Y263386D01*
X284711D01*
X261746Y263779D02*
Y262992D01*
X262139D01*
X262270Y263123D01*
Y263648D01*
X262139Y263779D01*
X261746D01*
X262533Y263648D02*
X262664Y263779D01*
X262926D01*
X263057Y263648D01*
Y263517D01*
X262926Y263386D01*
X263057Y263255D01*
Y263123D01*
X262926Y262992D01*
X262664D01*
X262533Y263123D01*
Y263255D01*
X262664Y263386D01*
X262533Y263517D01*
Y263648D01*
X262664Y263386D02*
X262926D01*
X240092Y263779D02*
Y262992D01*
X240486D01*
X240617Y263123D01*
Y263648D01*
X240486Y263779D01*
X240092D01*
X240879D02*
X241404D01*
Y263648D01*
X240879Y263123D01*
Y262992D01*
X218439Y263779D02*
Y262992D01*
X218832D01*
X218963Y263123D01*
Y263648D01*
X218832Y263779D01*
X218439D01*
X219750D02*
X219488Y263648D01*
X219226Y263386D01*
Y263123D01*
X219357Y262992D01*
X219619D01*
X219750Y263123D01*
Y263255D01*
X219619Y263386D01*
X219226D01*
X196785Y263779D02*
Y262992D01*
X197179D01*
X197310Y263123D01*
Y263648D01*
X197179Y263779D01*
X196785D01*
X198097D02*
X197572D01*
Y263386D01*
X197835Y263517D01*
X197966D01*
X198097Y263386D01*
Y263123D01*
X197966Y262992D01*
X197703D01*
X197572Y263123D01*
X175131Y263779D02*
Y262992D01*
X175525D01*
X175656Y263123D01*
Y263648D01*
X175525Y263779D01*
X175131D01*
X176312Y262992D02*
Y263779D01*
X175919Y263386D01*
X176443D01*
X153478Y263779D02*
Y262992D01*
X153872D01*
X154003Y263123D01*
Y263648D01*
X153872Y263779D01*
X153478D01*
X154265Y263648D02*
X154396Y263779D01*
X154659D01*
X154790Y263648D01*
Y263517D01*
X154659Y263386D01*
X154527D01*
X154659D01*
X154790Y263255D01*
Y263123D01*
X154659Y262992D01*
X154396D01*
X154265Y263123D01*
X131824Y263779D02*
Y262992D01*
X132218D01*
X132349Y263123D01*
Y263648D01*
X132218Y263779D01*
X131824D01*
X133136Y262992D02*
X132612D01*
X133136Y263517D01*
Y263648D01*
X133005Y263779D01*
X132743D01*
X132612Y263648D01*
X110302Y263779D02*
Y262992D01*
X110696D01*
X110827Y263123D01*
Y263648D01*
X110696Y263779D01*
X110302D01*
X111089Y262992D02*
X111352D01*
X111220D01*
Y263779D01*
X111089Y263648D01*
X445604Y112073D02*
X445473Y112205D01*
X445210D01*
X445079Y112073D01*
Y111549D01*
X445210Y111417D01*
X445473D01*
X445604Y111549D01*
X445866Y111417D02*
X446129D01*
X445997D01*
Y112205D01*
X445866Y112073D01*
X447047Y111417D02*
X446522D01*
X447047Y111942D01*
Y112073D01*
X446916Y112205D01*
X446654D01*
X446522Y112073D01*
X447309D02*
X447441Y112205D01*
X447703D01*
X447834Y112073D01*
Y111942D01*
X447703Y111811D01*
X447834Y111680D01*
Y111549D01*
X447703Y111417D01*
X447441D01*
X447309Y111549D01*
Y111680D01*
X447441Y111811D01*
X447309Y111942D01*
Y112073D01*
X447441Y111811D02*
X447703D01*
X423950Y112073D02*
X423819Y112205D01*
X423557D01*
X423426Y112073D01*
Y111549D01*
X423557Y111417D01*
X423819D01*
X423950Y111549D01*
X424213Y111417D02*
X424475D01*
X424344D01*
Y112205D01*
X424213Y112073D01*
X425393Y111417D02*
X424869D01*
X425393Y111942D01*
Y112073D01*
X425262Y112205D01*
X425000D01*
X424869Y112073D01*
X425656Y112205D02*
X426181D01*
Y112073D01*
X425656Y111549D01*
Y111417D01*
X402297Y112073D02*
X402166Y112205D01*
X401903D01*
X401772Y112073D01*
Y111549D01*
X401903Y111417D01*
X402166D01*
X402297Y111549D01*
X402559Y111417D02*
X402822D01*
X402691D01*
Y112205D01*
X402559Y112073D01*
X403740Y111417D02*
X403215D01*
X403740Y111942D01*
Y112073D01*
X403609Y112205D01*
X403346D01*
X403215Y112073D01*
X404527Y112205D02*
X404265Y112073D01*
X404002Y111811D01*
Y111549D01*
X404134Y111417D01*
X404396D01*
X404527Y111549D01*
Y111680D01*
X404396Y111811D01*
X404002D01*
X380643Y112073D02*
X380512Y112205D01*
X380250D01*
X380119Y112073D01*
Y111549D01*
X380250Y111417D01*
X380512D01*
X380643Y111549D01*
X380906Y111417D02*
X381168D01*
X381037D01*
Y112205D01*
X380906Y112073D01*
X382086Y111417D02*
X381562D01*
X382086Y111942D01*
Y112073D01*
X381955Y112205D01*
X381693D01*
X381562Y112073D01*
X382874Y112205D02*
X382349D01*
Y111811D01*
X382611Y111942D01*
X382742D01*
X382874Y111811D01*
Y111549D01*
X382742Y111417D01*
X382480D01*
X382349Y111549D01*
X358990Y112073D02*
X358859Y112205D01*
X358596D01*
X358465Y112073D01*
Y111549D01*
X358596Y111417D01*
X358859D01*
X358990Y111549D01*
X359252Y111417D02*
X359515D01*
X359383D01*
Y112205D01*
X359252Y112073D01*
X360433Y111417D02*
X359908D01*
X360433Y111942D01*
Y112073D01*
X360302Y112205D01*
X360039D01*
X359908Y112073D01*
X361089Y111417D02*
Y112205D01*
X360695Y111811D01*
X361220D01*
X337336Y112073D02*
X337205Y112205D01*
X336943D01*
X336811Y112073D01*
Y111549D01*
X336943Y111417D01*
X337205D01*
X337336Y111549D01*
X337599Y111417D02*
X337861D01*
X337730D01*
Y112205D01*
X337599Y112073D01*
X338779Y111417D02*
X338255D01*
X338779Y111942D01*
Y112073D01*
X338648Y112205D01*
X338386D01*
X338255Y112073D01*
X339042D02*
X339173Y112205D01*
X339435D01*
X339566Y112073D01*
Y111942D01*
X339435Y111811D01*
X339304D01*
X339435D01*
X339566Y111680D01*
Y111549D01*
X339435Y111417D01*
X339173D01*
X339042Y111549D01*
X315683Y112073D02*
X315551Y112205D01*
X315289D01*
X315158Y112073D01*
Y111549D01*
X315289Y111417D01*
X315551D01*
X315683Y111549D01*
X315945Y111417D02*
X316208D01*
X316076D01*
Y112205D01*
X315945Y112073D01*
X317126Y111417D02*
X316601D01*
X317126Y111942D01*
Y112073D01*
X316995Y112205D01*
X316732D01*
X316601Y112073D01*
X317913Y111417D02*
X317388D01*
X317913Y111942D01*
Y112073D01*
X317782Y112205D01*
X317519D01*
X317388Y112073D01*
X294160D02*
X294029Y112205D01*
X293767D01*
X293636Y112073D01*
Y111549D01*
X293767Y111417D01*
X294029D01*
X294160Y111549D01*
X294423Y111417D02*
X294685D01*
X294554D01*
Y112205D01*
X294423Y112073D01*
X295603Y111417D02*
X295079D01*
X295603Y111942D01*
Y112073D01*
X295472Y112205D01*
X295210D01*
X295079Y112073D01*
X295866Y111417D02*
X296128D01*
X295997D01*
Y112205D01*
X295866Y112073D01*
X272376D02*
X272244Y112205D01*
X271982D01*
X271851Y112073D01*
Y111549D01*
X271982Y111417D01*
X272244D01*
X272376Y111549D01*
X272638Y111417D02*
X272900D01*
X272769D01*
Y112205D01*
X272638Y112073D01*
X273819Y111417D02*
X273294D01*
X273819Y111942D01*
Y112073D01*
X273688Y112205D01*
X273425D01*
X273294Y112073D01*
X274081D02*
X274212Y112205D01*
X274475D01*
X274606Y112073D01*
Y111549D01*
X274475Y111417D01*
X274212D01*
X274081Y111549D01*
Y112073D01*
X250788D02*
X250657Y112205D01*
X250394D01*
X250263Y112073D01*
Y111549D01*
X250394Y111417D01*
X250657D01*
X250788Y111549D01*
X251050Y111417D02*
X251312D01*
X251181D01*
Y112205D01*
X251050Y112073D01*
X251706Y111417D02*
X251968D01*
X251837D01*
Y112205D01*
X251706Y112073D01*
X252362Y111549D02*
X252493Y111417D01*
X252755D01*
X252887Y111549D01*
Y112073D01*
X252755Y112205D01*
X252493D01*
X252362Y112073D01*
Y111942D01*
X252493Y111811D01*
X252887D01*
X229134Y112073D02*
X229003Y112205D01*
X228741D01*
X228609Y112073D01*
Y111549D01*
X228741Y111417D01*
X229003D01*
X229134Y111549D01*
X229397Y111417D02*
X229659D01*
X229528D01*
Y112205D01*
X229397Y112073D01*
X230052Y111417D02*
X230315D01*
X230184D01*
Y112205D01*
X230052Y112073D01*
X230708D02*
X230840Y112205D01*
X231102D01*
X231233Y112073D01*
Y111942D01*
X231102Y111811D01*
X231233Y111680D01*
Y111549D01*
X231102Y111417D01*
X230840D01*
X230708Y111549D01*
Y111680D01*
X230840Y111811D01*
X230708Y111942D01*
Y112073D01*
X230840Y111811D02*
X231102D01*
X207481Y112073D02*
X207349Y112205D01*
X207087D01*
X206956Y112073D01*
Y111549D01*
X207087Y111417D01*
X207349D01*
X207481Y111549D01*
X207743Y111417D02*
X208005D01*
X207874D01*
Y112205D01*
X207743Y112073D01*
X208399Y111417D02*
X208661D01*
X208530D01*
Y112205D01*
X208399Y112073D01*
X209055Y112205D02*
X209580D01*
Y112073D01*
X209055Y111549D01*
Y111417D01*
X185827Y112073D02*
X185696Y112205D01*
X185433D01*
X185302Y112073D01*
Y111549D01*
X185433Y111417D01*
X185696D01*
X185827Y111549D01*
X186089Y111417D02*
X186352D01*
X186221D01*
Y112205D01*
X186089Y112073D01*
X186745Y111417D02*
X187008D01*
X186877D01*
Y112205D01*
X186745Y112073D01*
X187926Y112205D02*
X187664Y112073D01*
X187401Y111811D01*
Y111549D01*
X187532Y111417D01*
X187795D01*
X187926Y111549D01*
Y111680D01*
X187795Y111811D01*
X187401D01*
X164173Y112073D02*
X164042Y112205D01*
X163780D01*
X163649Y112073D01*
Y111549D01*
X163780Y111417D01*
X164042D01*
X164173Y111549D01*
X164436Y111417D02*
X164698D01*
X164567D01*
Y112205D01*
X164436Y112073D01*
X165092Y111417D02*
X165354D01*
X165223D01*
Y112205D01*
X165092Y112073D01*
X166272Y112205D02*
X165748D01*
Y111811D01*
X166010Y111942D01*
X166141D01*
X166272Y111811D01*
Y111549D01*
X166141Y111417D01*
X165879D01*
X165748Y111549D01*
X142520Y112073D02*
X142389Y112205D01*
X142126D01*
X141995Y112073D01*
Y111549D01*
X142126Y111417D01*
X142389D01*
X142520Y111549D01*
X142782Y111417D02*
X143045D01*
X142913D01*
Y112205D01*
X142782Y112073D01*
X143438Y111417D02*
X143701D01*
X143570D01*
Y112205D01*
X143438Y112073D01*
X144488Y111417D02*
Y112205D01*
X144094Y111811D01*
X144619D01*
X120866Y112073D02*
X120735Y112205D01*
X120473D01*
X120342Y112073D01*
Y111549D01*
X120473Y111417D01*
X120735D01*
X120866Y111549D01*
X121129Y111417D02*
X121391D01*
X121260D01*
Y112205D01*
X121129Y112073D01*
X121785Y111417D02*
X122047D01*
X121916D01*
Y112205D01*
X121785Y112073D01*
X122441D02*
X122572Y112205D01*
X122834D01*
X122966Y112073D01*
Y111942D01*
X122834Y111811D01*
X122703D01*
X122834D01*
X122966Y111680D01*
Y111549D01*
X122834Y111417D01*
X122572D01*
X122441Y111549D01*
X445670Y133727D02*
X445538Y133858D01*
X445276D01*
X445145Y133727D01*
Y133202D01*
X445276Y133071D01*
X445538D01*
X445670Y133202D01*
X445932Y133071D02*
X446194D01*
X446063D01*
Y133858D01*
X445932Y133727D01*
X446588Y133071D02*
X446850D01*
X446719D01*
Y133858D01*
X446588Y133727D01*
X447769Y133071D02*
X447244D01*
X447769Y133596D01*
Y133727D01*
X447637Y133858D01*
X447375D01*
X447244Y133727D01*
X424147D02*
X424016Y133858D01*
X423754D01*
X423622Y133727D01*
Y133202D01*
X423754Y133071D01*
X424016D01*
X424147Y133202D01*
X424410Y133071D02*
X424672D01*
X424541D01*
Y133858D01*
X424410Y133727D01*
X425066Y133071D02*
X425328D01*
X425197D01*
Y133858D01*
X425066Y133727D01*
X425722Y133071D02*
X425984D01*
X425853D01*
Y133858D01*
X425722Y133727D01*
X402362D02*
X402231Y133858D01*
X401969D01*
X401838Y133727D01*
Y133202D01*
X401969Y133071D01*
X402231D01*
X402362Y133202D01*
X402625Y133071D02*
X402887D01*
X402756D01*
Y133858D01*
X402625Y133727D01*
X403281Y133071D02*
X403543D01*
X403412D01*
Y133858D01*
X403281Y133727D01*
X403937D02*
X404068Y133858D01*
X404330D01*
X404461Y133727D01*
Y133202D01*
X404330Y133071D01*
X404068D01*
X403937Y133202D01*
Y133727D01*
X380643D02*
X380512Y133858D01*
X380250D01*
X380119Y133727D01*
Y133202D01*
X380250Y133071D01*
X380512D01*
X380643Y133202D01*
X380906Y133071D02*
X381168D01*
X381037D01*
Y133858D01*
X380906Y133727D01*
X381562D02*
X381693Y133858D01*
X381955D01*
X382086Y133727D01*
Y133202D01*
X381955Y133071D01*
X381693D01*
X381562Y133202D01*
Y133727D01*
X382349Y133202D02*
X382480Y133071D01*
X382742D01*
X382874Y133202D01*
Y133727D01*
X382742Y133858D01*
X382480D01*
X382349Y133727D01*
Y133596D01*
X382480Y133465D01*
X382874D01*
X358990Y133727D02*
X358859Y133858D01*
X358596D01*
X358465Y133727D01*
Y133202D01*
X358596Y133071D01*
X358859D01*
X358990Y133202D01*
X359252Y133071D02*
X359515D01*
X359383D01*
Y133858D01*
X359252Y133727D01*
X359908D02*
X360039Y133858D01*
X360302D01*
X360433Y133727D01*
Y133202D01*
X360302Y133071D01*
X360039D01*
X359908Y133202D01*
Y133727D01*
X360695D02*
X360826Y133858D01*
X361089D01*
X361220Y133727D01*
Y133596D01*
X361089Y133465D01*
X361220Y133333D01*
Y133202D01*
X361089Y133071D01*
X360826D01*
X360695Y133202D01*
Y133333D01*
X360826Y133465D01*
X360695Y133596D01*
Y133727D01*
X360826Y133465D02*
X361089D01*
X337336Y133727D02*
X337205Y133858D01*
X336943D01*
X336811Y133727D01*
Y133202D01*
X336943Y133071D01*
X337205D01*
X337336Y133202D01*
X337599Y133071D02*
X337861D01*
X337730D01*
Y133858D01*
X337599Y133727D01*
X338255D02*
X338386Y133858D01*
X338648D01*
X338779Y133727D01*
Y133202D01*
X338648Y133071D01*
X338386D01*
X338255Y133202D01*
Y133727D01*
X339042Y133858D02*
X339566D01*
Y133727D01*
X339042Y133202D01*
Y133071D01*
X315683Y133727D02*
X315551Y133858D01*
X315289D01*
X315158Y133727D01*
Y133202D01*
X315289Y133071D01*
X315551D01*
X315683Y133202D01*
X315945Y133071D02*
X316208D01*
X316076D01*
Y133858D01*
X315945Y133727D01*
X316601D02*
X316732Y133858D01*
X316995D01*
X317126Y133727D01*
Y133202D01*
X316995Y133071D01*
X316732D01*
X316601Y133202D01*
Y133727D01*
X317913Y133858D02*
X317651Y133727D01*
X317388Y133465D01*
Y133202D01*
X317519Y133071D01*
X317782D01*
X317913Y133202D01*
Y133333D01*
X317782Y133465D01*
X317388D01*
X294029Y133727D02*
X293898Y133858D01*
X293636D01*
X293504Y133727D01*
Y133202D01*
X293636Y133071D01*
X293898D01*
X294029Y133202D01*
X294291Y133071D02*
X294554D01*
X294423D01*
Y133858D01*
X294291Y133727D01*
X294948D02*
X295079Y133858D01*
X295341D01*
X295472Y133727D01*
Y133202D01*
X295341Y133071D01*
X295079D01*
X294948Y133202D01*
Y133727D01*
X296259Y133858D02*
X295735D01*
Y133465D01*
X295997Y133596D01*
X296128D01*
X296259Y133465D01*
Y133202D01*
X296128Y133071D01*
X295866D01*
X295735Y133202D01*
X272376Y133727D02*
X272244Y133858D01*
X271982D01*
X271851Y133727D01*
Y133202D01*
X271982Y133071D01*
X272244D01*
X272376Y133202D01*
X272638Y133071D02*
X272900D01*
X272769D01*
Y133858D01*
X272638Y133727D01*
X273294D02*
X273425Y133858D01*
X273688D01*
X273819Y133727D01*
Y133202D01*
X273688Y133071D01*
X273425D01*
X273294Y133202D01*
Y133727D01*
X274475Y133071D02*
Y133858D01*
X274081Y133465D01*
X274606D01*
X250722Y133727D02*
X250591Y133858D01*
X250328D01*
X250197Y133727D01*
Y133202D01*
X250328Y133071D01*
X250591D01*
X250722Y133202D01*
X250985Y133071D02*
X251247D01*
X251116D01*
Y133858D01*
X250985Y133727D01*
X251640D02*
X251772Y133858D01*
X252034D01*
X252165Y133727D01*
Y133202D01*
X252034Y133071D01*
X251772D01*
X251640Y133202D01*
Y133727D01*
X252428D02*
X252559Y133858D01*
X252821D01*
X252952Y133727D01*
Y133596D01*
X252821Y133465D01*
X252690D01*
X252821D01*
X252952Y133333D01*
Y133202D01*
X252821Y133071D01*
X252559D01*
X252428Y133202D01*
X229068Y133727D02*
X228937Y133858D01*
X228675D01*
X228544Y133727D01*
Y133202D01*
X228675Y133071D01*
X228937D01*
X229068Y133202D01*
X229331Y133071D02*
X229593D01*
X229462D01*
Y133858D01*
X229331Y133727D01*
X229987D02*
X230118Y133858D01*
X230380D01*
X230512Y133727D01*
Y133202D01*
X230380Y133071D01*
X230118D01*
X229987Y133202D01*
Y133727D01*
X231299Y133071D02*
X230774D01*
X231299Y133596D01*
Y133727D01*
X231168Y133858D01*
X230905D01*
X230774Y133727D01*
X207546D02*
X207415Y133858D01*
X207153D01*
X207021Y133727D01*
Y133202D01*
X207153Y133071D01*
X207415D01*
X207546Y133202D01*
X207809Y133071D02*
X208071D01*
X207940D01*
Y133858D01*
X207809Y133727D01*
X208465D02*
X208596Y133858D01*
X208858D01*
X208989Y133727D01*
Y133202D01*
X208858Y133071D01*
X208596D01*
X208465Y133202D01*
Y133727D01*
X209252Y133071D02*
X209514D01*
X209383D01*
Y133858D01*
X209252Y133727D01*
X185761D02*
X185630Y133858D01*
X185368D01*
X185237Y133727D01*
Y133202D01*
X185368Y133071D01*
X185630D01*
X185761Y133202D01*
X186024Y133071D02*
X186286D01*
X186155D01*
Y133858D01*
X186024Y133727D01*
X186680D02*
X186811Y133858D01*
X187073D01*
X187205Y133727D01*
Y133202D01*
X187073Y133071D01*
X186811D01*
X186680Y133202D01*
Y133727D01*
X187467D02*
X187598Y133858D01*
X187861D01*
X187992Y133727D01*
Y133202D01*
X187861Y133071D01*
X187598D01*
X187467Y133202D01*
Y133727D01*
X164436D02*
X164305Y133858D01*
X164042D01*
X163911Y133727D01*
Y133202D01*
X164042Y133071D01*
X164305D01*
X164436Y133202D01*
X164698D02*
X164829Y133071D01*
X165092D01*
X165223Y133202D01*
Y133727D01*
X165092Y133858D01*
X164829D01*
X164698Y133727D01*
Y133596D01*
X164829Y133465D01*
X165223D01*
X165485Y133202D02*
X165617Y133071D01*
X165879D01*
X166010Y133202D01*
Y133727D01*
X165879Y133858D01*
X165617D01*
X165485Y133727D01*
Y133596D01*
X165617Y133465D01*
X166010D01*
X142782Y133727D02*
X142651Y133858D01*
X142389D01*
X142258Y133727D01*
Y133202D01*
X142389Y133071D01*
X142651D01*
X142782Y133202D01*
X143045D02*
X143176Y133071D01*
X143438D01*
X143570Y133202D01*
Y133727D01*
X143438Y133858D01*
X143176D01*
X143045Y133727D01*
Y133596D01*
X143176Y133465D01*
X143570D01*
X143832Y133727D02*
X143963Y133858D01*
X144225D01*
X144357Y133727D01*
Y133596D01*
X144225Y133465D01*
X144357Y133333D01*
Y133202D01*
X144225Y133071D01*
X143963D01*
X143832Y133202D01*
Y133333D01*
X143963Y133465D01*
X143832Y133596D01*
Y133727D01*
X143963Y133465D02*
X144225D01*
X121129Y133727D02*
X120998Y133858D01*
X120735D01*
X120604Y133727D01*
Y133202D01*
X120735Y133071D01*
X120998D01*
X121129Y133202D01*
X121391D02*
X121522Y133071D01*
X121785D01*
X121916Y133202D01*
Y133727D01*
X121785Y133858D01*
X121522D01*
X121391Y133727D01*
Y133596D01*
X121522Y133465D01*
X121916D01*
X122178Y133858D02*
X122703D01*
Y133727D01*
X122178Y133202D01*
Y133071D01*
X445932Y155380D02*
X445801Y155512D01*
X445538D01*
X445407Y155380D01*
Y154856D01*
X445538Y154725D01*
X445801D01*
X445932Y154856D01*
X446194D02*
X446325Y154725D01*
X446588D01*
X446719Y154856D01*
Y155380D01*
X446588Y155512D01*
X446325D01*
X446194Y155380D01*
Y155249D01*
X446325Y155118D01*
X446719D01*
X447506Y155512D02*
X447244Y155380D01*
X446981Y155118D01*
Y154856D01*
X447113Y154725D01*
X447375D01*
X447506Y154856D01*
Y154987D01*
X447375Y155118D01*
X446981D01*
X424278Y155380D02*
X424147Y155512D01*
X423885D01*
X423754Y155380D01*
Y154856D01*
X423885Y154725D01*
X424147D01*
X424278Y154856D01*
X424541D02*
X424672Y154725D01*
X424934D01*
X425066Y154856D01*
Y155380D01*
X424934Y155512D01*
X424672D01*
X424541Y155380D01*
Y155249D01*
X424672Y155118D01*
X425066D01*
X425853Y155512D02*
X425328D01*
Y155118D01*
X425590Y155249D01*
X425722D01*
X425853Y155118D01*
Y154856D01*
X425722Y154725D01*
X425459D01*
X425328Y154856D01*
X402625Y155380D02*
X402494Y155512D01*
X402231D01*
X402100Y155380D01*
Y154856D01*
X402231Y154725D01*
X402494D01*
X402625Y154856D01*
X402887D02*
X403018Y154725D01*
X403281D01*
X403412Y154856D01*
Y155380D01*
X403281Y155512D01*
X403018D01*
X402887Y155380D01*
Y155249D01*
X403018Y155118D01*
X403412D01*
X404068Y154725D02*
Y155512D01*
X403674Y155118D01*
X404199D01*
X380971Y155380D02*
X380840Y155512D01*
X380578D01*
X380447Y155380D01*
Y154856D01*
X380578Y154725D01*
X380840D01*
X380971Y154856D01*
X381234D02*
X381365Y154725D01*
X381627D01*
X381758Y154856D01*
Y155380D01*
X381627Y155512D01*
X381365D01*
X381234Y155380D01*
Y155249D01*
X381365Y155118D01*
X381758D01*
X382021Y155380D02*
X382152Y155512D01*
X382414D01*
X382546Y155380D01*
Y155249D01*
X382414Y155118D01*
X382283D01*
X382414D01*
X382546Y154987D01*
Y154856D01*
X382414Y154725D01*
X382152D01*
X382021Y154856D01*
X359318Y155380D02*
X359187Y155512D01*
X358924D01*
X358793Y155380D01*
Y154856D01*
X358924Y154725D01*
X359187D01*
X359318Y154856D01*
X359580D02*
X359711Y154725D01*
X359974D01*
X360105Y154856D01*
Y155380D01*
X359974Y155512D01*
X359711D01*
X359580Y155380D01*
Y155249D01*
X359711Y155118D01*
X360105D01*
X360892Y154725D02*
X360367D01*
X360892Y155249D01*
Y155380D01*
X360761Y155512D01*
X360498D01*
X360367Y155380D01*
X337795D02*
X337664Y155512D01*
X337402D01*
X337271Y155380D01*
Y154856D01*
X337402Y154725D01*
X337664D01*
X337795Y154856D01*
X338058D02*
X338189Y154725D01*
X338451D01*
X338582Y154856D01*
Y155380D01*
X338451Y155512D01*
X338189D01*
X338058Y155380D01*
Y155249D01*
X338189Y155118D01*
X338582D01*
X338845Y154725D02*
X339107D01*
X338976D01*
Y155512D01*
X338845Y155380D01*
X316011D02*
X315880Y155512D01*
X315617D01*
X315486Y155380D01*
Y154856D01*
X315617Y154725D01*
X315880D01*
X316011Y154856D01*
X316273D02*
X316404Y154725D01*
X316667D01*
X316798Y154856D01*
Y155380D01*
X316667Y155512D01*
X316404D01*
X316273Y155380D01*
Y155249D01*
X316404Y155118D01*
X316798D01*
X317060Y155380D02*
X317191Y155512D01*
X317454D01*
X317585Y155380D01*
Y154856D01*
X317454Y154725D01*
X317191D01*
X317060Y154856D01*
Y155380D01*
X294357D02*
X294226Y155512D01*
X293964D01*
X293832Y155380D01*
Y154856D01*
X293964Y154725D01*
X294226D01*
X294357Y154856D01*
X294619Y155380D02*
X294751Y155512D01*
X295013D01*
X295144Y155380D01*
Y155249D01*
X295013Y155118D01*
X295144Y154987D01*
Y154856D01*
X295013Y154725D01*
X294751D01*
X294619Y154856D01*
Y154987D01*
X294751Y155118D01*
X294619Y155249D01*
Y155380D01*
X294751Y155118D02*
X295013D01*
X295407Y154856D02*
X295538Y154725D01*
X295800D01*
X295931Y154856D01*
Y155380D01*
X295800Y155512D01*
X295538D01*
X295407Y155380D01*
Y155249D01*
X295538Y155118D01*
X295931D01*
X272704Y155380D02*
X272572Y155512D01*
X272310D01*
X272179Y155380D01*
Y154856D01*
X272310Y154725D01*
X272572D01*
X272704Y154856D01*
X272966Y155380D02*
X273097Y155512D01*
X273359D01*
X273491Y155380D01*
Y155249D01*
X273359Y155118D01*
X273491Y154987D01*
Y154856D01*
X273359Y154725D01*
X273097D01*
X272966Y154856D01*
Y154987D01*
X273097Y155118D01*
X272966Y155249D01*
Y155380D01*
X273097Y155118D02*
X273359D01*
X273753Y155380D02*
X273884Y155512D01*
X274147D01*
X274278Y155380D01*
Y155249D01*
X274147Y155118D01*
X274278Y154987D01*
Y154856D01*
X274147Y154725D01*
X273884D01*
X273753Y154856D01*
Y154987D01*
X273884Y155118D01*
X273753Y155249D01*
Y155380D01*
X273884Y155118D02*
X274147D01*
X251050Y155380D02*
X250919Y155512D01*
X250657D01*
X250525Y155380D01*
Y154856D01*
X250657Y154725D01*
X250919D01*
X251050Y154856D01*
X251312Y155380D02*
X251444Y155512D01*
X251706D01*
X251837Y155380D01*
Y155249D01*
X251706Y155118D01*
X251837Y154987D01*
Y154856D01*
X251706Y154725D01*
X251444D01*
X251312Y154856D01*
Y154987D01*
X251444Y155118D01*
X251312Y155249D01*
Y155380D01*
X251444Y155118D02*
X251706D01*
X252100Y155512D02*
X252624D01*
Y155380D01*
X252100Y154856D01*
Y154725D01*
X229397Y155380D02*
X229265Y155512D01*
X229003D01*
X228872Y155380D01*
Y154856D01*
X229003Y154725D01*
X229265D01*
X229397Y154856D01*
X229659Y155380D02*
X229790Y155512D01*
X230052D01*
X230184Y155380D01*
Y155249D01*
X230052Y155118D01*
X230184Y154987D01*
Y154856D01*
X230052Y154725D01*
X229790D01*
X229659Y154856D01*
Y154987D01*
X229790Y155118D01*
X229659Y155249D01*
Y155380D01*
X229790Y155118D02*
X230052D01*
X230971Y155512D02*
X230708Y155380D01*
X230446Y155118D01*
Y154856D01*
X230577Y154725D01*
X230840D01*
X230971Y154856D01*
Y154987D01*
X230840Y155118D01*
X230446D01*
X207743Y155380D02*
X207612Y155512D01*
X207349D01*
X207218Y155380D01*
Y154856D01*
X207349Y154725D01*
X207612D01*
X207743Y154856D01*
X208005Y155380D02*
X208137Y155512D01*
X208399D01*
X208530Y155380D01*
Y155249D01*
X208399Y155118D01*
X208530Y154987D01*
Y154856D01*
X208399Y154725D01*
X208137D01*
X208005Y154856D01*
Y154987D01*
X208137Y155118D01*
X208005Y155249D01*
Y155380D01*
X208137Y155118D02*
X208399D01*
X209317Y155512D02*
X208792D01*
Y155118D01*
X209055Y155249D01*
X209186D01*
X209317Y155118D01*
Y154856D01*
X209186Y154725D01*
X208924D01*
X208792Y154856D01*
X186089Y155380D02*
X185958Y155512D01*
X185696D01*
X185565Y155380D01*
Y154856D01*
X185696Y154725D01*
X185958D01*
X186089Y154856D01*
X186352Y155380D02*
X186483Y155512D01*
X186745D01*
X186876Y155380D01*
Y155249D01*
X186745Y155118D01*
X186876Y154987D01*
Y154856D01*
X186745Y154725D01*
X186483D01*
X186352Y154856D01*
Y154987D01*
X186483Y155118D01*
X186352Y155249D01*
Y155380D01*
X186483Y155118D02*
X186745D01*
X187532Y154725D02*
Y155512D01*
X187139Y155118D01*
X187664D01*
X164436Y155380D02*
X164305Y155512D01*
X164042D01*
X163911Y155380D01*
Y154856D01*
X164042Y154725D01*
X164305D01*
X164436Y154856D01*
X164698Y155380D02*
X164829Y155512D01*
X165092D01*
X165223Y155380D01*
Y155249D01*
X165092Y155118D01*
X165223Y154987D01*
Y154856D01*
X165092Y154725D01*
X164829D01*
X164698Y154856D01*
Y154987D01*
X164829Y155118D01*
X164698Y155249D01*
Y155380D01*
X164829Y155118D02*
X165092D01*
X165485Y155380D02*
X165617Y155512D01*
X165879D01*
X166010Y155380D01*
Y155249D01*
X165879Y155118D01*
X165748D01*
X165879D01*
X166010Y154987D01*
Y154856D01*
X165879Y154725D01*
X165617D01*
X165485Y154856D01*
X142782Y155380D02*
X142651Y155512D01*
X142389D01*
X142258Y155380D01*
Y154856D01*
X142389Y154725D01*
X142651D01*
X142782Y154856D01*
X143045Y155380D02*
X143176Y155512D01*
X143438D01*
X143570Y155380D01*
Y155249D01*
X143438Y155118D01*
X143570Y154987D01*
Y154856D01*
X143438Y154725D01*
X143176D01*
X143045Y154856D01*
Y154987D01*
X143176Y155118D01*
X143045Y155249D01*
Y155380D01*
X143176Y155118D02*
X143438D01*
X144357Y154725D02*
X143832D01*
X144357Y155249D01*
Y155380D01*
X144225Y155512D01*
X143963D01*
X143832Y155380D01*
X121260D02*
X121129Y155512D01*
X120866D01*
X120735Y155380D01*
Y154856D01*
X120866Y154725D01*
X121129D01*
X121260Y154856D01*
X121522Y155380D02*
X121653Y155512D01*
X121916D01*
X122047Y155380D01*
Y155249D01*
X121916Y155118D01*
X122047Y154987D01*
Y154856D01*
X121916Y154725D01*
X121653D01*
X121522Y154856D01*
Y154987D01*
X121653Y155118D01*
X121522Y155249D01*
Y155380D01*
X121653Y155118D02*
X121916D01*
X122310Y154725D02*
X122572D01*
X122441D01*
Y155512D01*
X122310Y155380D01*
X445932Y177034D02*
X445801Y177165D01*
X445538D01*
X445407Y177034D01*
Y176509D01*
X445538Y176378D01*
X445801D01*
X445932Y176509D01*
X446194Y177034D02*
X446325Y177165D01*
X446588D01*
X446719Y177034D01*
Y176903D01*
X446588Y176772D01*
X446719Y176640D01*
Y176509D01*
X446588Y176378D01*
X446325D01*
X446194Y176509D01*
Y176640D01*
X446325Y176772D01*
X446194Y176903D01*
Y177034D01*
X446325Y176772D02*
X446588D01*
X446981Y177034D02*
X447113Y177165D01*
X447375D01*
X447506Y177034D01*
Y176509D01*
X447375Y176378D01*
X447113D01*
X446981Y176509D01*
Y177034D01*
X424278D02*
X424147Y177165D01*
X423885D01*
X423754Y177034D01*
Y176509D01*
X423885Y176378D01*
X424147D01*
X424278Y176509D01*
X424541Y177165D02*
X425066D01*
Y177034D01*
X424541Y176509D01*
Y176378D01*
X425328Y176509D02*
X425459Y176378D01*
X425722D01*
X425853Y176509D01*
Y177034D01*
X425722Y177165D01*
X425459D01*
X425328Y177034D01*
Y176903D01*
X425459Y176772D01*
X425853D01*
X402625Y177034D02*
X402494Y177165D01*
X402231D01*
X402100Y177034D01*
Y176509D01*
X402231Y176378D01*
X402494D01*
X402625Y176509D01*
X402887Y177165D02*
X403412D01*
Y177034D01*
X402887Y176509D01*
Y176378D01*
X403674Y177034D02*
X403806Y177165D01*
X404068D01*
X404199Y177034D01*
Y176903D01*
X404068Y176772D01*
X404199Y176640D01*
Y176509D01*
X404068Y176378D01*
X403806D01*
X403674Y176509D01*
Y176640D01*
X403806Y176772D01*
X403674Y176903D01*
Y177034D01*
X403806Y176772D02*
X404068D01*
X380971Y177034D02*
X380840Y177165D01*
X380578D01*
X380447Y177034D01*
Y176509D01*
X380578Y176378D01*
X380840D01*
X380971Y176509D01*
X381234Y177165D02*
X381758D01*
Y177034D01*
X381234Y176509D01*
Y176378D01*
X382021Y177165D02*
X382546D01*
Y177034D01*
X382021Y176509D01*
Y176378D01*
X359318Y177034D02*
X359187Y177165D01*
X358924D01*
X358793Y177034D01*
Y176509D01*
X358924Y176378D01*
X359187D01*
X359318Y176509D01*
X359580Y177165D02*
X360105D01*
Y177034D01*
X359580Y176509D01*
Y176378D01*
X360892Y177165D02*
X360630Y177034D01*
X360367Y176772D01*
Y176509D01*
X360498Y176378D01*
X360761D01*
X360892Y176509D01*
Y176640D01*
X360761Y176772D01*
X360367D01*
X337664Y177034D02*
X337533Y177165D01*
X337271D01*
X337139Y177034D01*
Y176509D01*
X337271Y176378D01*
X337533D01*
X337664Y176509D01*
X337927Y177165D02*
X338451D01*
Y177034D01*
X337927Y176509D01*
Y176378D01*
X339239Y177165D02*
X338714D01*
Y176772D01*
X338976Y176903D01*
X339107D01*
X339239Y176772D01*
Y176509D01*
X339107Y176378D01*
X338845D01*
X338714Y176509D01*
X316011Y177034D02*
X315880Y177165D01*
X315617D01*
X315486Y177034D01*
Y176509D01*
X315617Y176378D01*
X315880D01*
X316011Y176509D01*
X316273Y177165D02*
X316798D01*
Y177034D01*
X316273Y176509D01*
Y176378D01*
X317454D02*
Y177165D01*
X317060Y176772D01*
X317585D01*
X294357Y177034D02*
X294226Y177165D01*
X293964D01*
X293832Y177034D01*
Y176509D01*
X293964Y176378D01*
X294226D01*
X294357Y176509D01*
X294619Y177165D02*
X295144D01*
Y177034D01*
X294619Y176509D01*
Y176378D01*
X295407Y177034D02*
X295538Y177165D01*
X295800D01*
X295931Y177034D01*
Y176903D01*
X295800Y176772D01*
X295669D01*
X295800D01*
X295931Y176640D01*
Y176509D01*
X295800Y176378D01*
X295538D01*
X295407Y176509D01*
X272704Y177034D02*
X272572Y177165D01*
X272310D01*
X272179Y177034D01*
Y176509D01*
X272310Y176378D01*
X272572D01*
X272704Y176509D01*
X272966Y177165D02*
X273491D01*
Y177034D01*
X272966Y176509D01*
Y176378D01*
X274278D02*
X273753D01*
X274278Y176903D01*
Y177034D01*
X274147Y177165D01*
X273884D01*
X273753Y177034D01*
X251181D02*
X251050Y177165D01*
X250788D01*
X250657Y177034D01*
Y176509D01*
X250788Y176378D01*
X251050D01*
X251181Y176509D01*
X251444Y177165D02*
X251968D01*
Y177034D01*
X251444Y176509D01*
Y176378D01*
X252231D02*
X252493D01*
X252362D01*
Y177165D01*
X252231Y177034D01*
X229397D02*
X229265Y177165D01*
X229003D01*
X228872Y177034D01*
Y176509D01*
X229003Y176378D01*
X229265D01*
X229397Y176509D01*
X229659Y177165D02*
X230184D01*
Y177034D01*
X229659Y176509D01*
Y176378D01*
X230446Y177034D02*
X230577Y177165D01*
X230840D01*
X230971Y177034D01*
Y176509D01*
X230840Y176378D01*
X230577D01*
X230446Y176509D01*
Y177034D01*
X207743D02*
X207612Y177165D01*
X207349D01*
X207218Y177034D01*
Y176509D01*
X207349Y176378D01*
X207612D01*
X207743Y176509D01*
X208530Y177165D02*
X208268Y177034D01*
X208005Y176772D01*
Y176509D01*
X208137Y176378D01*
X208399D01*
X208530Y176509D01*
Y176640D01*
X208399Y176772D01*
X208005D01*
X208792Y176509D02*
X208924Y176378D01*
X209186D01*
X209317Y176509D01*
Y177034D01*
X209186Y177165D01*
X208924D01*
X208792Y177034D01*
Y176903D01*
X208924Y176772D01*
X209317D01*
X186089Y177034D02*
X185958Y177165D01*
X185696D01*
X185565Y177034D01*
Y176509D01*
X185696Y176378D01*
X185958D01*
X186089Y176509D01*
X186876Y177165D02*
X186614Y177034D01*
X186352Y176772D01*
Y176509D01*
X186483Y176378D01*
X186745D01*
X186876Y176509D01*
Y176640D01*
X186745Y176772D01*
X186352D01*
X187139Y177034D02*
X187270Y177165D01*
X187532D01*
X187664Y177034D01*
Y176903D01*
X187532Y176772D01*
X187664Y176640D01*
Y176509D01*
X187532Y176378D01*
X187270D01*
X187139Y176509D01*
Y176640D01*
X187270Y176772D01*
X187139Y176903D01*
Y177034D01*
X187270Y176772D02*
X187532D01*
X164436Y177034D02*
X164305Y177165D01*
X164042D01*
X163911Y177034D01*
Y176509D01*
X164042Y176378D01*
X164305D01*
X164436Y176509D01*
X165223Y177165D02*
X164961Y177034D01*
X164698Y176772D01*
Y176509D01*
X164829Y176378D01*
X165092D01*
X165223Y176509D01*
Y176640D01*
X165092Y176772D01*
X164698D01*
X165485Y177165D02*
X166010D01*
Y177034D01*
X165485Y176509D01*
Y176378D01*
X142782Y177034D02*
X142651Y177165D01*
X142389D01*
X142258Y177034D01*
Y176509D01*
X142389Y176378D01*
X142651D01*
X142782Y176509D01*
X143570Y177165D02*
X143307Y177034D01*
X143045Y176772D01*
Y176509D01*
X143176Y176378D01*
X143438D01*
X143570Y176509D01*
Y176640D01*
X143438Y176772D01*
X143045D01*
X144357Y177165D02*
X144094Y177034D01*
X143832Y176772D01*
Y176509D01*
X143963Y176378D01*
X144225D01*
X144357Y176509D01*
Y176640D01*
X144225Y176772D01*
X143832D01*
X121129Y177034D02*
X120998Y177165D01*
X120735D01*
X120604Y177034D01*
Y176509D01*
X120735Y176378D01*
X120998D01*
X121129Y176509D01*
X121916Y177165D02*
X121653Y177034D01*
X121391Y176772D01*
Y176509D01*
X121522Y176378D01*
X121785D01*
X121916Y176509D01*
Y176640D01*
X121785Y176772D01*
X121391D01*
X122703Y177165D02*
X122178D01*
Y176772D01*
X122441Y176903D01*
X122572D01*
X122703Y176772D01*
Y176509D01*
X122572Y176378D01*
X122310D01*
X122178Y176509D01*
X445932Y198688D02*
X445801Y198819D01*
X445538D01*
X445407Y198688D01*
Y198163D01*
X445538Y198032D01*
X445801D01*
X445932Y198163D01*
X446719Y198819D02*
X446457Y198688D01*
X446194Y198425D01*
Y198163D01*
X446325Y198032D01*
X446588D01*
X446719Y198163D01*
Y198294D01*
X446588Y198425D01*
X446194D01*
X447375Y198032D02*
Y198819D01*
X446981Y198425D01*
X447506D01*
X424278Y198688D02*
X424147Y198819D01*
X423885D01*
X423754Y198688D01*
Y198163D01*
X423885Y198032D01*
X424147D01*
X424278Y198163D01*
X425066Y198819D02*
X424803Y198688D01*
X424541Y198425D01*
Y198163D01*
X424672Y198032D01*
X424934D01*
X425066Y198163D01*
Y198294D01*
X424934Y198425D01*
X424541D01*
X425328Y198688D02*
X425459Y198819D01*
X425722D01*
X425853Y198688D01*
Y198556D01*
X425722Y198425D01*
X425590D01*
X425722D01*
X425853Y198294D01*
Y198163D01*
X425722Y198032D01*
X425459D01*
X425328Y198163D01*
X402625Y198688D02*
X402494Y198819D01*
X402231D01*
X402100Y198688D01*
Y198163D01*
X402231Y198032D01*
X402494D01*
X402625Y198163D01*
X403412Y198819D02*
X403150Y198688D01*
X402887Y198425D01*
Y198163D01*
X403018Y198032D01*
X403281D01*
X403412Y198163D01*
Y198294D01*
X403281Y198425D01*
X402887D01*
X404199Y198032D02*
X403674D01*
X404199Y198556D01*
Y198688D01*
X404068Y198819D01*
X403806D01*
X403674Y198688D01*
X381102D02*
X380971Y198819D01*
X380709D01*
X380578Y198688D01*
Y198163D01*
X380709Y198032D01*
X380971D01*
X381102Y198163D01*
X381890Y198819D02*
X381627Y198688D01*
X381365Y198425D01*
Y198163D01*
X381496Y198032D01*
X381758D01*
X381890Y198163D01*
Y198294D01*
X381758Y198425D01*
X381365D01*
X382152Y198032D02*
X382414D01*
X382283D01*
Y198819D01*
X382152Y198688D01*
X359318D02*
X359187Y198819D01*
X358924D01*
X358793Y198688D01*
Y198163D01*
X358924Y198032D01*
X359187D01*
X359318Y198163D01*
X360105Y198819D02*
X359842Y198688D01*
X359580Y198425D01*
Y198163D01*
X359711Y198032D01*
X359974D01*
X360105Y198163D01*
Y198294D01*
X359974Y198425D01*
X359580D01*
X360367Y198688D02*
X360498Y198819D01*
X360761D01*
X360892Y198688D01*
Y198163D01*
X360761Y198032D01*
X360498D01*
X360367Y198163D01*
Y198688D01*
X336625Y205956D02*
X336494Y206087D01*
X336231D01*
X336100Y205956D01*
Y205431D01*
X336231Y205300D01*
X336494D01*
X336625Y205431D01*
X337412Y206087D02*
X336887D01*
Y205694D01*
X337150Y205825D01*
X337281D01*
X337412Y205694D01*
Y205431D01*
X337281Y205300D01*
X337018D01*
X336887Y205431D01*
X337674D02*
X337806Y205300D01*
X338068D01*
X338199Y205431D01*
Y205956D01*
X338068Y206087D01*
X337806D01*
X337674Y205956D01*
Y205825D01*
X337806Y205694D01*
X338199D01*
X316011Y198688D02*
X315880Y198819D01*
X315617D01*
X315486Y198688D01*
Y198163D01*
X315617Y198032D01*
X315880D01*
X316011Y198163D01*
X316798Y198819D02*
X316273D01*
Y198425D01*
X316535Y198556D01*
X316667D01*
X316798Y198425D01*
Y198163D01*
X316667Y198032D01*
X316404D01*
X316273Y198163D01*
X317060Y198688D02*
X317191Y198819D01*
X317454D01*
X317585Y198688D01*
Y198556D01*
X317454Y198425D01*
X317585Y198294D01*
Y198163D01*
X317454Y198032D01*
X317191D01*
X317060Y198163D01*
Y198294D01*
X317191Y198425D01*
X317060Y198556D01*
Y198688D01*
X317191Y198425D02*
X317454D01*
X294357Y198688D02*
X294226Y198819D01*
X293964D01*
X293832Y198688D01*
Y198163D01*
X293964Y198032D01*
X294226D01*
X294357Y198163D01*
X295144Y198819D02*
X294619D01*
Y198425D01*
X294882Y198556D01*
X295013D01*
X295144Y198425D01*
Y198163D01*
X295013Y198032D01*
X294751D01*
X294619Y198163D01*
X295407Y198819D02*
X295931D01*
Y198688D01*
X295407Y198163D01*
Y198032D01*
X272704Y198688D02*
X272572Y198819D01*
X272310D01*
X272179Y198688D01*
Y198163D01*
X272310Y198032D01*
X272572D01*
X272704Y198163D01*
X273491Y198819D02*
X272966D01*
Y198425D01*
X273228Y198556D01*
X273359D01*
X273491Y198425D01*
Y198163D01*
X273359Y198032D01*
X273097D01*
X272966Y198163D01*
X274278Y198819D02*
X274015Y198688D01*
X273753Y198425D01*
Y198163D01*
X273884Y198032D01*
X274147D01*
X274278Y198163D01*
Y198294D01*
X274147Y198425D01*
X273753D01*
X251050Y198688D02*
X250919Y198819D01*
X250657D01*
X250525Y198688D01*
Y198163D01*
X250657Y198032D01*
X250919D01*
X251050Y198163D01*
X251837Y198819D02*
X251312D01*
Y198425D01*
X251575Y198556D01*
X251706D01*
X251837Y198425D01*
Y198163D01*
X251706Y198032D01*
X251444D01*
X251312Y198163D01*
X252624Y198819D02*
X252100D01*
Y198425D01*
X252362Y198556D01*
X252493D01*
X252624Y198425D01*
Y198163D01*
X252493Y198032D01*
X252231D01*
X252100Y198163D01*
X229397Y198688D02*
X229265Y198819D01*
X229003D01*
X228872Y198688D01*
Y198163D01*
X229003Y198032D01*
X229265D01*
X229397Y198163D01*
X230184Y198819D02*
X229659D01*
Y198425D01*
X229921Y198556D01*
X230052D01*
X230184Y198425D01*
Y198163D01*
X230052Y198032D01*
X229790D01*
X229659Y198163D01*
X230840Y198032D02*
Y198819D01*
X230446Y198425D01*
X230971D01*
X207743Y198688D02*
X207612Y198819D01*
X207349D01*
X207218Y198688D01*
Y198163D01*
X207349Y198032D01*
X207612D01*
X207743Y198163D01*
X208530Y198819D02*
X208005D01*
Y198425D01*
X208268Y198556D01*
X208399D01*
X208530Y198425D01*
Y198163D01*
X208399Y198032D01*
X208137D01*
X208005Y198163D01*
X208792Y198688D02*
X208924Y198819D01*
X209186D01*
X209317Y198688D01*
Y198556D01*
X209186Y198425D01*
X209055D01*
X209186D01*
X209317Y198294D01*
Y198163D01*
X209186Y198032D01*
X208924D01*
X208792Y198163D01*
X186089Y198688D02*
X185958Y198819D01*
X185696D01*
X185565Y198688D01*
Y198163D01*
X185696Y198032D01*
X185958D01*
X186089Y198163D01*
X186876Y198819D02*
X186352D01*
Y198425D01*
X186614Y198556D01*
X186745D01*
X186876Y198425D01*
Y198163D01*
X186745Y198032D01*
X186483D01*
X186352Y198163D01*
X187664Y198032D02*
X187139D01*
X187664Y198556D01*
Y198688D01*
X187532Y198819D01*
X187270D01*
X187139Y198688D01*
X164567D02*
X164436Y198819D01*
X164173D01*
X164042Y198688D01*
Y198163D01*
X164173Y198032D01*
X164436D01*
X164567Y198163D01*
X165354Y198819D02*
X164829D01*
Y198425D01*
X165092Y198556D01*
X165223D01*
X165354Y198425D01*
Y198163D01*
X165223Y198032D01*
X164961D01*
X164829Y198163D01*
X165617Y198032D02*
X165879D01*
X165748D01*
Y198819D01*
X165617Y198688D01*
X142782D02*
X142651Y198819D01*
X142389D01*
X142258Y198688D01*
Y198163D01*
X142389Y198032D01*
X142651D01*
X142782Y198163D01*
X143570Y198819D02*
X143045D01*
Y198425D01*
X143307Y198556D01*
X143438D01*
X143570Y198425D01*
Y198163D01*
X143438Y198032D01*
X143176D01*
X143045Y198163D01*
X143832Y198688D02*
X143963Y198819D01*
X144225D01*
X144357Y198688D01*
Y198163D01*
X144225Y198032D01*
X143963D01*
X143832Y198163D01*
Y198688D01*
X121129D02*
X120998Y198819D01*
X120735D01*
X120604Y198688D01*
Y198163D01*
X120735Y198032D01*
X120998D01*
X121129Y198163D01*
X121785Y198032D02*
Y198819D01*
X121391Y198425D01*
X121916D01*
X122178Y198163D02*
X122310Y198032D01*
X122572D01*
X122703Y198163D01*
Y198688D01*
X122572Y198819D01*
X122310D01*
X122178Y198688D01*
Y198556D01*
X122310Y198425D01*
X122703D01*
X445932Y220341D02*
X445801Y220472D01*
X445538D01*
X445407Y220341D01*
Y219816D01*
X445538Y219685D01*
X445801D01*
X445932Y219816D01*
X446588Y219685D02*
Y220472D01*
X446194Y220079D01*
X446719D01*
X446981Y220341D02*
X447113Y220472D01*
X447375D01*
X447506Y220341D01*
Y220210D01*
X447375Y220079D01*
X447506Y219948D01*
Y219816D01*
X447375Y219685D01*
X447113D01*
X446981Y219816D01*
Y219948D01*
X447113Y220079D01*
X446981Y220210D01*
Y220341D01*
X447113Y220079D02*
X447375D01*
X424278Y220341D02*
X424147Y220472D01*
X423885D01*
X423754Y220341D01*
Y219816D01*
X423885Y219685D01*
X424147D01*
X424278Y219816D01*
X424934Y219685D02*
Y220472D01*
X424541Y220079D01*
X425066D01*
X425328Y220472D02*
X425853D01*
Y220341D01*
X425328Y219816D01*
Y219685D01*
X402625Y220341D02*
X402494Y220472D01*
X402231D01*
X402100Y220341D01*
Y219816D01*
X402231Y219685D01*
X402494D01*
X402625Y219816D01*
X403281Y219685D02*
Y220472D01*
X402887Y220079D01*
X403412D01*
X404199Y220472D02*
X403937Y220341D01*
X403674Y220079D01*
Y219816D01*
X403806Y219685D01*
X404068D01*
X404199Y219816D01*
Y219948D01*
X404068Y220079D01*
X403674D01*
X380971Y220341D02*
X380840Y220472D01*
X380578D01*
X380447Y220341D01*
Y219816D01*
X380578Y219685D01*
X380840D01*
X380971Y219816D01*
X381627Y219685D02*
Y220472D01*
X381234Y220079D01*
X381758D01*
X382546Y220472D02*
X382021D01*
Y220079D01*
X382283Y220210D01*
X382414D01*
X382546Y220079D01*
Y219816D01*
X382414Y219685D01*
X382152D01*
X382021Y219816D01*
X359318Y220341D02*
X359187Y220472D01*
X358924D01*
X358793Y220341D01*
Y219816D01*
X358924Y219685D01*
X359187D01*
X359318Y219816D01*
X359974Y219685D02*
Y220472D01*
X359580Y220079D01*
X360105D01*
X360761Y219685D02*
Y220472D01*
X360367Y220079D01*
X360892D01*
X337664Y220341D02*
X337533Y220472D01*
X337271D01*
X337139Y220341D01*
Y219816D01*
X337271Y219685D01*
X337533D01*
X337664Y219816D01*
X338320Y219685D02*
Y220472D01*
X337927Y220079D01*
X338451D01*
X338714Y220341D02*
X338845Y220472D01*
X339107D01*
X339239Y220341D01*
Y220210D01*
X339107Y220079D01*
X338976D01*
X339107D01*
X339239Y219948D01*
Y219816D01*
X339107Y219685D01*
X338845D01*
X338714Y219816D01*
X316011Y220341D02*
X315880Y220472D01*
X315617D01*
X315486Y220341D01*
Y219816D01*
X315617Y219685D01*
X315880D01*
X316011Y219816D01*
X316667Y219685D02*
Y220472D01*
X316273Y220079D01*
X316798D01*
X317585Y219685D02*
X317060D01*
X317585Y220210D01*
Y220341D01*
X317454Y220472D01*
X317191D01*
X317060Y220341D01*
X294488D02*
X294357Y220472D01*
X294095D01*
X293964Y220341D01*
Y219816D01*
X294095Y219685D01*
X294357D01*
X294488Y219816D01*
X295144Y219685D02*
Y220472D01*
X294751Y220079D01*
X295275D01*
X295538Y219685D02*
X295800D01*
X295669D01*
Y220472D01*
X295538Y220341D01*
X272704D02*
X272572Y220472D01*
X272310D01*
X272179Y220341D01*
Y219816D01*
X272310Y219685D01*
X272572D01*
X272704Y219816D01*
X273359Y219685D02*
Y220472D01*
X272966Y220079D01*
X273491D01*
X273753Y220341D02*
X273884Y220472D01*
X274147D01*
X274278Y220341D01*
Y219816D01*
X274147Y219685D01*
X273884D01*
X273753Y219816D01*
Y220341D01*
X251050D02*
X250919Y220472D01*
X250657D01*
X250525Y220341D01*
Y219816D01*
X250657Y219685D01*
X250919D01*
X251050Y219816D01*
X251312Y220341D02*
X251444Y220472D01*
X251706D01*
X251837Y220341D01*
Y220210D01*
X251706Y220079D01*
X251575D01*
X251706D01*
X251837Y219948D01*
Y219816D01*
X251706Y219685D01*
X251444D01*
X251312Y219816D01*
X252100D02*
X252231Y219685D01*
X252493D01*
X252624Y219816D01*
Y220341D01*
X252493Y220472D01*
X252231D01*
X252100Y220341D01*
Y220210D01*
X252231Y220079D01*
X252624D01*
X229397Y220341D02*
X229265Y220472D01*
X229003D01*
X228872Y220341D01*
Y219816D01*
X229003Y219685D01*
X229265D01*
X229397Y219816D01*
X229659Y220341D02*
X229790Y220472D01*
X230052D01*
X230184Y220341D01*
Y220210D01*
X230052Y220079D01*
X229921D01*
X230052D01*
X230184Y219948D01*
Y219816D01*
X230052Y219685D01*
X229790D01*
X229659Y219816D01*
X230446Y220341D02*
X230577Y220472D01*
X230840D01*
X230971Y220341D01*
Y220210D01*
X230840Y220079D01*
X230971Y219948D01*
Y219816D01*
X230840Y219685D01*
X230577D01*
X230446Y219816D01*
Y219948D01*
X230577Y220079D01*
X230446Y220210D01*
Y220341D01*
X230577Y220079D02*
X230840D01*
X207743Y220341D02*
X207612Y220472D01*
X207349D01*
X207218Y220341D01*
Y219816D01*
X207349Y219685D01*
X207612D01*
X207743Y219816D01*
X208005Y220341D02*
X208137Y220472D01*
X208399D01*
X208530Y220341D01*
Y220210D01*
X208399Y220079D01*
X208268D01*
X208399D01*
X208530Y219948D01*
Y219816D01*
X208399Y219685D01*
X208137D01*
X208005Y219816D01*
X208792Y220472D02*
X209317D01*
Y220341D01*
X208792Y219816D01*
Y219685D01*
X186089Y220341D02*
X185958Y220472D01*
X185696D01*
X185565Y220341D01*
Y219816D01*
X185696Y219685D01*
X185958D01*
X186089Y219816D01*
X186352Y220341D02*
X186483Y220472D01*
X186745D01*
X186876Y220341D01*
Y220210D01*
X186745Y220079D01*
X186614D01*
X186745D01*
X186876Y219948D01*
Y219816D01*
X186745Y219685D01*
X186483D01*
X186352Y219816D01*
X187664Y220472D02*
X187401Y220341D01*
X187139Y220079D01*
Y219816D01*
X187270Y219685D01*
X187532D01*
X187664Y219816D01*
Y219948D01*
X187532Y220079D01*
X187139D01*
X164436Y220341D02*
X164305Y220472D01*
X164042D01*
X163911Y220341D01*
Y219816D01*
X164042Y219685D01*
X164305D01*
X164436Y219816D01*
X164698Y220341D02*
X164829Y220472D01*
X165092D01*
X165223Y220341D01*
Y220210D01*
X165092Y220079D01*
X164961D01*
X165092D01*
X165223Y219948D01*
Y219816D01*
X165092Y219685D01*
X164829D01*
X164698Y219816D01*
X166010Y220472D02*
X165485D01*
Y220079D01*
X165748Y220210D01*
X165879D01*
X166010Y220079D01*
Y219816D01*
X165879Y219685D01*
X165617D01*
X165485Y219816D01*
X142782Y220341D02*
X142651Y220472D01*
X142389D01*
X142258Y220341D01*
Y219816D01*
X142389Y219685D01*
X142651D01*
X142782Y219816D01*
X143045Y220341D02*
X143176Y220472D01*
X143438D01*
X143570Y220341D01*
Y220210D01*
X143438Y220079D01*
X143307D01*
X143438D01*
X143570Y219948D01*
Y219816D01*
X143438Y219685D01*
X143176D01*
X143045Y219816D01*
X144225Y219685D02*
Y220472D01*
X143832Y220079D01*
X144357D01*
X121129Y220341D02*
X120998Y220472D01*
X120735D01*
X120604Y220341D01*
Y219816D01*
X120735Y219685D01*
X120998D01*
X121129Y219816D01*
X121391Y220341D02*
X121522Y220472D01*
X121785D01*
X121916Y220341D01*
Y220210D01*
X121785Y220079D01*
X121653D01*
X121785D01*
X121916Y219948D01*
Y219816D01*
X121785Y219685D01*
X121522D01*
X121391Y219816D01*
X122178Y220341D02*
X122310Y220472D01*
X122572D01*
X122703Y220341D01*
Y220210D01*
X122572Y220079D01*
X122441D01*
X122572D01*
X122703Y219948D01*
Y219816D01*
X122572Y219685D01*
X122310D01*
X122178Y219816D01*
X445932Y241995D02*
X445801Y242126D01*
X445538D01*
X445407Y241995D01*
Y241470D01*
X445538Y241339D01*
X445801D01*
X445932Y241470D01*
X446194Y241995D02*
X446325Y242126D01*
X446588D01*
X446719Y241995D01*
Y241863D01*
X446588Y241732D01*
X446457D01*
X446588D01*
X446719Y241601D01*
Y241470D01*
X446588Y241339D01*
X446325D01*
X446194Y241470D01*
X447506Y241339D02*
X446981D01*
X447506Y241863D01*
Y241995D01*
X447375Y242126D01*
X447113D01*
X446981Y241995D01*
X424410D02*
X424278Y242126D01*
X424016D01*
X423885Y241995D01*
Y241470D01*
X424016Y241339D01*
X424278D01*
X424410Y241470D01*
X424672Y241995D02*
X424803Y242126D01*
X425066D01*
X425197Y241995D01*
Y241863D01*
X425066Y241732D01*
X424934D01*
X425066D01*
X425197Y241601D01*
Y241470D01*
X425066Y241339D01*
X424803D01*
X424672Y241470D01*
X425459Y241339D02*
X425722D01*
X425590D01*
Y242126D01*
X425459Y241995D01*
X402625D02*
X402494Y242126D01*
X402231D01*
X402100Y241995D01*
Y241470D01*
X402231Y241339D01*
X402494D01*
X402625Y241470D01*
X402887Y241995D02*
X403018Y242126D01*
X403281D01*
X403412Y241995D01*
Y241863D01*
X403281Y241732D01*
X403150D01*
X403281D01*
X403412Y241601D01*
Y241470D01*
X403281Y241339D01*
X403018D01*
X402887Y241470D01*
X403674Y241995D02*
X403806Y242126D01*
X404068D01*
X404199Y241995D01*
Y241470D01*
X404068Y241339D01*
X403806D01*
X403674Y241470D01*
Y241995D01*
X380971D02*
X380840Y242126D01*
X380578D01*
X380447Y241995D01*
Y241470D01*
X380578Y241339D01*
X380840D01*
X380971Y241470D01*
X381758Y241339D02*
X381234D01*
X381758Y241863D01*
Y241995D01*
X381627Y242126D01*
X381365D01*
X381234Y241995D01*
X382021Y241470D02*
X382152Y241339D01*
X382414D01*
X382546Y241470D01*
Y241995D01*
X382414Y242126D01*
X382152D01*
X382021Y241995D01*
Y241863D01*
X382152Y241732D01*
X382546D01*
X359318Y241995D02*
X359187Y242126D01*
X358924D01*
X358793Y241995D01*
Y241470D01*
X358924Y241339D01*
X359187D01*
X359318Y241470D01*
X360105Y241339D02*
X359580D01*
X360105Y241863D01*
Y241995D01*
X359974Y242126D01*
X359711D01*
X359580Y241995D01*
X360367D02*
X360498Y242126D01*
X360761D01*
X360892Y241995D01*
Y241863D01*
X360761Y241732D01*
X360892Y241601D01*
Y241470D01*
X360761Y241339D01*
X360498D01*
X360367Y241470D01*
Y241601D01*
X360498Y241732D01*
X360367Y241863D01*
Y241995D01*
X360498Y241732D02*
X360761D01*
X337664Y241995D02*
X337533Y242126D01*
X337271D01*
X337139Y241995D01*
Y241470D01*
X337271Y241339D01*
X337533D01*
X337664Y241470D01*
X338451Y241339D02*
X337927D01*
X338451Y241863D01*
Y241995D01*
X338320Y242126D01*
X338058D01*
X337927Y241995D01*
X338714Y242126D02*
X339239D01*
Y241995D01*
X338714Y241470D01*
Y241339D01*
X316011Y241995D02*
X315880Y242126D01*
X315617D01*
X315486Y241995D01*
Y241470D01*
X315617Y241339D01*
X315880D01*
X316011Y241470D01*
X316798Y241339D02*
X316273D01*
X316798Y241863D01*
Y241995D01*
X316667Y242126D01*
X316404D01*
X316273Y241995D01*
X317585Y242126D02*
X317323Y241995D01*
X317060Y241732D01*
Y241470D01*
X317191Y241339D01*
X317454D01*
X317585Y241470D01*
Y241601D01*
X317454Y241732D01*
X317060D01*
X294357Y241995D02*
X294226Y242126D01*
X293964D01*
X293832Y241995D01*
Y241470D01*
X293964Y241339D01*
X294226D01*
X294357Y241470D01*
X295144Y241339D02*
X294619D01*
X295144Y241863D01*
Y241995D01*
X295013Y242126D01*
X294751D01*
X294619Y241995D01*
X295931Y242126D02*
X295407D01*
Y241732D01*
X295669Y241863D01*
X295800D01*
X295931Y241732D01*
Y241470D01*
X295800Y241339D01*
X295538D01*
X295407Y241470D01*
X272704Y241995D02*
X272572Y242126D01*
X272310D01*
X272179Y241995D01*
Y241470D01*
X272310Y241339D01*
X272572D01*
X272704Y241470D01*
X273491Y241339D02*
X272966D01*
X273491Y241863D01*
Y241995D01*
X273359Y242126D01*
X273097D01*
X272966Y241995D01*
X274147Y241339D02*
Y242126D01*
X273753Y241732D01*
X274278D01*
X251050Y241995D02*
X250919Y242126D01*
X250657D01*
X250525Y241995D01*
Y241470D01*
X250657Y241339D01*
X250919D01*
X251050Y241470D01*
X251837Y241339D02*
X251312D01*
X251837Y241863D01*
Y241995D01*
X251706Y242126D01*
X251444D01*
X251312Y241995D01*
X252100D02*
X252231Y242126D01*
X252493D01*
X252624Y241995D01*
Y241863D01*
X252493Y241732D01*
X252362D01*
X252493D01*
X252624Y241601D01*
Y241470D01*
X252493Y241339D01*
X252231D01*
X252100Y241470D01*
X229397Y241995D02*
X229265Y242126D01*
X229003D01*
X228872Y241995D01*
Y241470D01*
X229003Y241339D01*
X229265D01*
X229397Y241470D01*
X230184Y241339D02*
X229659D01*
X230184Y241863D01*
Y241995D01*
X230052Y242126D01*
X229790D01*
X229659Y241995D01*
X230971Y241339D02*
X230446D01*
X230971Y241863D01*
Y241995D01*
X230840Y242126D01*
X230577D01*
X230446Y241995D01*
X207874D02*
X207743Y242126D01*
X207481D01*
X207349Y241995D01*
Y241470D01*
X207481Y241339D01*
X207743D01*
X207874Y241470D01*
X208661Y241339D02*
X208137D01*
X208661Y241863D01*
Y241995D01*
X208530Y242126D01*
X208268D01*
X208137Y241995D01*
X208924Y241339D02*
X209186D01*
X209055D01*
Y242126D01*
X208924Y241995D01*
X186089D02*
X185958Y242126D01*
X185696D01*
X185565Y241995D01*
Y241470D01*
X185696Y241339D01*
X185958D01*
X186089Y241470D01*
X186876Y241339D02*
X186352D01*
X186876Y241863D01*
Y241995D01*
X186745Y242126D01*
X186483D01*
X186352Y241995D01*
X187139D02*
X187270Y242126D01*
X187532D01*
X187664Y241995D01*
Y241470D01*
X187532Y241339D01*
X187270D01*
X187139Y241470D01*
Y241995D01*
X164502D02*
X164370Y242126D01*
X164108D01*
X163977Y241995D01*
Y241470D01*
X164108Y241339D01*
X164370D01*
X164502Y241470D01*
X164764Y241339D02*
X165026D01*
X164895D01*
Y242126D01*
X164764Y241995D01*
X165420Y241470D02*
X165551Y241339D01*
X165813D01*
X165945Y241470D01*
Y241995D01*
X165813Y242126D01*
X165551D01*
X165420Y241995D01*
Y241863D01*
X165551Y241732D01*
X165945D01*
X142848Y241995D02*
X142717Y242126D01*
X142454D01*
X142323Y241995D01*
Y241470D01*
X142454Y241339D01*
X142717D01*
X142848Y241470D01*
X143110Y241339D02*
X143373D01*
X143242D01*
Y242126D01*
X143110Y241995D01*
X143766D02*
X143897Y242126D01*
X144160D01*
X144291Y241995D01*
Y241863D01*
X144160Y241732D01*
X144291Y241601D01*
Y241470D01*
X144160Y241339D01*
X143897D01*
X143766Y241470D01*
Y241601D01*
X143897Y241732D01*
X143766Y241863D01*
Y241995D01*
X143897Y241732D02*
X144160D01*
X121194Y241995D02*
X121063Y242126D01*
X120801D01*
X120670Y241995D01*
Y241470D01*
X120801Y241339D01*
X121063D01*
X121194Y241470D01*
X121457Y241339D02*
X121719D01*
X121588D01*
Y242126D01*
X121457Y241995D01*
X122113Y242126D02*
X122637D01*
Y241995D01*
X122113Y241470D01*
Y241339D01*
X445997Y263648D02*
X445866Y263779D01*
X445604D01*
X445473Y263648D01*
Y263123D01*
X445604Y262992D01*
X445866D01*
X445997Y263123D01*
X446260Y262992D02*
X446522D01*
X446391D01*
Y263779D01*
X446260Y263648D01*
X447441Y263779D02*
X447178Y263648D01*
X446916Y263386D01*
Y263123D01*
X447047Y262992D01*
X447309D01*
X447441Y263123D01*
Y263255D01*
X447309Y263386D01*
X446916D01*
X424344Y263648D02*
X424213Y263779D01*
X423950D01*
X423819Y263648D01*
Y263123D01*
X423950Y262992D01*
X424213D01*
X424344Y263123D01*
X424606Y262992D02*
X424869D01*
X424738D01*
Y263779D01*
X424606Y263648D01*
X425787Y263779D02*
X425262D01*
Y263386D01*
X425525Y263517D01*
X425656D01*
X425787Y263386D01*
Y263123D01*
X425656Y262992D01*
X425393D01*
X425262Y263123D01*
X402690Y263648D02*
X402559Y263779D01*
X402297D01*
X402166Y263648D01*
Y263123D01*
X402297Y262992D01*
X402559D01*
X402690Y263123D01*
X402953Y262992D02*
X403215D01*
X403084D01*
Y263779D01*
X402953Y263648D01*
X404002Y262992D02*
Y263779D01*
X403609Y263386D01*
X404134D01*
X381037Y263648D02*
X380906Y263779D01*
X380643D01*
X380512Y263648D01*
Y263123D01*
X380643Y262992D01*
X380906D01*
X381037Y263123D01*
X381299Y262992D02*
X381562D01*
X381431D01*
Y263779D01*
X381299Y263648D01*
X381955D02*
X382086Y263779D01*
X382349D01*
X382480Y263648D01*
Y263517D01*
X382349Y263386D01*
X382218D01*
X382349D01*
X382480Y263255D01*
Y263123D01*
X382349Y262992D01*
X382086D01*
X381955Y263123D01*
X359383Y263648D02*
X359252Y263779D01*
X358990D01*
X358859Y263648D01*
Y263123D01*
X358990Y262992D01*
X359252D01*
X359383Y263123D01*
X359646Y262992D02*
X359908D01*
X359777D01*
Y263779D01*
X359646Y263648D01*
X360826Y262992D02*
X360302D01*
X360826Y263517D01*
Y263648D01*
X360695Y263779D01*
X360433D01*
X360302Y263648D01*
X337861D02*
X337730Y263779D01*
X337467D01*
X337336Y263648D01*
Y263123D01*
X337467Y262992D01*
X337730D01*
X337861Y263123D01*
X338123Y262992D02*
X338386D01*
X338255D01*
Y263779D01*
X338123Y263648D01*
X338779Y262992D02*
X339042D01*
X338911D01*
Y263779D01*
X338779Y263648D01*
X316076D02*
X315945Y263779D01*
X315683D01*
X315551Y263648D01*
Y263123D01*
X315683Y262992D01*
X315945D01*
X316076Y263123D01*
X316339Y262992D02*
X316601D01*
X316470D01*
Y263779D01*
X316339Y263648D01*
X316995D02*
X317126Y263779D01*
X317388D01*
X317519Y263648D01*
Y263123D01*
X317388Y262992D01*
X317126D01*
X316995Y263123D01*
Y263648D01*
X294751D02*
X294619Y263779D01*
X294357D01*
X294226Y263648D01*
Y263123D01*
X294357Y262992D01*
X294619D01*
X294751Y263123D01*
X295013D02*
X295144Y262992D01*
X295407D01*
X295538Y263123D01*
Y263648D01*
X295407Y263779D01*
X295144D01*
X295013Y263648D01*
Y263517D01*
X295144Y263386D01*
X295538D01*
X273097Y263648D02*
X272966Y263779D01*
X272704D01*
X272572Y263648D01*
Y263123D01*
X272704Y262992D01*
X272966D01*
X273097Y263123D01*
X273359Y263648D02*
X273491Y263779D01*
X273753D01*
X273884Y263648D01*
Y263517D01*
X273753Y263386D01*
X273884Y263255D01*
Y263123D01*
X273753Y262992D01*
X273491D01*
X273359Y263123D01*
Y263255D01*
X273491Y263386D01*
X273359Y263517D01*
Y263648D01*
X273491Y263386D02*
X273753D01*
X251444Y263648D02*
X251312Y263779D01*
X251050D01*
X250919Y263648D01*
Y263123D01*
X251050Y262992D01*
X251312D01*
X251444Y263123D01*
X251706Y263779D02*
X252231D01*
Y263648D01*
X251706Y263123D01*
Y262992D01*
X229790Y263648D02*
X229659Y263779D01*
X229397D01*
X229265Y263648D01*
Y263123D01*
X229397Y262992D01*
X229659D01*
X229790Y263123D01*
X230577Y263779D02*
X230315Y263648D01*
X230052Y263386D01*
Y263123D01*
X230184Y262992D01*
X230446D01*
X230577Y263123D01*
Y263255D01*
X230446Y263386D01*
X230052D01*
X208137Y263648D02*
X208005Y263779D01*
X207743D01*
X207612Y263648D01*
Y263123D01*
X207743Y262992D01*
X208005D01*
X208137Y263123D01*
X208924Y263779D02*
X208399D01*
Y263386D01*
X208661Y263517D01*
X208792D01*
X208924Y263386D01*
Y263123D01*
X208792Y262992D01*
X208530D01*
X208399Y263123D01*
X186483Y263648D02*
X186352Y263779D01*
X186089D01*
X185958Y263648D01*
Y263123D01*
X186089Y262992D01*
X186352D01*
X186483Y263123D01*
X187139Y262992D02*
Y263779D01*
X186745Y263386D01*
X187270D01*
X164829Y263648D02*
X164698Y263779D01*
X164436D01*
X164305Y263648D01*
Y263123D01*
X164436Y262992D01*
X164698D01*
X164829Y263123D01*
X165092Y263648D02*
X165223Y263779D01*
X165485D01*
X165617Y263648D01*
Y263517D01*
X165485Y263386D01*
X165354D01*
X165485D01*
X165617Y263255D01*
Y263123D01*
X165485Y262992D01*
X165223D01*
X165092Y263123D01*
X143176Y263648D02*
X143045Y263779D01*
X142782D01*
X142651Y263648D01*
Y263123D01*
X142782Y262992D01*
X143045D01*
X143176Y263123D01*
X143963Y262992D02*
X143438D01*
X143963Y263517D01*
Y263648D01*
X143832Y263779D01*
X143570D01*
X143438Y263648D01*
X121653D02*
X121522Y263779D01*
X121260D01*
X121129Y263648D01*
Y263123D01*
X121260Y262992D01*
X121522D01*
X121653Y263123D01*
X121916Y262992D02*
X122178D01*
X122047D01*
Y263779D01*
X121916Y263648D01*
M02*
